<?xml version="1.0" encoding="UTF-8"?>
<svg xmlns="http://www.w3.org/2000/svg" xmlns:xlink="http://www.w3.org/1999/xlink" width="75pt" height="74.999997pt" viewBox="0 0 75 74.999997" version="1.2">
<g id="surface1">
<path style=" stroke:none;fill-rule:nonzero;fill:rgb(0%,0%,0%);fill-opacity:1;" d="M 62.554688 0 L 12.445312 0 C 11.625 0 10.816406 0.0820312 10.015625 0.242188 C 9.214844 0.402344 8.4375 0.640625 7.683594 0.953125 C 6.929688 1.265625 6.210938 1.648438 5.535156 2.105469 C 4.855469 2.558594 4.226562 3.074219 3.648438 3.652344 C 3.070312 4.230469 2.554688 4.859375 2.101562 5.535156 C 1.648438 6.214844 1.265625 6.933594 0.953125 7.6875 C 0.636719 8.441406 0.402344 9.21875 0.242188 10.019531 C 0.0820312 10.820312 0 11.628906 0 12.445312 L 0 62.558594 C 0 63.375 0.0820312 64.183594 0.242188 64.984375 C 0.402344 65.785156 0.640625 66.5625 0.953125 67.316406 C 1.265625 68.074219 1.648438 68.789062 2.101562 69.46875 C 2.558594 70.144531 3.074219 70.773438 3.652344 71.351562 C 4.226562 71.929688 4.855469 72.445312 5.535156 72.898438 C 6.214844 73.351562 6.929688 73.734375 7.683594 74.046875 C 8.4375 74.363281 9.214844 74.597656 10.015625 74.757812 C 10.816406 74.917969 11.625 75 12.445312 75 L 62.554688 75 C 63.375 75 64.183594 74.917969 64.984375 74.757812 C 65.785156 74.597656 66.5625 74.363281 67.316406 74.046875 C 68.070312 73.734375 68.785156 73.351562 69.464844 72.898438 C 70.144531 72.445312 70.773438 71.929688 71.347656 71.351562 C 71.925781 70.773438 72.441406 70.144531 72.898438 69.46875 C 73.351562 68.789062 73.734375 68.074219 74.046875 67.316406 C 74.359375 66.5625 74.597656 65.785156 74.757812 64.984375 C 74.917969 64.183594 75 63.375 75 62.558594 L 75 12.445312 C 75 11.628906 74.917969 10.820312 74.757812 10.019531 C 74.597656 9.21875 74.363281 8.441406 74.046875 7.6875 C 73.734375 6.933594 73.351562 6.214844 72.898438 5.535156 C 72.445312 4.859375 71.929688 4.230469 71.351562 3.652344 C 70.773438 3.074219 70.144531 2.558594 69.464844 2.105469 C 68.789062 1.648438 68.070312 1.265625 67.316406 0.953125 C 66.5625 0.640625 65.785156 0.402344 64.984375 0.242188 C 64.183594 0.0820312 63.375 0 62.554688 0 Z M 60.523438 52.316406 L 39.152344 62.078125 C 38.628906 62.320312 38.078125 62.445312 37.5 62.445312 C 36.921875 62.445312 36.371094 62.320312 35.847656 62.078125 L 14.484375 52.316406 C 14.058594 52.121094 13.71875 51.828125 13.464844 51.433594 C 13.210938 51.039062 13.085938 50.605469 13.085938 50.136719 C 13.085938 49.667969 13.210938 49.238281 13.464844 48.84375 C 13.71875 48.449219 14.058594 48.152344 14.484375 47.957031 L 18.859375 45.929688 C 19.050781 45.839844 19.25 45.792969 19.460938 45.785156 C 19.667969 45.777344 19.871094 45.808594 20.070312 45.878906 C 20.265625 45.953125 20.441406 46.058594 20.59375 46.199219 C 20.75 46.34375 20.871094 46.507812 20.957031 46.699219 C 21.046875 46.890625 21.09375 47.089844 21.101562 47.296875 C 21.109375 47.507812 21.078125 47.710938 21.007812 47.90625 C 20.933594 48.101562 20.828125 48.277344 20.6875 48.433594 C 20.542969 48.585938 20.378906 48.707031 20.1875 48.796875 L 17.308594 50.128906 L 37.175781 59.203125 C 37.398438 59.3125 37.625 59.3125 37.847656 59.203125 L 57.71875 50.128906 L 54.835938 48.796875 C 54.636719 48.714844 54.460938 48.59375 54.308594 48.441406 C 54.15625 48.289062 54.042969 48.109375 53.964844 47.910156 C 53.886719 47.707031 53.851562 47.5 53.855469 47.285156 C 53.863281 47.070312 53.910156 46.863281 54.003906 46.667969 C 54.09375 46.472656 54.21875 46.300781 54.378906 46.15625 C 54.539062 46.011719 54.722656 45.90625 54.925781 45.835938 C 55.128906 45.765625 55.339844 45.738281 55.554688 45.757812 C 55.769531 45.773438 55.972656 45.828125 56.164062 45.929688 L 60.539062 47.957031 C 60.960938 48.15625 61.300781 48.449219 61.550781 48.84375 C 61.804688 49.238281 61.929688 49.667969 61.929688 50.136719 C 61.929688 50.605469 61.804688 51.035156 61.550781 51.429688 C 61.300781 51.824219 60.960938 52.121094 60.539062 52.316406 Z M 60.523438 39.800781 L 39.152344 49.566406 C 38.628906 49.808594 38.078125 49.929688 37.503906 49.929688 C 36.917969 49.929688 36.363281 49.804688 35.832031 49.558594 L 14.484375 39.78125 C 14.058594 39.585938 13.714844 39.292969 13.460938 38.898438 C 13.207031 38.503906 13.082031 38.070312 13.078125 37.601562 C 13.078125 37.128906 13.203125 36.699219 13.457031 36.300781 C 13.710938 35.90625 14.054688 35.613281 14.484375 35.421875 L 18.847656 33.402344 C 19.039062 33.304688 19.242188 33.25 19.453125 33.238281 C 19.667969 33.222656 19.875 33.253906 20.078125 33.324219 C 20.28125 33.394531 20.460938 33.5 20.617188 33.644531 C 20.777344 33.789062 20.898438 33.957031 20.988281 34.152344 C 21.078125 34.347656 21.128906 34.550781 21.136719 34.765625 C 21.140625 34.976562 21.109375 35.183594 21.03125 35.382812 C 20.953125 35.582031 20.839844 35.761719 20.691406 35.914062 C 20.542969 36.066406 20.371094 36.1875 20.175781 36.269531 L 17.300781 37.601562 L 37.175781 46.679688 C 37.398438 46.792969 37.621094 46.792969 37.84375 46.679688 L 57.71875 37.609375 L 54.839844 36.28125 C 54.648438 36.191406 54.480469 36.070312 54.339844 35.917969 C 54.195312 35.761719 54.085938 35.585938 54.015625 35.390625 C 53.941406 35.191406 53.910156 34.988281 53.917969 34.777344 C 53.925781 34.566406 53.972656 34.367188 54.0625 34.175781 C 54.152344 33.984375 54.273438 33.820312 54.429688 33.675781 C 54.582031 33.535156 54.761719 33.425781 54.957031 33.355469 C 55.15625 33.285156 55.359375 33.253906 55.570312 33.261719 C 55.78125 33.269531 55.980469 33.320312 56.171875 33.410156 L 60.542969 35.4375 C 60.96875 35.636719 61.308594 35.933594 61.558594 36.328125 C 61.808594 36.722656 61.933594 37.15625 61.933594 37.625 C 61.929688 38.09375 61.804688 38.523438 61.546875 38.917969 C 61.292969 39.3125 60.953125 39.605469 60.527344 39.800781 Z M 60.523438 27.167969 L 39.152344 36.949219 C 38.628906 37.183594 38.082031 37.300781 37.507812 37.300781 C 36.933594 37.300781 36.382812 37.183594 35.859375 36.949219 L 14.484375 27.167969 C 14.058594 26.972656 13.71875 26.675781 13.464844 26.28125 C 13.210938 25.886719 13.085938 25.457031 13.085938 24.988281 C 13.085938 24.515625 13.210938 24.085938 13.464844 23.691406 C 13.71875 23.296875 14.058594 23 14.484375 22.804688 L 35.679688 12.972656 C 36.261719 12.707031 36.871094 12.574219 37.511719 12.574219 C 38.148438 12.574219 38.761719 12.707031 39.34375 12.972656 L 60.539062 22.804688 C 60.960938 23.003906 61.300781 23.300781 61.550781 23.691406 C 61.804688 24.085938 61.929688 24.519531 61.929688 24.988281 C 61.929688 25.453125 61.804688 25.886719 61.550781 26.28125 C 61.300781 26.671875 60.960938 26.96875 60.539062 27.167969 Z M 60.523438 27.167969 "/>
</g>
</svg>
