<?xml version="1.0" encoding="UTF-8"?>
<svg xmlns="http://www.w3.org/2000/svg" xmlns:xlink="http://www.w3.org/1999/xlink" width="600pt" height="599.999999pt" viewBox="0 0 600 599.999999" version="1.2">
<defs>
<clipPath id="clip1">
  <path d="M 446 343 L 502.5 343 L 502.5 425 L 446 425 Z M 446 343 "/>
</clipPath>
<clipPath id="clip2">
  <path d="M 130 89 L 475 89 L 475 575.667969 L 130 575.667969 Z M 130 89 "/>
</clipPath>
</defs>
<g id="surface1">
<path style=" stroke:none;fill-rule:nonzero;fill:rgb(92.158508%,92.549133%,0%);fill-opacity:1;" d="M 300 60 C 295.660156 60 291.320312 60.105469 286.984375 60.320312 C 282.652344 60.53125 278.324219 60.851562 274.003906 61.277344 C 269.683594 61.703125 265.378906 62.234375 261.082031 62.871094 C 256.789062 63.507812 252.515625 64.25 248.257812 65.097656 C 244 65.941406 239.765625 66.894531 235.554688 67.949219 C 231.347656 69.003906 227.164062 70.160156 223.011719 71.421875 C 218.855469 72.679688 214.738281 74.042969 210.648438 75.503906 C 206.5625 76.964844 202.515625 78.527344 198.503906 80.1875 C 194.492188 81.851562 190.527344 83.609375 186.601562 85.464844 C 182.679688 87.320312 178.804688 89.269531 174.976562 91.316406 C 171.148438 93.363281 167.371094 95.5 163.648438 97.734375 C 159.925781 99.964844 156.261719 102.285156 152.652344 104.699219 C 149.042969 107.109375 145.496094 109.609375 142.007812 112.195312 C 138.523438 114.777344 135.101562 117.449219 131.746094 120.203125 C 128.390625 122.957031 125.105469 125.789062 121.886719 128.707031 C 118.671875 131.621094 115.53125 134.613281 112.460938 137.679688 C 109.390625 140.75 106.398438 143.894531 103.484375 147.109375 C 100.570312 150.324219 97.734375 153.613281 94.980469 156.964844 C 92.226562 160.320312 89.558594 163.742188 86.972656 167.230469 C 84.386719 170.714844 81.886719 174.261719 79.476562 177.871094 C 77.066406 181.480469 74.742188 185.148438 72.511719 188.871094 C 70.28125 192.59375 68.140625 196.367188 66.097656 200.195312 C 64.050781 204.023438 62.097656 207.902344 60.242188 211.824219 C 58.386719 215.75 56.628906 219.714844 54.96875 223.726562 C 53.304688 227.734375 51.746094 231.785156 50.28125 235.871094 C 48.820312 239.957031 47.460938 244.078125 46.199219 248.230469 C 44.9375 252.386719 43.78125 256.566406 42.726562 260.777344 C 41.671875 264.988281 40.722656 269.222656 39.875 273.480469 C 39.027344 277.734375 38.285156 282.011719 37.648438 286.304688 C 37.011719 290.597656 36.480469 294.90625 36.054688 299.226562 C 35.628906 303.542969 35.3125 307.871094 35.097656 312.207031 C 34.886719 316.542969 34.777344 320.878906 34.777344 325.222656 C 34.777344 329.5625 34.886719 333.898438 35.097656 338.234375 C 35.3125 342.570312 35.628906 346.898438 36.054688 351.21875 C 36.480469 355.535156 37.011719 359.84375 37.648438 364.136719 C 38.285156 368.429688 39.027344 372.707031 39.875 376.964844 C 40.722656 381.21875 41.671875 385.453125 42.726562 389.664062 C 43.78125 393.875 44.9375 398.058594 46.199219 402.210938 C 47.460938 406.363281 48.820312 410.484375 50.28125 414.570312 C 51.746094 418.660156 53.304688 422.707031 54.96875 426.71875 C 56.628906 430.726562 58.386719 434.695312 60.242188 438.617188 C 62.097656 442.542969 64.050781 446.417969 66.097656 450.246094 C 68.140625 454.074219 70.28125 457.847656 72.511719 461.570312 C 74.742188 465.296875 77.066406 468.960938 79.476562 472.570312 C 81.886719 476.179688 84.386719 479.726562 86.972656 483.214844 C 89.558594 486.699219 92.226562 490.121094 94.980469 493.476562 C 97.734375 496.832031 100.570312 500.117188 103.484375 503.332031 C 106.398438 506.550781 109.390625 509.691406 112.460938 512.761719 C 115.53125 515.832031 118.671875 518.820312 121.886719 521.738281 C 125.105469 524.652344 128.390625 527.484375 131.746094 530.238281 C 135.101562 532.992188 138.523438 535.664062 142.007812 538.25 C 145.496094 540.835938 149.042969 543.332031 152.652344 545.746094 C 156.261719 548.15625 159.925781 550.476562 163.648438 552.710938 C 167.371094 554.941406 171.148438 557.078125 174.976562 559.125 C 178.804688 561.171875 182.679688 563.121094 186.601562 564.976562 C 190.527344 566.835938 194.492188 568.59375 198.503906 570.253906 C 202.515625 571.914062 206.5625 573.476562 210.648438 574.9375 C 214.738281 576.402344 218.855469 577.761719 223.011719 579.023438 C 227.164062 580.28125 231.347656 581.4375 235.554688 582.492188 C 239.765625 583.546875 244 584.5 248.257812 585.347656 C 252.515625 586.191406 256.789062 586.933594 261.082031 587.570312 C 265.378906 588.207031 269.683594 588.738281 274.003906 589.164062 C 278.324219 589.589844 282.652344 589.910156 286.984375 590.121094 C 291.320312 590.335938 295.660156 590.441406 300 590.441406 C 304.339844 590.441406 308.679688 590.335938 313.015625 590.121094 C 317.347656 589.910156 321.675781 589.589844 325.996094 589.164062 C 330.316406 588.738281 334.621094 588.207031 338.914062 587.570312 C 343.210938 586.933594 347.484375 586.191406 351.742188 585.347656 C 356 584.5 360.234375 583.546875 364.445312 582.492188 C 368.652344 581.4375 372.835938 580.28125 376.988281 579.023438 C 381.144531 577.761719 385.261719 576.402344 389.351562 574.9375 C 393.4375 573.476562 397.484375 571.914062 401.496094 570.253906 C 405.503906 568.59375 409.472656 566.835938 413.398438 564.976562 C 417.320312 563.121094 421.195312 561.171875 425.023438 559.125 C 428.851562 557.078125 432.628906 554.941406 436.351562 552.707031 C 440.074219 550.476562 443.738281 548.15625 447.347656 545.746094 C 450.957031 543.332031 454.503906 540.835938 457.992188 538.25 C 461.476562 535.664062 464.898438 532.992188 468.253906 530.238281 C 471.609375 527.484375 474.894531 524.652344 478.113281 521.738281 C 481.328125 518.820312 484.46875 515.832031 487.539062 512.761719 C 490.609375 509.691406 493.601562 506.550781 496.515625 503.332031 C 499.429688 500.117188 502.265625 496.832031 505.019531 493.476562 C 507.773438 490.121094 510.441406 486.699219 513.027344 483.214844 C 515.613281 479.726562 518.113281 476.179688 520.523438 472.570312 C 522.933594 468.960938 525.257812 465.296875 527.488281 461.570312 C 529.71875 457.847656 531.859375 454.074219 533.902344 450.246094 C 535.949219 446.417969 537.902344 442.542969 539.757812 438.617188 C 541.613281 434.695312 543.371094 430.726562 545.03125 426.71875 C 546.695312 422.707031 548.253906 418.660156 549.71875 414.570312 C 551.179688 410.484375 552.539062 406.363281 553.800781 402.210938 C 555.0625 398.058594 556.21875 393.875 557.273438 389.664062 C 558.328125 385.453125 559.277344 381.21875 560.125 376.964844 C 560.972656 372.707031 561.714844 368.429688 562.351562 364.136719 C 562.988281 359.84375 563.519531 355.535156 563.945312 351.21875 C 564.371094 346.898438 564.6875 342.570312 564.902344 338.234375 C 565.113281 333.898438 565.222656 329.5625 565.222656 325.222656 C 565.222656 320.878906 565.113281 316.542969 564.902344 312.207031 C 564.6875 307.871094 564.371094 303.542969 563.945312 299.226562 C 563.519531 294.90625 562.988281 290.597656 562.351562 286.304688 C 561.714844 282.011719 560.972656 277.734375 560.125 273.480469 C 559.277344 269.222656 558.328125 264.988281 557.273438 260.777344 C 556.21875 256.566406 555.0625 252.386719 553.800781 248.230469 C 552.539062 244.078125 551.179688 239.957031 549.71875 235.871094 C 548.253906 231.785156 546.695312 227.734375 545.03125 223.726562 C 543.371094 219.714844 541.613281 215.75 539.757812 211.824219 C 537.902344 207.902344 535.949219 204.023438 533.902344 200.195312 C 531.859375 196.367188 529.71875 192.59375 527.488281 188.871094 C 525.257812 185.148438 522.933594 181.480469 520.523438 177.871094 C 518.113281 174.261719 515.613281 170.714844 513.027344 167.230469 C 510.441406 163.742188 507.773438 160.320312 505.019531 156.964844 C 502.265625 153.613281 499.429688 150.324219 496.515625 147.109375 C 493.601562 143.894531 490.609375 140.75 487.539062 137.679688 C 484.46875 134.613281 481.328125 131.621094 478.113281 128.707031 C 474.894531 125.789062 471.609375 122.957031 468.253906 120.203125 C 464.898438 117.449219 461.476562 114.777344 457.992188 112.195312 C 454.503906 109.609375 450.957031 107.109375 447.347656 104.699219 C 443.738281 102.285156 440.074219 99.964844 436.351562 97.734375 C 432.628906 95.5 428.851562 93.363281 425.023438 91.316406 C 421.195312 89.269531 417.320312 87.320312 413.398438 85.464844 C 409.472656 83.609375 405.503906 81.851562 401.496094 80.1875 C 397.484375 78.527344 393.4375 76.964844 389.351562 75.503906 C 385.261719 74.042969 381.144531 72.679688 376.988281 71.421875 C 372.835938 70.160156 368.652344 69.003906 364.445312 67.949219 C 360.234375 66.894531 356 65.941406 351.742188 65.097656 C 347.484375 64.25 343.210938 63.507812 338.914062 62.871094 C 334.621094 62.234375 330.316406 61.703125 325.996094 61.277344 C 321.675781 60.851562 317.347656 60.53125 313.015625 60.320312 C 308.679688 60.105469 304.339844 60 300 60 Z M 300 60 "/>
<g clip-path="url(#clip1)" clip-rule="nonzero">
<path style=" stroke:none;fill-rule:nonzero;fill:rgb(97.24884%,61.178589%,38.819885%);fill-opacity:1;" d="M 502.578125 384.308594 C 502.578125 406.746094 489.921875 424.957031 474.328125 424.957031 C 458.734375 424.957031 446.082031 406.746094 446.082031 384.308594 C 446.082031 361.859375 458.734375 343.660156 474.328125 343.660156 C 489.921875 343.660156 502.578125 361.859375 502.578125 384.308594 "/>
</g>
<path style=" stroke:none;fill-rule:nonzero;fill:rgb(97.24884%,61.178589%,38.819885%);fill-opacity:1;" d="M 159.648438 384.308594 C 159.648438 406.746094 147.007812 424.957031 131.402344 424.957031 C 115.808594 424.957031 103.160156 406.746094 103.160156 384.308594 C 103.160156 361.859375 115.808594 343.660156 131.402344 343.660156 C 147.007812 343.660156 159.648438 361.859375 159.648438 384.308594 "/>
<g clip-path="url(#clip2)" clip-rule="nonzero">
<path style=" stroke:none;fill-rule:nonzero;fill:rgb(97.24884%,61.178589%,38.819885%);fill-opacity:1;" d="M 474.671875 403.859375 C 474.671875 438.152344 397.652344 575.992188 302.636719 575.992188 C 207.632812 575.992188 130.621094 439.835938 130.621094 403.859375 L 130.621094 261.238281 C 130.621094 166.179688 207.632812 89.113281 302.636719 89.113281 C 397.652344 89.113281 474.671875 166.179688 474.671875 261.238281 L 474.671875 403.859375 "/>
</g>
<path style=" stroke:none;fill-rule:nonzero;fill:rgb(15.689087%,13.729858%,12.939453%);fill-opacity:1;" d="M 225.4375 374.886719 C 225.4375 386.066406 219.394531 395.128906 211.945312 395.128906 C 204.480469 395.128906 198.449219 386.066406 198.449219 374.886719 C 198.449219 363.699219 204.480469 354.636719 211.945312 354.636719 C 219.394531 354.636719 225.4375 363.699219 225.4375 374.886719 "/>
<path style=" stroke:none;fill-rule:nonzero;fill:rgb(15.689087%,13.729858%,12.939453%);fill-opacity:1;" d="M 392.960938 374.886719 C 392.960938 386.066406 386.929688 395.128906 379.472656 395.128906 C 372.015625 395.128906 365.980469 386.066406 365.980469 374.886719 C 365.980469 363.699219 372.015625 354.636719 379.472656 354.636719 C 386.929688 354.636719 392.960938 363.699219 392.960938 374.886719 "/>
<path style=" stroke:none;fill-rule:nonzero;fill:rgb(15.689087%,13.729858%,12.939453%);fill-opacity:1;" d="M 405.046875 338.320312 C 394.378906 336.089844 386.460938 334.257812 378.742188 334.203125 C 374.902344 334.152344 371.089844 334.445312 366.910156 335.207031 C 362.675781 335.890625 358.230469 337.191406 352.765625 338.320312 C 354.453125 332.992188 358.003906 328.667969 362.636719 325.480469 C 367.273438 322.332031 373.144531 320.574219 378.941406 320.707031 C 384.773438 320.796875 390.398438 322.667969 394.96875 325.71875 C 399.484375 328.847656 403.292969 332.941406 405.046875 338.320312 "/>
<path style=" stroke:none;fill-rule:nonzero;fill:rgb(15.689087%,13.729858%,12.939453%);fill-opacity:1;" d="M 238.929688 338.320312 C 228.25 336.089844 220.34375 334.257812 212.613281 334.203125 C 208.773438 334.152344 204.960938 334.445312 200.773438 335.207031 C 196.550781 335.890625 192.109375 337.191406 186.648438 338.320312 C 188.335938 332.992188 191.894531 328.667969 196.519531 325.480469 C 201.160156 322.332031 207.007812 320.574219 212.828125 320.707031 C 218.652344 320.796875 224.273438 322.667969 228.839844 325.71875 C 233.355469 328.847656 237.171875 332.941406 238.929688 338.320312 "/>
<path style=" stroke:none;fill-rule:nonzero;fill:rgb(84.309387%,41.569519%,26.669312%);fill-opacity:1;" d="M 300.898438 342.539062 L 285.042969 436.796875 L 316.269531 436.550781 L 316.214844 429.804688 L 293.027344 429.980469 L 307.550781 343.660156 L 300.898438 342.539062 "/>
<path style=" stroke:none;fill-rule:nonzero;fill:rgb(96.469116%,52.159119%,32.939148%);fill-opacity:1;" d="M 212.960938 448.457031 C 192.253906 448.457031 175.480469 440.386719 175.480469 430.429688 C 175.480469 420.480469 192.253906 412.402344 212.960938 412.402344 C 233.652344 412.402344 250.429688 420.480469 250.429688 430.429688 C 250.429688 440.386719 233.652344 448.457031 212.960938 448.457031 "/>
<path style=" stroke:none;fill-rule:nonzero;fill:rgb(96.469116%,52.159119%,32.939148%);fill-opacity:1;" d="M 391.128906 448.457031 C 370.441406 448.457031 353.660156 440.386719 353.660156 430.429688 C 353.660156 420.480469 370.441406 412.402344 391.128906 412.402344 C 411.835938 412.402344 428.609375 420.480469 428.609375 430.429688 C 428.609375 440.386719 411.835938 448.457031 391.128906 448.457031 "/>
<path style=" stroke:none;fill-rule:nonzero;fill:rgb(65.489197%,9.799194%,19.999695%);fill-opacity:1;" d="M 255.789062 479.800781 C 255.789062 479.800781 284.519531 485.304688 314.824219 477.480469 C 331.347656 473.203125 347.707031 463.335938 361.199219 448.574219 C 361.199219 448.574219 373.417969 506.378906 326.191406 520.71875 C 277.082031 535.640625 255.789062 479.800781 255.789062 479.800781 "/>
<path style=" stroke:none;fill-rule:nonzero;fill:rgb(100%,100%,100%);fill-opacity:1;" d="M 319.34375 492.664062 C 335.167969 486.652344 339.15625 485.371094 354.230469 475.054688 C 364.261719 468.195312 361.195312 448.574219 361.195312 448.574219 C 347.695312 463.335938 331.347656 473.203125 314.808594 477.480469 C 284.519531 485.304688 255.789062 479.800781 255.789062 479.800781 C 255.789062 479.800781 262.855469 492.136719 273.070312 495.617188 C 280.714844 498.222656 295.601562 501.695312 319.34375 492.664062 "/>
<path style=" stroke:none;fill-rule:nonzero;fill:rgb(95.289612%,37.649536%,50.588989%);fill-opacity:1;" d="M 326.234375 520.824219 C 337.371094 517.445312 345.109375 511.601562 350.566406 504.722656 C 345.332031 498.769531 333.464844 496.523438 320.847656 499.886719 C 306.746094 503.632812 296.878906 512.96875 297.207031 521.5625 C 305.523438 523.9375 315.175781 524.191406 326.234375 520.824219 "/>
<path style=" stroke:none;fill-rule:nonzero;fill:rgb(10.978699%,9.408569%,8.239746%);fill-opacity:1;" d="M 428.460938 144.101562 C 395.296875 89.007812 290.683594 43.171875 198.449219 109.363281 C 191.3125 114.484375 185.210938 119.417969 179.90625 124.089844 C 125.898438 157.507812 86.003906 116.820312 86.003906 116.820312 C 87.257812 142.195312 99.78125 158.828125 112.167969 169.195312 C 96.078125 169.769531 80.03125 165.164062 60.148438 155.5 C 60.148438 155.5 80.015625 213.296875 130.988281 235.445312 L 130.988281 385.570312 C 130.988281 385.570312 150.800781 383.882812 150.800781 355.757812 C 150.800781 325.46875 150.800781 351.957031 150.800781 315.820312 C 150.800781 262.785156 196.277344 247.894531 215.199219 243.992188 C 273.332031 244.089844 313.113281 244.375 341.792969 244.375 C 344.5 244.375 347.398438 244.316406 350.355469 244.222656 C 351.652344 244.308594 352.992188 244.375 354.453125 244.375 C 430.347656 244.375 455.109375 316.414062 455.109375 349.324219 C 455.109375 377.6875 470.746094 384.09375 475.070312 385.324219 C 475.070312 385.324219 475.070312 262.660156 475.070312 212.066406 C 475.070312 158.902344 444.925781 146.777344 428.460938 144.101562 "/>
</g>
</svg>
