<?xml version="1.0" encoding="UTF-8"?>
<svg xmlns="http://www.w3.org/2000/svg" xmlns:xlink="http://www.w3.org/1999/xlink" width="375pt" height="374.999991pt" viewBox="0 0 375 374.999991" version="1.2">
<defs>
<clipPath id="clip1">
  <path d="M 0 15.46875 L 375 15.46875 L 375 359.71875 L 0 359.71875 Z M 0 15.46875 "/>
</clipPath>
</defs>
<g id="surface1">
<g clip-path="url(#clip1)" clip-rule="nonzero">
<path style=" stroke:none;fill-rule:nonzero;fill:rgb(0%,0%,0%);fill-opacity:1;" d="M 371 15.46875 L 4 15.46875 C 1.890625 15.46875 0.175781 17.183594 0.175781 19.296875 L 0.175781 356.078125 C 0.175781 358.191406 1.890625 359.90625 4 359.90625 L 371 359.90625 C 373.109375 359.90625 374.824219 358.191406 374.824219 356.078125 L 374.824219 19.296875 C 374.824219 17.183594 373.109375 15.46875 371 15.46875 Z M 367.175781 352.253906 L 7.824219 352.253906 L 7.824219 23.121094 L 367.175781 23.121094 Z M 367.175781 352.253906 "/>
</g>
<path style=" stroke:none;fill-rule:nonzero;fill:rgb(0%,0%,0%);fill-opacity:1;" d="M 93.042969 266.9375 C 93.792969 267.679688 94.769531 268.054688 95.75 268.054688 C 96.730469 268.054688 97.707031 267.679688 98.457031 266.9375 L 174.914062 190.398438 C 176.40625 188.90625 176.40625 186.476562 174.914062 184.984375 L 98.457031 108.445312 C 96.964844 106.953125 94.542969 106.953125 93.050781 108.445312 C 91.558594 109.9375 91.558594 112.363281 93.050781 113.855469 L 166.800781 187.6875 L 93.050781 261.519531 C 91.550781 263.019531 91.550781 265.4375 93.042969 266.9375 Z M 93.042969 266.9375 "/>
<path style=" stroke:none;fill-rule:nonzero;fill:rgb(0%,0%,0%);fill-opacity:1;" d="M 202.792969 268.054688 L 279.25 268.054688 C 281.359375 268.054688 283.074219 266.339844 283.074219 264.230469 C 283.074219 262.117188 281.359375 260.402344 279.25 260.402344 L 202.792969 260.402344 C 200.679688 260.402344 198.96875 262.117188 198.96875 264.230469 C 198.96875 266.339844 200.679688 268.054688 202.792969 268.054688 Z M 202.792969 268.054688 "/>
</g>
</svg>
