<?xml version="1.0" encoding="UTF-8"?>
<svg xmlns="http://www.w3.org/2000/svg" xmlns:xlink="http://www.w3.org/1999/xlink" width="375pt" height="374.999991pt" viewBox="0 0 375 374.999991" version="1.2">
<g id="surface1">
<rect x="0" y="0" width="375" height="374.999991" style="fill:rgb(100%,100%,100%);fill-opacity:1;stroke:none;"/>
<rect x="0" y="0" width="375" height="374.999991" style="fill:rgb(100%,100%,100%);fill-opacity:1;stroke:none;"/>
<rect x="0" y="0" width="375" height="374.999991" style="fill:rgb(100%,100%,100%);fill-opacity:1;stroke:none;"/>
<path style=" stroke:none;fill-rule:nonzero;fill:rgb(0%,0%,0%);fill-opacity:1;" d="M 69.730469 227.859375 C 67.820312 226.269531 67.820312 223.09375 70.6875 222.457031 C 71.003906 222.457031 71.640625 222.457031 71.960938 222.140625 C 73.871094 221.820312 76.101562 223.09375 76.101562 225.316406 C 75.460938 260.277344 77.054688 295.234375 80.875 329.871094 C 81.195312 334.003906 74.824219 334.003906 74.507812 329.871094 C 71.003906 296.1875 69.414062 261.863281 69.730469 227.859375 Z M 139.152344 129.34375 C 136.605469 133.472656 130.554688 135.0625 126.414062 132.519531 C 123.546875 130.933594 120.683594 128.390625 119.726562 125.210938 C 118.453125 122.035156 118.773438 118.21875 118.773438 114.722656 C 118.773438 114.089844 118.453125 113.453125 118.136719 113.136719 C 118.136719 110.910156 118.136719 109.003906 117.816406 106.78125 C 117.816406 106.78125 118.136719 106.78125 118.136719 106.78125 C 119.410156 106.78125 121 106.460938 122.273438 105.828125 C 123.546875 105.191406 124.503906 104.238281 125.460938 102.964844 C 125.460938 102.648438 125.777344 102.648438 125.777344 102.332031 C 126.414062 101.695312 127.050781 100.742188 127.371094 99.789062 C 128.007812 97.882812 127.371094 95.972656 126.414062 94.703125 C 125.777344 93.75 124.824219 93.433594 123.867188 92.796875 C 121.320312 91.84375 118.773438 90.570312 115.90625 91.84375 C 114.949219 92.160156 114.3125 92.796875 113.675781 93.433594 C 112.402344 92.480469 110.8125 91.527344 108.898438 91.84375 C 108.261719 91.84375 107.625 92.160156 106.988281 92.480469 C 106.035156 92.480469 105.398438 92.796875 104.441406 93.113281 C 102.210938 94.066406 101.257812 96.609375 101.257812 98.835938 C 101.257812 103.285156 105.078125 106.78125 109.535156 107.097656 C 110.171875 107.097656 110.8125 107.097656 111.449219 106.78125 C 112.402344 110.910156 112.402344 115.042969 111.449219 118.855469 C 110.492188 123.304688 108.898438 128.070312 105.714844 131.566406 C 102.53125 134.746094 97.117188 136.015625 92.976562 136.015625 C 88.519531 136.015625 85.972656 132.519531 83.742188 129.027344 C 81.511719 125.53125 76.101562 128.707031 78.328125 132.203125 C 81.511719 137.289062 85.335938 142.054688 92.023438 142.371094 C 94.886719 142.691406 98.074219 142.054688 100.9375 141.101562 C 103.804688 140.464844 106.671875 139.195312 109.21875 136.96875 C 111.765625 135.0625 113.675781 132.203125 114.949219 129.027344 C 115.90625 130.933594 117.179688 132.519531 118.773438 134.109375 C 120.363281 135.699219 122.273438 137.289062 124.503906 138.242188 C 131.828125 142.054688 141.0625 139.195312 145.523438 132.519531 C 146.796875 129.027344 141.0625 125.847656 139.152344 129.34375 Z M 174.5 94.386719 C 173.546875 92.796875 171.632812 92.480469 170.042969 93.113281 C 162.082031 96.609375 154.757812 100.742188 147.75 105.507812 C 146.476562 106.460938 145.839844 108.367188 146.476562 109.957031 C 147.433594 111.230469 149.34375 112.183594 150.933594 111.230469 C 157.941406 106.460938 165.582031 102.332031 173.226562 98.835938 C 174.820312 98.199219 175.136719 95.972656 174.5 94.386719 Z M 172.269531 111.863281 C 171.632812 111.863281 170.996094 112.183594 170.359375 112.5 C 170.042969 112.5 170.042969 112.5 169.722656 112.5 C 169.085938 112.5 168.449219 112.5 167.8125 112.816406 C 166.539062 112.816406 164.945312 113.136719 163.671875 113.136719 C 160.808594 113.453125 158.257812 113.453125 155.394531 113.769531 C 153.800781 113.769531 152.207031 115.042969 152.207031 116.949219 C 152.207031 118.539062 153.484375 120.128906 155.394531 120.128906 C 158.894531 119.808594 162.082031 119.492188 165.582031 119.171875 C 167.175781 119.171875 169.085938 118.855469 170.679688 118.855469 C 171.632812 118.855469 172.90625 118.855469 173.863281 118.21875 C 175.136719 117.585938 176.09375 116.3125 175.773438 115.042969 C 175.136719 113.136719 173.863281 111.546875 172.269531 111.863281 Z M 79.285156 108.6875 C 80.875 109.003906 82.785156 108.367188 83.105469 106.460938 C 83.425781 104.871094 82.46875 102.648438 80.875 102.648438 C 71.640625 101.378906 62.089844 101.058594 52.851562 100.421875 C 51.261719 100.421875 49.667969 102.011719 49.667969 103.601562 C 49.667969 105.507812 51.261719 106.78125 52.851562 106.78125 C 57.3125 107.097656 61.769531 107.414062 66.226562 107.734375 C 70.6875 108.050781 75.144531 108.367188 79.285156 108.6875 Z M 78.011719 113.136719 C 77.054688 111.546875 75.144531 111.230469 73.550781 111.863281 C 70.367188 113.453125 66.863281 115.042969 63.679688 116.949219 C 62.089844 117.585938 61.769531 119.808594 62.40625 121.398438 C 63.363281 122.988281 65.273438 123.304688 66.863281 122.667969 C 70.050781 121.082031 73.550781 119.492188 76.738281 117.585938 C 78.648438 116.949219 78.964844 114.722656 78.011719 113.136719 Z M 350.921875 251.378906 C 332.449219 274.578125 282.453125 291.738281 280.542969 292.371094 C 280.226562 292.371094 279.90625 292.691406 279.589844 292.691406 C 277.039062 327.332031 269.714844 335.277344 265.578125 336.863281 C 263.027344 339.722656 254.75 348.304688 239.144531 348.304688 C 235.324219 348.304688 230.867188 347.667969 226.40625 346.398438 C 226.089844 346.398438 225.769531 346.082031 225.769531 346.082031 C 227.363281 352.753906 224.179688 360.382812 217.492188 363.242188 C 211.121094 366.101562 201.886719 364.832031 197.109375 359.746094 C 191.378906 367.691406 182.460938 374.046875 172.589844 368.644531 C 165.902344 364.832031 163.671875 354.660156 167.175781 347.667969 C 163.035156 346.082031 160.171875 341.949219 159.851562 337.183594 C 159.535156 327.011719 168.769531 321.292969 176.730469 317.796875 C 174.183594 311.441406 172.589844 304.765625 170.996094 297.777344 C 169.085938 289.832031 167.175781 281.886719 165.582031 273.941406 C 162.082031 258.367188 157.304688 242.480469 155.394531 226.589844 C 154.757812 222.457031 161.125 222.457031 161.761719 226.589844 C 163.671875 241.84375 168.449219 257.097656 171.953125 272.351562 C 173.546875 279.660156 175.457031 286.96875 177.046875 294.597656 C 178.640625 301.90625 180.230469 309.535156 183.417969 316.527344 C 184.054688 318.113281 183.417969 319.703125 182.460938 320.65625 C 182.460938 321.609375 182.144531 322.5625 180.871094 322.882812 C 175.773438 325.105469 169.722656 327.648438 167.496094 333.050781 C 166.539062 335.277344 166.21875 338.453125 168.132812 340.679688 C 169.722656 342.265625 171.953125 342.902344 173.863281 341.632812 C 174.183594 341.632812 174.5 341.3125 174.5 341.3125 C 178.003906 340.042969 179.914062 345.445312 177.046875 347.035156 C 176.410156 347.351562 175.773438 347.667969 175.136719 347.988281 C 172.90625 349.578125 172.269531 353.390625 172.589844 355.933594 C 172.90625 360.0625 174.820312 363.242188 178.957031 364.195312 C 187.238281 365.464844 192.332031 357.839844 195.519531 351.484375 C 197.109375 348.621094 201.25 350.210938 201.570312 353.070312 C 201.570312 359.429688 211.757812 359.746094 215.582031 357.839844 C 220.675781 355.296875 222.269531 348.621094 218.128906 344.492188 C 215.898438 342.265625 218.128906 338.453125 221.3125 339.089844 C 227.042969 340.359375 230.867188 330.191406 227.042969 326.695312 C 222.585938 322.5625 214.945312 323.515625 210.167969 326.695312 C 207.617188 328.285156 205.390625 325.742188 205.390625 323.515625 C 205.070312 322.882812 204.753906 322.5625 204.753906 321.609375 C 207.300781 290.148438 210.484375 258.6875 213.988281 227.542969 C 214.304688 223.410156 220.675781 223.410156 220.355469 227.542969 C 216.855469 258.050781 213.988281 288.558594 211.441406 319.066406 C 219.71875 316.527344 230.546875 317.796875 234.050781 326.058594 C 235.960938 331.144531 234.367188 337.183594 230.867188 341.3125 C 251.882812 345.761719 261.4375 333.367188 261.753906 332.734375 C 262.074219 332.097656 263.027344 331.78125 263.667969 331.460938 C 264.621094 330.828125 277.996094 321.929688 274.175781 233.898438 C 273.21875 211.652344 269.078125 193.21875 263.347656 178.285156 C 253.15625 182.734375 248.378906 191.632812 243.921875 201.484375 C 238.828125 212.289062 236.917969 223.09375 238.191406 235.167969 C 239.78125 254.238281 242.96875 283.15625 265.257812 289.195312 C 269.078125 290.148438 267.488281 296.503906 263.667969 295.234375 C 238.507812 288.242188 234.367188 258.367188 232.140625 236.441406 C 230.867188 223.09375 232.457031 211.015625 238.191406 198.621094 C 243.285156 187.816406 249.015625 177.332031 260.480469 172.5625 C 260.800781 172.5625 260.800781 172.5625 261.117188 172.5625 C 254.429688 156.992188 246.152344 145.550781 238.828125 137.289062 C 223.222656 120.128906 207.9375 113.769531 206.980469 113.453125 C 197.746094 130.296875 183.097656 137.921875 182.460938 138.242188 C 181.1875 138.878906 149.980469 156.039062 120.046875 157.308594 C 118.136719 157.308594 116.222656 157.308594 114.3125 157.308594 C 105.398438 157.308594 97.4375 156.355469 89.792969 154.449219 C 90.75 162.710938 88.199219 171.929688 85.335938 179.554688 C 81.832031 188.453125 77.054688 196.714844 70.367188 204.027344 C 63.679688 211.652344 55.082031 217.691406 45.847656 221.820312 C 36.613281 225.953125 25.148438 230.402344 14.957031 228.8125 C 13.363281 243.433594 13.683594 258.367188 14.640625 269.492188 C 16.230469 286.335938 21.007812 337.816406 35.019531 344.808594 C 41.707031 347.988281 46.800781 350.53125 50.304688 352.117188 C 50.625 342.585938 61.449219 334.640625 70.6875 334.640625 C 74.824219 334.640625 74.824219 340.996094 70.6875 340.996094 C 64.316406 340.996094 54.125 347.351562 57.3125 354.980469 C 58.585938 358.792969 64.316406 359.746094 67.5 359.746094 C 71.640625 359.746094 75.144531 358.15625 77.054688 354.34375 C 78.648438 351.484375 82.785156 353.070312 83.105469 355.933594 C 83.105469 362.605469 89.472656 368.644531 96.160156 367.691406 C 102.53125 366.738281 106.671875 360.0625 105.714844 354.023438 C 105.398438 350.210938 110.8125 350.210938 112.085938 353.070312 C 115.90625 363.878906 132.464844 356.25 133.421875 347.035156 C 134.058594 341.949219 130.554688 337.183594 127.050781 333.6875 C 123.546875 330.191406 119.089844 326.058594 113.996094 327.964844 C 111.765625 328.917969 110.171875 327.011719 110.171875 325.105469 C 109.855469 324.789062 109.535156 324.152344 109.535156 323.515625 C 109.535156 306.992188 109.535156 290.464844 109.535156 273.941406 C 109.535156 266.3125 109.535156 258.6875 110.492188 251.058594 C 111.765625 243.113281 113.359375 235.804688 113.359375 227.859375 C 113.359375 223.730469 119.726562 223.730469 119.726562 227.859375 C 120.046875 235.488281 118.453125 242.480469 117.179688 249.789062 C 115.90625 257.734375 115.90625 265.996094 115.90625 273.941406 C 115.90625 289.832031 115.90625 305.402344 115.90625 321.292969 C 122.273438 320.972656 128.324219 326.058594 132.464844 330.507812 C 137.558594 336.230469 141.699219 343.855469 138.835938 351.800781 C 134.695312 362.605469 119.726562 368.328125 111.128906 362.289062 C 108.898438 368.644531 102.847656 373.730469 96.160156 374.363281 C 88.199219 375 81.195312 369.914062 78.328125 362.921875 C 71.003906 368.328125 58.265625 367.691406 52.851562 360.0625 C 50.625 359.109375 43.300781 356.25 32.152344 350.53125 C 20.050781 344.492188 13.046875 320.65625 8.269531 270.128906 C 5.085938 236.441406 10.5 166.207031 16.230469 150.636719 C 21.328125 136.652344 36.613281 131.25 43.9375 128.707031 C 44.890625 128.390625 45.847656 128.070312 46.484375 127.753906 C 47.121094 127.4375 47.757812 127.4375 48.394531 127.753906 C 32.789062 108.367188 24.511719 76.269531 25.464844 55.613281 C 26.421875 37.816406 19.097656 24.152344 18.777344 24.152344 C 16.230469 19.386719 13.683594 12.710938 17.503906 8.898438 C 22.601562 4.132812 33.109375 9.535156 34.0625 10.167969 C 34.703125 10.488281 35.339844 10.804688 35.976562 11.441406 C 42.027344 15.570312 59.859375 28.285156 118.773438 29.871094 C 140.109375 30.507812 155.394531 27.332031 166.539062 22.882812 C 180.234375 17.796875 187.875 10.804688 192.652344 6.355469 C 196.792969 2.542969 199.65625 0 203.480469 1.269531 C 213.351562 4.765625 212.714844 11.121094 210.167969 24.789062 C 209.210938 30.191406 210.167969 37.816406 211.441406 46.714844 C 213.351562 59.429688 215.261719 75.636719 212.714844 93.433594 C 211.757812 98.515625 210.484375 103.285156 208.894531 107.414062 C 212.078125 108.6875 227.042969 115.359375 242.648438 132.519531 C 258.253906 149.683594 277.359375 181.144531 279.90625 233.582031 C 280.226562 238.664062 280.226562 243.113281 280.542969 247.5625 C 308.25 243.433594 320.988281 220.550781 326.71875 202.117188 C 332.132812 184.640625 320.03125 164.617188 310.160156 148.410156 C 306.339844 142.054688 303.152344 136.652344 301.242188 132.203125 C 300.289062 129.980469 299.332031 127.753906 298.695312 125.847656 C 293.601562 114.089844 290.734375 106.78125 292.964844 80.085938 C 294.554688 60.382812 305.0625 52.4375 314.300781 51.484375 C 322.261719 50.53125 328.949219 54.660156 330.859375 61.335938 C 333.085938 68.960938 330.222656 76.269531 327.355469 82.945312 C 325.125 88.347656 322.898438 93.75 323.214844 98.835938 C 323.851562 104.554688 330.539062 114.722656 337.863281 125.847656 C 345.824219 137.921875 354.742188 151.589844 360.15625 165.253906 C 370.664062 193.21875 366.523438 231.671875 350.921875 251.378906 Z M 31.835938 55.933594 C 31.835938 57.203125 31.835938 58.472656 31.835938 59.746094 C 35.976562 60.699219 39.796875 58.792969 43.617188 57.203125 C 47.4375 55.296875 51.578125 53.390625 55.082031 50.847656 C 61.769531 46.082031 67.183594 39.089844 67.5 30.828125 C 66.226562 30.507812 64.636719 30.191406 63.363281 29.871094 C 62.726562 30.191406 62.40625 30.507812 61.769531 30.507812 C 58.265625 30.828125 55.082031 31.78125 51.898438 33.050781 C 48.394531 34.320312 44.890625 35.59375 41.390625 34.003906 C 37.566406 32.414062 35.976562 29.238281 34.703125 26.058594 C 33.425781 22.882812 32.472656 19.703125 32.152344 16.527344 C 31.835938 16.207031 31.515625 15.890625 31.199219 15.890625 C 27.695312 13.664062 22.917969 12.710938 21.964844 13.347656 C 21.964844 13.347656 21.328125 14.9375 24.511719 21.292969 C 25.148438 22.5625 32.789062 36.863281 31.835938 55.933594 Z M 81.832031 151.90625 C 69.730469 147.777344 59.539062 140.464844 50.625 130.613281 C 50.625 131.886719 49.988281 133.15625 48.714844 133.472656 C 48.074219 133.792969 47.121094 134.109375 46.164062 134.429688 C 39.160156 136.96875 26.421875 141.738281 22.28125 152.859375 C 19.097656 161.441406 15.59375 191.949219 14.320312 221.820312 C 19.734375 223.09375 25.464844 221.503906 30.5625 219.914062 C 35.339844 218.328125 40.113281 216.738281 44.574219 214.511719 C 52.214844 210.699219 59.222656 205.613281 64.953125 199.257812 C 70.6875 192.902344 75.460938 185.277344 78.328125 177.332031 C 81.195312 169.386719 83.742188 159.851562 81.832031 151.90625 Z M 206.34375 92.480469 C 208.894531 75.636719 206.664062 60.0625 205.070312 47.667969 C 203.796875 38.453125 202.523438 30.191406 203.796875 23.835938 C 206.34375 9.851562 205.707031 9.214844 201.570312 7.628906 C 201.570312 8.261719 201.570312 8.898438 201.25 9.535156 C 199.339844 13.03125 197.429688 16.527344 195.835938 20.339844 C 194.246094 23.515625 192.652344 27.011719 188.832031 27.964844 C 185.644531 28.917969 182.460938 27.964844 179.277344 27.964844 C 175.773438 27.648438 172.269531 27.964844 169.085938 29.238281 C 156.984375 33.367188 141.0625 36.546875 118.773438 36.230469 C 99.984375 35.910156 85.015625 34.320312 73.550781 32.097656 C 72.597656 41.949219 66.546875 50.210938 58.585938 55.933594 C 54.445312 59.109375 49.667969 61.335938 44.890625 63.558594 C 40.75 65.464844 36.292969 67.054688 31.835938 66.417969 C 33.425781 85.488281 41.390625 110.277344 54.125 125.210938 C 69.730469 143.644531 90.429688 151.589844 118.453125 150.636719 C 147.113281 149.363281 178.003906 132.519531 178.320312 132.519531 C 178.957031 132.203125 202.207031 119.808594 206.34375 92.480469 Z M 308.566406 59.746094 C 308.566406 60.0625 308.566406 60.382812 308.566406 60.699219 C 308.25 61.96875 307.613281 62.921875 307.613281 64.195312 C 307.613281 64.832031 307.613281 64.832031 307.613281 65.464844 C 307.613281 65.785156 307.613281 66.101562 307.613281 66.417969 C 307.613281 66.417969 307.613281 66.738281 307.613281 67.054688 C 307.929688 69.28125 309.523438 71.1875 310.796875 72.777344 C 311.433594 73.410156 311.75 74.046875 312.707031 75 C 313.34375 75.953125 313.980469 76.269531 314.617188 76.90625 C 316.527344 78.179688 318.4375 78.179688 320.988281 78.496094 C 321.304688 78.496094 321.941406 78.496094 322.261719 78.8125 C 324.488281 73.410156 326.402344 68.007812 324.808594 62.921875 C 323.851562 59.109375 319.714844 56.886719 314.9375 57.519531 C 312.707031 57.839844 310.476562 58.472656 308.566406 59.746094 Z M 332.449219 181.78125 C 338.5 174.789062 340.09375 165.570312 337.226562 156.671875 C 335.636719 151.589844 332.769531 147.777344 327.675781 145.867188 C 323.214844 143.960938 318.121094 142.691406 313.34375 142.054688 C 313.980469 143.007812 314.617188 143.960938 315.253906 145.234375 C 321.625 155.402344 329.265625 168.433594 332.449219 181.78125 Z M 334.042969 258.6875 C 333.40625 258.6875 333.085938 258.367188 332.449219 257.734375 C 325.445312 250.421875 313.34375 254.871094 306.339844 259.640625 C 298.695312 264.722656 293.28125 272.667969 291.371094 281.566406 C 303.152344 276.800781 320.667969 268.539062 334.042969 258.6875 Z M 353.785156 167.796875 C 348.691406 154.765625 339.773438 141.417969 332.132812 129.34375 C 323.851562 116.632812 317.164062 106.78125 316.527344 99.46875 C 315.890625 94.386719 317.484375 89.300781 319.394531 84.535156 C 316.527344 84.214844 313.664062 83.898438 311.113281 82.308594 C 308.566406 80.71875 306.65625 78.496094 305.0625 76.269531 C 303.472656 74.046875 301.878906 71.820312 301.242188 69.28125 C 299.96875 72.140625 299.332031 75.953125 299.015625 80.085938 C 296.785156 105.507812 299.652344 111.546875 304.425781 122.988281 C 305.382812 124.894531 306.019531 127.117188 306.976562 129.34375 C 307.613281 130.933594 308.566406 132.839844 309.839844 135.0625 C 310.160156 135.0625 310.476562 135.0625 310.796875 135.0625 C 317.800781 136.015625 325.125 137.289062 331.496094 140.148438 C 337.546875 142.691406 341.050781 147.777344 343.277344 153.8125 C 347.738281 166.207031 344.234375 180.191406 334.363281 188.769531 C 334.363281 188.769531 334.042969 189.089844 334.042969 189.089844 C 334.363281 194.171875 334.042969 198.941406 332.769531 203.707031 C 326.402344 224.046875 312.070312 249.46875 280.863281 253.601562 C 281.179688 265.996094 280.863281 276.484375 280.542969 285.699219 C 281.816406 285.382812 283.410156 284.746094 285.640625 283.792969 C 285.320312 283.15625 285.003906 282.203125 285.320312 281.566406 C 287.550781 269.808594 294.875 259.640625 305.0625 253.285156 C 314.617188 247.246094 329.265625 244.066406 337.863281 252.964844 C 338.5 253.601562 338.820312 254.554688 338.820312 255.191406 C 342.003906 252.648438 344.550781 249.789062 346.78125 247.246094 C 360.15625 229.765625 363.660156 193.21875 353.785156 167.796875 Z M 57.3125 76.589844 C 57.3125 65.464844 66.226562 56.25 77.691406 56.25 C 88.835938 56.25 98.074219 65.148438 98.074219 76.589844 C 98.074219 87.710938 89.15625 96.929688 77.691406 96.929688 C 66.546875 96.609375 57.3125 87.710938 57.3125 76.589844 Z M 63.679688 76.589844 C 63.679688 84.214844 70.050781 90.570312 77.691406 90.570312 C 85.335938 90.570312 91.703125 84.214844 91.703125 76.589844 C 91.703125 68.960938 85.335938 62.605469 77.691406 62.605469 C 70.050781 62.605469 63.679688 68.960938 63.679688 76.589844 Z M 98.074219 76.589844 Z M 132.148438 88.984375 C 128.324219 85.167969 126.097656 80.085938 126.097656 74.683594 C 126.097656 69.28125 128.324219 64.195312 132.148438 60.382812 C 135.96875 56.566406 141.0625 54.34375 146.476562 54.34375 C 151.890625 54.34375 156.984375 56.566406 160.808594 60.382812 C 164.628906 64.195312 166.859375 69.28125 166.859375 74.683594 C 166.859375 80.085938 164.628906 85.167969 160.808594 88.984375 C 156.984375 92.796875 151.890625 95.019531 146.476562 95.019531 C 141.0625 94.703125 135.96875 92.796875 132.148438 88.984375 Z M 132.785156 74.683594 C 132.785156 78.496094 134.375 81.992188 136.921875 84.535156 C 139.472656 87.078125 142.972656 88.664062 146.796875 88.664062 C 150.617188 88.664062 154.121094 87.078125 156.667969 84.535156 C 159.214844 81.992188 160.808594 78.496094 160.808594 74.683594 C 160.808594 70.867188 159.214844 67.371094 156.667969 64.832031 C 154.121094 62.289062 150.617188 60.699219 146.796875 60.699219 C 142.972656 60.699219 139.472656 62.289062 136.921875 64.832031 C 134.375 67.371094 132.785156 70.867188 132.785156 74.683594 Z M 145.203125 85.488281 C 150.617188 86.121094 155.710938 81.992188 156.347656 76.589844 C 156.984375 71.1875 152.847656 66.101562 147.433594 65.464844 C 142.019531 64.832031 136.921875 68.960938 136.285156 74.363281 C 135.648438 79.765625 139.472656 84.851562 145.203125 85.488281 Z M 76.738281 86.441406 C 82.148438 87.078125 87.246094 82.945312 87.882812 77.542969 C 88.519531 72.140625 84.378906 67.054688 78.964844 66.417969 C 73.550781 65.785156 68.457031 69.914062 67.820312 75.316406 C 67.183594 81.039062 71.324219 85.804688 76.738281 86.441406 Z M 76.738281 86.441406 "/>
</g>
</svg>
