<?xml version="1.0" encoding="UTF-8"?>
<svg xmlns="http://www.w3.org/2000/svg" xmlns:xlink="http://www.w3.org/1999/xlink" width="75pt" height="74.999997pt" viewBox="0 0 75 74.999997" version="1.2">
<defs>
<clipPath id="clip1">
  <path d="M 0 2.8125 L 75 2.8125 L 75 72.5625 L 0 72.5625 Z M 0 2.8125 "/>
</clipPath>
</defs>
<g id="surface1">
<path style=" stroke:none;fill-rule:nonzero;fill:rgb(22.749329%,70.199585%,48.629761%);fill-opacity:1;" d="M 43.609375 49.273438 C 43.476562 48.023438 42.527344 46.667969 41.746094 45.726562 C 40.308594 43.996094 37.183594 42.101562 35.1875 44.148438 C 33.28125 46.105469 32.851562 49.539062 34.46875 51.785156 C 34.597656 51.953125 34.65625 52.140625 34.648438 52.351562 C 35.644531 53.203125 36.832031 53.785156 38.183594 53.628906 C 39.492188 53.480469 40.730469 52.867188 41.777344 52.074219 C 42.605469 51.453125 43.738281 50.445312 43.609375 49.273438 Z M 43.609375 49.273438 "/>
<path style=" stroke:none;fill-rule:nonzero;fill:rgb(96.469116%,52.159119%,12.159729%);fill-opacity:1;" d="M 40.011719 5.171875 C 39.253906 4.878906 38.25 4.605469 37.476562 4.953125 C 36.769531 5.273438 36.363281 5.824219 36.484375 6.609375 C 36.523438 6.773438 36.507812 6.933594 36.445312 7.085938 C 36.378906 7.242188 36.273438 7.359375 36.132812 7.445312 C 36.308594 8.679688 36.753906 9.949219 38.085938 10.273438 C 39.335938 10.578125 41.414062 10.347656 41.898438 8.902344 C 42.40625 7.351562 41.449219 5.726562 40.011719 5.171875 Z M 40.011719 5.171875 "/>
<path style=" stroke:none;fill-rule:nonzero;fill:rgb(99.609375%,74.899292%,6.269836%);fill-opacity:1;" d="M 71.941406 60.167969 C 71.757812 56.585938 72.21875 53.039062 72.628906 49.472656 C 73.0625 45.703125 73.109375 42.015625 72.964844 38.226562 C 72.890625 36.359375 72.84375 34.480469 72.835938 32.605469 C 72.835938 31.664062 72.828125 30.722656 72.753906 29.78125 C 72.730469 29.441406 72.683594 29.117188 72.644531 28.785156 C 70.613281 28.8125 68.582031 28.898438 66.554688 29.023438 C 61.195312 29.363281 55.859375 29.855469 50.488281 29.917969 C 45.113281 29.980469 39.699219 29.800781 34.316406 29.410156 C 28.9375 29.015625 23.574219 28.453125 18.164062 28.402344 C 12.824219 28.351562 7.488281 28.507812 2.148438 28.515625 C 2.148438 41.996094 1.910156 55.472656 1.902344 68.953125 C 6.070312 69.40625 10.25 69.75 14.441406 69.984375 C 25.355469 70.597656 36.300781 70.601562 47.234375 70.53125 C 52.667969 70.496094 58.105469 70.441406 63.539062 70.441406 C 65.21875 70.441406 66.867188 70.722656 68.527344 70.878906 C 69.628906 70.984375 71.238281 71.265625 72.410156 70.871094 C 72.292969 70.445312 72.453125 69.945312 72.820312 69.746094 C 72.792969 68.28125 72.714844 66.816406 72.566406 65.363281 C 72.382812 63.632812 72.03125 61.914062 71.941406 60.167969 Z M 69.773438 67.804688 C 68.96875 67.804688 68.164062 67.824219 67.359375 67.859375 C 64.890625 67.960938 62.425781 68.148438 59.957031 68.222656 C 57.351562 68.296875 54.746094 68.238281 52.140625 68.160156 C 49.4375 68.082031 46.734375 67.929688 44.03125 67.914062 C 41.328125 67.902344 38.683594 67.539062 36 67.578125 C 33.316406 67.613281 30.609375 67.796875 27.914062 67.796875 L 19.519531 67.796875 C 16.820312 67.796875 14.144531 67.738281 11.460938 67.613281 C 10.144531 67.554688 8.824219 67.570312 7.507812 67.570312 C 7.160156 67.574219 6.8125 67.546875 6.46875 67.5 C 6.339844 67.476562 6.210938 67.460938 6.082031 67.441406 C 5.882812 67.550781 5.671875 67.582031 5.449219 67.527344 C 5.226562 67.472656 5.046875 67.351562 4.917969 67.164062 C 4.875 67.101562 4.835938 67.035156 4.808594 66.96875 C 4.324219 66.605469 4.328125 65.71875 4.894531 65.382812 C 4.929688 65.238281 4.957031 65.089844 4.980469 64.945312 C 5.035156 64.550781 5.066406 64.152344 5.074219 63.757812 C 5.097656 62.816406 5.074219 61.878906 5.035156 60.945312 C 4.929688 58.285156 5.035156 55.625 5.097656 52.96875 C 5.1875 49.480469 5.132812 45.984375 5.292969 42.5 C 5.371094 40.828125 5.519531 39.164062 5.570312 37.488281 C 5.59375 36.664062 5.570312 35.855469 5.546875 35.035156 C 5.527344 34.46875 5.367188 33.910156 5.328125 33.351562 C 5.328125 33.308594 5.328125 33.265625 5.328125 33.222656 L 5.328125 33.128906 C 5.324219 32.902344 5.394531 32.703125 5.53125 32.523438 C 5.667969 32.347656 5.847656 32.234375 6.066406 32.1875 C 6.222656 32.058594 6.402344 31.996094 6.605469 32.003906 L 23.320312 32.003906 C 28.660156 32.003906 33.945312 32.003906 39.269531 32.523438 C 44.59375 33.046875 49.933594 33.265625 55.300781 33.273438 C 57.511719 33.273438 59.699219 33.375 61.902344 33.488281 C 63.371094 33.558594 64.964844 33.683594 66.445312 33.410156 C 66.605469 33.132812 66.839844 33.003906 67.15625 33.023438 L 67.695312 33.023438 C 68.242188 32.703125 69.214844 33.132812 69.152344 34.007812 C 69.105469 34.699219 69.261719 35.390625 69.332031 36.074219 C 69.40625 36.757812 69.378906 37.464844 69.4375 38.160156 C 69.542969 39.496094 69.859375 40.785156 69.824219 42.128906 C 69.792969 43.429688 69.949219 44.65625 70.082031 45.945312 C 70.199219 47.285156 70.230469 48.628906 70.183594 49.976562 C 70.128906 52.75 69.9375 55.523438 70.015625 58.292969 C 70.089844 61.019531 70.496094 63.722656 70.519531 66.453125 L 70.519531 66.515625 C 70.742188 67.074219 70.523438 67.804688 69.773438 67.808594 Z M 69.773438 67.804688 "/>
<path style=" stroke:none;fill-rule:nonzero;fill:rgb(22.749329%,70.199585%,48.629761%);fill-opacity:1;" d="M 68.167969 58.132812 C 68.128906 55.246094 68.335938 52.375 68.351562 49.492188 C 68.375 48.066406 68.304688 46.644531 68.136719 45.226562 C 67.96875 43.933594 68.0625 42.683594 67.984375 41.386719 C 67.90625 40.042969 67.566406 38.742188 67.554688 37.386719 C 67.554688 36.621094 67.4375 35.875 67.371094 35.121094 C 65.976562 35.460938 64.484375 35.460938 63.0625 35.398438 C 60.949219 35.324219 58.847656 35.148438 56.730469 35.144531 C 54.050781 35.144531 51.371094 35.144531 48.695312 35.050781 C 43.386719 34.882812 38.125 34.066406 32.824219 33.902344 C 27.480469 33.730469 22.109375 33.871094 16.761719 33.871094 L 7.238281 33.871094 C 7.300781 34.316406 7.386719 34.765625 7.40625 35.207031 C 7.449219 36.121094 7.40625 37.027344 7.386719 37.945312 C 7.351562 39.84375 7.132812 41.738281 7.082031 43.636719 C 6.976562 47.472656 6.960938 51.3125 6.878906 55.144531 C 6.824219 57.617188 6.898438 60.066406 6.917969 62.53125 C 6.917969 63.253906 7.023438 64.609375 6.757812 65.664062 C 6.832031 65.675781 6.898438 65.6875 6.964844 65.695312 C 7.910156 65.828125 9.28125 65.695312 10.375 65.726562 C 11.617188 65.761719 12.851562 65.867188 14.089844 65.917969 C 16.851562 66.019531 19.628906 65.945312 22.394531 65.945312 C 25.160156 65.945312 27.933594 66 30.695312 65.902344 C 33.382812 65.804688 36.066406 65.644531 38.746094 65.792969 C 44.117188 66.09375 49.496094 66.285156 54.882812 66.371094 C 59.46875 66.445312 64.027344 66.03125 68.605469 65.957031 C 68.621094 65.933594 68.636719 65.910156 68.652344 65.890625 C 68.578125 63.300781 68.199219 60.726562 68.167969 58.132812 Z M 20.46875 55.339844 C 18.214844 56.273438 14.96875 55.714844 12.964844 54.402344 C 10.960938 53.09375 9.605469 50.695312 9.652344 48.253906 C 9.699219 45.738281 10.796875 43.289062 13.082031 42.109375 C 15.289062 40.96875 18.097656 41.0625 19.988281 42.789062 C 20.871094 43.59375 19.652344 44.992188 18.769531 44.191406 C 17.425781 42.964844 15.28125 42.917969 13.757812 43.851562 C 12.1875 44.8125 11.367188 46.6875 11.503906 48.523438 C 11.640625 50.308594 12.558594 52.066406 14.144531 52.957031 C 15.730469 53.847656 18.140625 54.292969 19.851562 53.582031 C 20.960938 53.121094 21.5625 54.886719 20.46875 55.339844 Z M 31.996094 54.839844 C 31.976562 55.3125 31.6875 55.851562 31.144531 55.84375 C 29.390625 55.820312 27.679688 55.621094 25.925781 55.691406 C 24.75 55.742188 22.925781 55.71875 22.480469 54.316406 C 21.988281 52.773438 22.382812 51.082031 22.292969 49.492188 C 22.164062 47.269531 21.714844 45.082031 21.421875 42.875 C 21.261719 41.6875 23.101562 41.542969 23.269531 42.730469 C 23.519531 44.617188 23.910156 46.496094 24.070312 48.394531 C 24.203125 49.921875 23.992188 51.429688 24.105469 52.945312 C 24.148438 53.527344 24.089844 53.722656 24.671875 53.792969 C 25.238281 53.847656 25.804688 53.847656 26.371094 53.792969 C 27.667969 53.707031 28.949219 53.875 30.242188 53.949219 C 30.253906 53.800781 30.265625 53.65625 30.269531 53.507812 C 30.3125 52.320312 32.152344 52.164062 32.117188 53.367188 C 32.089844 53.863281 32.011719 54.351562 31.996094 54.839844 Z M 42.8125 53.625 C 41.394531 54.644531 39.621094 55.558594 37.835938 55.519531 C 35.9375 55.476562 34.335938 54.679688 32.984375 53.351562 C 32.730469 53.117188 32.640625 52.832031 32.714844 52.496094 C 30.851562 49.511719 31.429688 44.917969 34.128906 42.617188 C 37.09375 40.089844 41.160156 42.011719 43.277344 44.683594 C 44.304688 45.980469 45.527344 47.804688 45.449219 49.539062 C 45.375 51.273438 44.136719 52.671875 42.8125 53.625 Z M 53.792969 54.21875 C 51.535156 55.964844 48.21875 56.863281 45.492188 55.863281 C 44.378906 55.453125 45.207031 53.785156 46.316406 54.191406 C 47.90625 54.773438 49.703125 54.265625 51.183594 53.601562 C 52.109375 53.1875 53.910156 52.285156 53.492188 50.957031 C 53.132812 49.808594 51.949219 49.703125 50.894531 49.558594 C 49.757812 49.402344 48.542969 49.320312 47.511719 48.773438 C 46.527344 48.265625 45.546875 47.285156 45.617188 46.058594 C 45.648438 45.457031 45.808594 44.894531 46.101562 44.371094 C 46.390625 43.84375 46.78125 43.410156 47.273438 43.070312 C 49.015625 41.804688 52.308594 41.074219 54.015625 42.78125 C 54.855469 43.632812 53.644531 45.035156 52.796875 44.1875 C 52.011719 43.398438 50.535156 43.644531 49.585938 43.96875 C 48.8125 44.226562 47.429688 44.898438 47.457031 45.914062 C 47.484375 47.015625 48.78125 47.363281 49.675781 47.503906 C 50.851562 47.695312 52.078125 47.75 53.203125 48.183594 C 54.363281 48.628906 55.160156 49.542969 55.335938 50.8125 C 55.523438 52.183594 54.859375 53.394531 53.792969 54.21875 Z M 65.191406 49.449219 C 63.0625 49.449219 60.933594 49.460938 58.8125 49.675781 C 58.71875 49.683594 58.625 49.679688 58.53125 49.664062 C 58.5625 50.09375 58.582031 50.527344 58.574219 50.957031 C 58.574219 51.707031 58.496094 52.484375 58.574219 53.226562 C 58.644531 53.832031 58.773438 54.074219 59.394531 54.148438 C 59.917969 54.179688 60.441406 54.179688 60.964844 54.148438 C 61.550781 54.148438 62.140625 54.175781 62.722656 54.148438 C 63.152344 54.132812 63.761719 54.179688 64.152344 53.957031 C 65.183594 53.367188 66.222656 54.914062 65.1875 55.507812 C 63.90625 56.234375 62.339844 55.960938 60.933594 56.015625 C 59.699219 56.058594 58.097656 56.164062 57.269531 55.019531 C 56.753906 54.304688 56.695312 53.382812 56.703125 52.523438 C 56.71875 51.449219 56.722656 50.390625 56.640625 49.3125 C 56.472656 47.070312 56.136719 44.839844 56.023438 42.589844 C 56.015625 42.464844 56.035156 42.339844 56.074219 42.222656 C 56.117188 42.101562 56.183594 41.996094 56.269531 41.90625 C 56.355469 41.8125 56.453125 41.742188 56.570312 41.691406 C 56.683594 41.640625 56.804688 41.617188 56.929688 41.617188 C 57.054688 41.445312 57.21875 41.335938 57.425781 41.296875 C 59.390625 40.839844 61.371094 41.007812 63.367188 41.023438 C 64.550781 41.023438 64.699219 42.890625 63.507812 42.890625 C 61.699219 42.878906 59.816406 42.648438 58.035156 43.058594 C 57.992188 43.070312 57.949219 43.074219 57.90625 43.078125 C 58.011719 44.6875 58.21875 46.28125 58.371094 47.882812 C 58.464844 47.84375 58.5625 47.820312 58.664062 47.808594 C 60.511719 47.621094 62.378906 47.589844 64.238281 47.582031 C 64.457031 47.410156 64.699219 47.378906 64.957031 47.484375 L 65.292969 47.597656 C 66.195312 47.90625 66.332031 49.449219 65.191406 49.449219 Z M 65.191406 49.449219 "/>
<path style=" stroke:none;fill-rule:nonzero;fill:rgb(0.389099%,0.389099%,0.389099%);fill-opacity:1;" d="M 70.511719 66.527344 L 70.511719 66.464844 C 70.492188 63.738281 70.085938 61.035156 70.007812 58.304688 C 69.929688 55.53125 70.125 52.753906 70.175781 49.988281 C 70.222656 48.640625 70.191406 47.296875 70.074219 45.957031 C 69.941406 44.667969 69.785156 43.441406 69.816406 42.144531 C 69.851562 40.796875 69.535156 39.507812 69.429688 38.171875 C 69.371094 37.476562 69.398438 36.78125 69.324219 36.085938 C 69.25 35.390625 69.097656 34.710938 69.144531 34.019531 C 69.207031 33.144531 68.234375 32.714844 67.6875 33.035156 L 67.128906 33.035156 C 66.816406 33.015625 66.578125 33.144531 66.421875 33.421875 C 64.9375 33.695312 63.34375 33.570312 61.878906 33.5 C 59.671875 33.386719 57.488281 33.292969 55.277344 33.285156 C 49.902344 33.285156 44.585938 33.0625 39.246094 32.535156 C 33.902344 32.011719 28.640625 32.015625 23.292969 32.015625 L 6.59375 32.015625 C 6.390625 32.007812 6.210938 32.070312 6.054688 32.199219 C 5.835938 32.246094 5.65625 32.359375 5.519531 32.535156 C 5.382812 32.714844 5.3125 32.914062 5.316406 33.140625 L 5.316406 33.234375 C 5.316406 33.277344 5.316406 33.320312 5.316406 33.363281 C 5.355469 33.921875 5.515625 34.480469 5.535156 35.046875 C 5.558594 35.867188 5.582031 36.679688 5.558594 37.5 C 5.507812 39.175781 5.359375 40.839844 5.28125 42.511719 C 5.113281 45.996094 5.175781 49.492188 5.085938 52.980469 C 5.019531 55.636719 4.917969 58.296875 5.023438 60.957031 C 5.0625 61.894531 5.085938 62.824219 5.0625 63.769531 C 5.054688 64.164062 5.023438 64.5625 4.96875 64.957031 C 4.945312 65.105469 4.917969 65.25 4.882812 65.394531 C 4.316406 65.734375 4.3125 66.617188 4.796875 66.980469 C 4.824219 67.046875 4.863281 67.113281 4.90625 67.175781 C 5.039062 67.363281 5.214844 67.488281 5.441406 67.539062 C 5.664062 67.59375 5.875 67.5625 6.078125 67.449219 C 6.207031 67.46875 6.335938 67.488281 6.460938 67.507812 C 6.808594 67.558594 7.152344 67.582031 7.5 67.578125 C 8.820312 67.578125 10.136719 67.5625 11.453125 67.621094 C 14.140625 67.746094 16.828125 67.808594 19.511719 67.808594 L 27.90625 67.808594 C 30.605469 67.808594 33.296875 67.625 35.992188 67.585938 C 38.691406 67.542969 41.34375 67.902344 44.027344 67.925781 C 46.707031 67.945312 49.433594 68.09375 52.132812 68.171875 C 54.738281 68.246094 57.347656 68.304688 59.953125 68.230469 C 62.421875 68.15625 64.886719 67.96875 67.355469 67.867188 C 68.160156 67.835938 68.964844 67.8125 69.769531 67.8125 C 70.523438 67.804688 70.742188 67.074219 70.511719 66.527344 Z M 68.609375 65.957031 C 64.03125 66.023438 59.472656 66.445312 54.886719 66.371094 C 49.503906 66.28125 44.125 66.089844 38.75 65.792969 C 36.0625 65.644531 33.386719 65.804688 30.699219 65.902344 C 27.933594 66 25.15625 65.945312 22.398438 65.945312 C 19.636719 65.945312 16.855469 66.019531 14.09375 65.917969 C 12.855469 65.867188 11.617188 65.761719 10.378906 65.726562 C 9.285156 65.695312 7.914062 65.828125 6.96875 65.695312 C 6.902344 65.6875 6.832031 65.675781 6.761719 65.664062 C 7.027344 64.609375 6.929688 63.253906 6.921875 62.53125 C 6.902344 60.066406 6.828125 57.617188 6.878906 55.144531 C 6.964844 51.3125 6.980469 47.472656 7.085938 43.636719 C 7.136719 41.738281 7.355469 39.84375 7.390625 37.945312 C 7.410156 37.027344 7.453125 36.121094 7.40625 35.207031 C 7.386719 34.765625 7.300781 34.316406 7.238281 33.871094 L 16.765625 33.871094 C 22.113281 33.871094 27.484375 33.734375 32.828125 33.902344 C 38.128906 34.070312 43.390625 34.878906 48.699219 35.050781 C 51.375 35.136719 54.054688 35.144531 56.734375 35.144531 C 58.851562 35.144531 60.953125 35.316406 63.066406 35.398438 C 64.484375 35.453125 65.980469 35.460938 67.375 35.121094 C 67.441406 35.875 67.550781 36.621094 67.558594 37.386719 C 67.570312 38.742188 67.90625 40.042969 67.988281 41.386719 C 68.0625 42.679688 67.972656 43.933594 68.140625 45.226562 C 68.308594 46.644531 68.378906 48.066406 68.355469 49.492188 C 68.335938 52.375 68.132812 55.25 68.171875 58.132812 C 68.207031 60.726562 68.582031 63.300781 68.660156 65.890625 C 68.640625 65.910156 68.625 65.933594 68.609375 65.957031 Z M 68.609375 65.957031 "/>
<g clip-path="url(#clip1)" clip-rule="nonzero">
<path style=" stroke:none;fill-rule:nonzero;fill:rgb(0.389099%,0.389099%,0.389099%);fill-opacity:1;" d="M 73.804688 60.34375 C 73.527344 56.621094 74.09375 52.902344 74.511719 49.214844 C 74.921875 45.601562 74.953125 42.046875 74.820312 38.417969 C 74.746094 36.550781 74.679688 34.671875 74.679688 32.792969 C 74.679688 31.847656 74.667969 30.902344 74.617188 29.957031 C 74.578125 29.21875 74.429688 28.480469 74.429688 27.742188 C 74.429688 27.109375 73.925781 26.847656 73.4375 26.921875 C 70.132812 26.921875 66.839844 27.148438 63.550781 27.390625 C 63.523438 27.285156 63.476562 27.183594 63.417969 27.09375 C 63.339844 26.960938 63.242188 26.851562 63.128906 26.753906 C 59.9375 23.082031 56.1875 20.046875 52.671875 16.707031 C 50.738281 14.902344 49.078125 12.875 47.683594 10.621094 C 47.128906 9.710938 46.621094 8.832031 45.917969 8.023438 C 45.1875 7.214844 44.402344 6.457031 43.566406 5.753906 C 43.453125 5.652344 43.320312 5.582031 43.167969 5.546875 C 42.449219 4.417969 41.253906 3.578125 39.894531 3.179688 C 38.625 2.8125 37.425781 2.863281 36.257812 3.5 C 35.597656 3.863281 35.128906 4.398438 34.851562 5.105469 C 34.628906 5.199219 34.480469 5.359375 34.40625 5.589844 C 34.035156 6.578125 33.144531 7.324219 32.355469 7.980469 C 31.410156 8.761719 30.40625 9.480469 29.414062 10.207031 C 26.898438 12.050781 24.464844 13.847656 22.175781 15.976562 C 19.886719 18.105469 17.644531 20.296875 15.253906 22.328125 C 14.339844 23.128906 13.382812 23.875 12.382812 24.5625 C 11.730469 25 10.828125 25.457031 10.445312 26.183594 C 10.378906 26.308594 10.339844 26.441406 10.332031 26.582031 L 8.847656 26.601562 C 6.453125 26.632812 4.054688 26.667969 1.660156 26.667969 C 1.078125 26.667969 0.820312 27.113281 0.839844 27.570312 C 0.476562 27.738281 0.296875 28.027344 0.308594 28.433594 C 0.308594 42.265625 0.0546875 56.097656 0.0546875 69.925781 C 0.0546875 70.59375 0.617188 70.84375 1.121094 70.734375 C 1.179688 70.753906 1.242188 70.765625 1.304688 70.773438 C 12.136719 71.960938 23.035156 72.335938 33.925781 72.417969 C 39.390625 72.460938 44.855469 72.417969 50.320312 72.382812 C 53.039062 72.363281 55.761719 72.34375 58.480469 72.328125 C 60.714844 72.320312 63 72.171875 65.226562 72.394531 C 66.808594 72.554688 68.378906 72.773438 69.96875 72.859375 C 71.3125 72.925781 72.855469 72.929688 74.019531 72.15625 C 74.265625 72.007812 74.398438 71.789062 74.421875 71.503906 C 74.589844 71.300781 74.675781 71.066406 74.675781 70.800781 C 74.675781 69.039062 74.597656 67.28125 74.433594 65.527344 C 74.269531 63.773438 73.933594 62.082031 73.804688 60.34375 Z M 36.484375 6.609375 C 36.363281 5.824219 36.769531 5.273438 37.476562 4.953125 C 38.25 4.605469 39.253906 4.878906 40.011719 5.171875 C 41.449219 5.726562 42.40625 7.351562 41.890625 8.90625 C 41.40625 10.351562 39.328125 10.582031 38.078125 10.277344 C 36.746094 9.949219 36.300781 8.675781 36.132812 7.445312 C 36.273438 7.359375 36.378906 7.242188 36.445312 7.085938 C 36.507812 6.933594 36.523438 6.773438 36.484375 6.609375 Z M 14.035156 25.691406 C 15.164062 24.910156 16.199219 23.964844 17.226562 23.0625 C 19.542969 21.027344 21.757812 18.878906 24.015625 16.785156 C 26.339844 14.636719 28.9375 12.921875 31.441406 11.011719 C 32.394531 10.285156 33.550781 9.527344 34.496094 8.617188 C 34.988281 10.386719 36.066406 11.8125 38.121094 12.195312 C 40.511719 12.636719 43.285156 11.425781 43.777344 8.875 C 43.800781 8.757812 43.816406 8.640625 43.832031 8.523438 C 44.070312 8.757812 44.304688 8.996094 44.53125 9.246094 C 45.261719 10.050781 45.75 11.011719 46.3125 11.9375 C 47.664062 14.15625 49.371094 16.105469 51.226562 17.90625 C 54.582031 21.164062 58.261719 24.046875 61.371094 27.554688 C 60.070312 27.648438 58.773438 27.742188 57.472656 27.820312 C 52.0625 28.136719 46.636719 28.144531 41.21875 27.945312 C 35.804688 27.746094 30.460938 27.113281 25.070312 26.785156 C 20.972656 26.539062 16.863281 26.515625 12.757812 26.554688 C 13.183594 26.261719 13.613281 25.980469 14.035156 25.691406 Z M 71.941406 60.167969 C 72.03125 61.914062 72.382812 63.632812 72.566406 65.371094 C 72.71875 66.828125 72.796875 68.289062 72.824219 69.753906 C 72.457031 69.953125 72.296875 70.453125 72.414062 70.878906 C 71.238281 71.273438 69.628906 70.996094 68.53125 70.890625 C 66.867188 70.730469 65.214844 70.449219 63.542969 70.449219 C 58.109375 70.449219 52.671875 70.503906 47.238281 70.542969 C 36.304688 70.613281 25.363281 70.609375 14.441406 69.996094 C 10.253906 69.761719 6.074219 69.417969 1.902344 68.964844 C 1.902344 55.484375 2.144531 42.003906 2.152344 28.527344 C 7.488281 28.515625 12.828125 28.355469 18.164062 28.410156 C 23.578125 28.460938 28.925781 29.03125 34.320312 29.417969 C 39.714844 29.808594 45.09375 29.988281 50.488281 29.929688 C 55.882812 29.867188 61.195312 29.367188 66.554688 29.035156 C 68.585938 28.910156 70.617188 28.820312 72.648438 28.796875 C 72.6875 29.136719 72.730469 29.460938 72.757812 29.792969 C 72.828125 30.730469 72.832031 31.675781 72.835938 32.613281 C 72.835938 34.488281 72.894531 36.363281 72.964844 38.234375 C 73.109375 42.027344 73.0625 45.714844 72.628906 49.484375 C 72.21875 53.03125 71.757812 56.585938 71.941406 60.167969 Z M 71.941406 60.167969 "/>
</g>
<path style=" stroke:none;fill-rule:nonzero;fill:rgb(0.389099%,0.389099%,0.389099%);fill-opacity:1;" d="M 19.855469 53.578125 C 18.140625 54.289062 15.71875 53.839844 14.148438 52.957031 C 12.574219 52.070312 11.640625 50.304688 11.503906 48.515625 C 11.367188 46.679688 12.1875 44.808594 13.757812 43.847656 C 15.28125 42.910156 17.425781 42.960938 18.769531 44.1875 C 19.652344 44.992188 20.871094 43.589844 19.988281 42.78125 C 18.097656 41.058594 15.285156 40.96875 13.082031 42.105469 C 10.796875 43.28125 9.699219 45.734375 9.652344 48.25 C 9.605469 50.695312 10.957031 53.101562 12.960938 54.402344 C 14.96875 55.707031 18.210938 56.269531 20.464844 55.339844 C 21.5625 54.886719 20.960938 53.121094 19.855469 53.578125 Z M 19.855469 53.578125 "/>
<path style=" stroke:none;fill-rule:nonzero;fill:rgb(0.389099%,0.389099%,0.389099%);fill-opacity:1;" d="M 30.265625 53.515625 C 30.265625 53.660156 30.25 53.808594 30.238281 53.953125 C 28.945312 53.882812 27.664062 53.710938 26.363281 53.796875 C 25.800781 53.855469 25.234375 53.855469 24.667969 53.796875 C 24.085938 53.71875 24.144531 53.523438 24.101562 52.949219 C 23.984375 51.433594 24.199219 49.921875 24.066406 48.398438 C 23.898438 46.5 23.515625 44.625 23.265625 42.734375 C 23.105469 41.546875 21.261719 41.683594 21.417969 42.878906 C 21.710938 45.085938 22.160156 47.269531 22.289062 49.5 C 22.378906 51.089844 21.984375 52.777344 22.476562 54.320312 C 22.917969 55.722656 24.75 55.746094 25.921875 55.699219 C 27.675781 55.625 29.386719 55.824219 31.140625 55.847656 C 31.683594 55.847656 31.980469 55.316406 31.988281 54.847656 C 32 54.375 32.085938 53.867188 32.101562 53.375 C 32.148438 52.167969 30.308594 52.324219 30.265625 53.515625 Z M 30.265625 53.515625 "/>
<path style=" stroke:none;fill-rule:nonzero;fill:rgb(0.389099%,0.389099%,0.389099%);fill-opacity:1;" d="M 43.277344 44.683594 C 41.160156 42.011719 37.09375 40.089844 34.128906 42.617188 C 31.429688 44.917969 30.851562 49.511719 32.714844 52.496094 C 32.640625 52.832031 32.730469 53.117188 32.984375 53.351562 C 34.335938 54.679688 35.9375 55.476562 37.835938 55.519531 C 39.617188 55.558594 41.394531 54.644531 42.8125 53.625 C 44.136719 52.671875 45.375 51.261719 45.449219 49.539062 C 45.523438 47.816406 44.304688 45.980469 43.277344 44.683594 Z M 41.777344 52.082031 C 40.730469 52.875 39.492188 53.488281 38.183594 53.636719 C 36.832031 53.792969 35.644531 53.207031 34.648438 52.359375 C 34.65625 52.148438 34.597656 51.960938 34.46875 51.792969 C 32.851562 49.539062 33.28125 46.109375 35.1875 44.15625 C 37.183594 42.109375 40.308594 44.003906 41.746094 45.734375 C 42.527344 46.675781 43.476562 48.027344 43.609375 49.277344 C 43.738281 50.445312 42.605469 51.453125 41.777344 52.082031 Z M 41.777344 52.082031 "/>
<path style=" stroke:none;fill-rule:nonzero;fill:rgb(0.389099%,0.389099%,0.389099%);fill-opacity:1;" d="M 55.335938 50.808594 C 55.167969 49.542969 54.367188 48.628906 53.207031 48.183594 C 52.078125 47.75 50.855469 47.699219 49.679688 47.503906 C 48.785156 47.359375 47.488281 47.011719 47.460938 45.914062 C 47.433594 44.894531 48.816406 44.226562 49.589844 43.964844 C 50.539062 43.644531 52.015625 43.398438 52.800781 44.183594 C 53.648438 45.03125 54.859375 43.625 54.019531 42.78125 C 52.316406 41.074219 49.019531 41.800781 47.273438 43.066406 C 46.785156 43.410156 46.394531 43.84375 46.105469 44.367188 C 45.8125 44.894531 45.652344 45.457031 45.621094 46.058594 C 45.550781 47.28125 46.53125 48.253906 47.511719 48.773438 C 48.550781 49.320312 49.761719 49.398438 50.898438 49.554688 C 51.953125 49.699219 53.132812 49.808594 53.496094 50.957031 C 53.914062 52.28125 52.113281 53.183594 51.1875 53.601562 C 49.710938 54.265625 47.910156 54.769531 46.320312 54.1875 C 45.210938 53.78125 44.378906 55.449219 45.496094 55.859375 C 48.222656 56.863281 51.542969 55.964844 53.796875 54.214844 C 54.859375 53.394531 55.523438 52.183594 55.335938 50.808594 Z M 55.335938 50.808594 "/>
<path style=" stroke:none;fill-rule:nonzero;fill:rgb(0.389099%,0.389099%,0.389099%);fill-opacity:1;" d="M 58.8125 49.675781 C 60.933594 49.460938 63.0625 49.449219 65.191406 49.449219 C 66.332031 49.449219 66.199219 47.90625 65.296875 47.601562 L 64.964844 47.488281 C 64.703125 47.382812 64.464844 47.414062 64.242188 47.585938 C 62.382812 47.585938 60.523438 47.625 58.671875 47.8125 C 58.566406 47.824219 58.46875 47.847656 58.375 47.886719 C 58.222656 46.285156 58.015625 44.691406 57.910156 43.082031 C 57.953125 43.078125 57.996094 43.074219 58.039062 43.0625 C 59.820312 42.648438 61.703125 42.875 63.515625 42.894531 C 64.703125 42.894531 64.554688 41.039062 63.371094 41.027344 C 61.375 41.011719 59.394531 40.84375 57.429688 41.300781 C 57.222656 41.339844 57.058594 41.445312 56.9375 41.621094 C 56.808594 41.621094 56.691406 41.644531 56.574219 41.695312 C 56.460938 41.746094 56.359375 41.816406 56.273438 41.910156 C 56.1875 42 56.125 42.105469 56.082031 42.226562 C 56.039062 42.34375 56.019531 42.46875 56.027344 42.59375 C 56.136719 44.84375 56.472656 47.074219 56.644531 49.316406 C 56.726562 50.394531 56.722656 51.453125 56.710938 52.527344 C 56.699219 53.386719 56.757812 54.308594 57.273438 55.023438 C 58.101562 56.167969 59.703125 56.0625 60.941406 56.019531 C 62.34375 55.96875 63.910156 56.246094 65.191406 55.507812 C 66.230469 54.914062 65.191406 53.371094 64.15625 53.960938 C 63.765625 54.183594 63.15625 54.132812 62.726562 54.152344 C 62.140625 54.171875 61.554688 54.136719 60.96875 54.152344 C 60.445312 54.183594 59.921875 54.183594 59.398438 54.152344 C 58.777344 54.078125 58.648438 53.835938 58.582031 53.230469 C 58.496094 52.480469 58.570312 51.710938 58.582031 50.960938 C 58.582031 50.53125 58.566406 50.097656 58.535156 49.667969 C 58.628906 49.683594 58.71875 49.683594 58.8125 49.675781 Z M 58.8125 49.675781 "/>
</g>
</svg>
