<?xml version="1.0" encoding="UTF-8"?>
<svg xmlns="http://www.w3.org/2000/svg" xmlns:xlink="http://www.w3.org/1999/xlink" width="375pt" height="374.999991pt" viewBox="0 0 375 374.999991" version="1.2">
<defs>
<clipPath id="clip1">
  <path d="M 11.484375 21 L 257 21 L 257 266 L 11.484375 266 Z M 11.484375 21 "/>
</clipPath>
<clipPath id="clip2">
  <path d="M 252.054688 159 L 362.554688 159 L 362.554688 374.984375 L 252.054688 374.984375 Z M 252.054688 159 "/>
</clipPath>
<clipPath id="clip3">
  <path d="M 271.429688 238.183594 L 359 238.183594 L 359 374.984375 L 271.429688 374.984375 Z M 271.429688 238.183594 "/>
</clipPath>
</defs>
<g id="surface1">
<g clip-path="url(#clip1)" clip-rule="nonzero">
<path style=" stroke:none;fill-rule:nonzero;fill:rgb(9.408569%,16.859436%,28.239441%);fill-opacity:1;" d="M 11.832031 143.476562 C 11.832031 211.085938 66.554688 265.894531 134.054688 265.894531 C 201.554688 265.894531 256.277344 211.085938 256.277344 143.476562 C 256.277344 75.867188 201.554688 21.058594 134.054688 21.058594 C 66.554688 21.058594 11.832031 75.867188 11.832031 143.476562 "/>
</g>
<path style=" stroke:none;fill-rule:nonzero;fill:rgb(9.408569%,16.859436%,27.839661%);fill-opacity:1;" d="M 12.066406 143.0625 C 12.066406 210.671875 66.785156 265.480469 134.289062 265.480469 C 201.789062 265.480469 256.511719 210.671875 256.511719 143.0625 C 256.511719 75.453125 201.789062 20.648438 134.289062 20.648438 C 66.785156 20.648438 12.066406 75.453125 12.066406 143.0625 "/>
<path style=" stroke:none;fill-rule:nonzero;fill:rgb(9.408569%,16.859436%,27.449036%);fill-opacity:1;" d="M 12.296875 142.652344 C 12.296875 210.261719 67.019531 265.066406 134.519531 265.066406 C 202.019531 265.066406 256.742188 210.261719 256.742188 142.652344 C 256.742188 75.042969 202.019531 20.234375 134.519531 20.234375 C 67.019531 20.234375 12.296875 75.042969 12.296875 142.652344 "/>
<path style=" stroke:none;fill-rule:nonzero;fill:rgb(9.408569%,16.468811%,27.059937%);fill-opacity:1;" d="M 12.535156 142.238281 C 12.535156 209.847656 67.253906 264.65625 134.753906 264.65625 C 202.253906 264.65625 256.976562 209.847656 256.976562 142.238281 C 256.976562 74.628906 202.253906 19.820312 134.753906 19.820312 C 67.253906 19.820312 12.535156 74.628906 12.535156 142.238281 "/>
<path style=" stroke:none;fill-rule:nonzero;fill:rgb(9.408569%,16.468811%,27.059937%);fill-opacity:1;" d="M 12.761719 141.824219 C 12.761719 209.433594 67.484375 264.242188 134.984375 264.242188 C 202.488281 264.242188 257.207031 209.433594 257.207031 141.824219 C 257.207031 74.214844 202.488281 19.410156 134.984375 19.410156 C 67.484375 19.410156 12.761719 74.214844 12.761719 141.824219 "/>
<path style=" stroke:none;fill-rule:nonzero;fill:rgb(9.408569%,16.079712%,26.669312%);fill-opacity:1;" d="M 13 141.414062 C 13 209.023438 67.71875 263.828125 135.21875 263.828125 C 202.71875 263.828125 257.441406 209.023438 257.441406 141.414062 C 257.441406 73.804688 202.71875 18.996094 135.21875 18.996094 C 67.71875 18.996094 13 73.804688 13 141.414062 "/>
<path style=" stroke:none;fill-rule:nonzero;fill:rgb(9.408569%,16.079712%,26.269531%);fill-opacity:1;" d="M 13.230469 141 C 13.230469 208.609375 67.949219 263.417969 135.453125 263.417969 C 202.953125 263.417969 257.675781 208.609375 257.675781 141 C 257.675781 73.390625 202.953125 18.582031 135.453125 18.582031 C 67.949219 18.582031 13.230469 73.390625 13.230469 141 "/>
<path style=" stroke:none;fill-rule:nonzero;fill:rgb(9.408569%,16.079712%,25.878906%);fill-opacity:1;" d="M 13.464844 140.585938 C 13.464844 208.195312 68.183594 263.003906 135.683594 263.003906 C 203.1875 263.003906 257.90625 208.195312 257.90625 140.585938 C 257.90625 72.976562 203.1875 18.167969 135.683594 18.167969 C 68.183594 18.167969 13.464844 72.976562 13.464844 140.585938 "/>
<path style=" stroke:none;fill-rule:nonzero;fill:rgb(9.408569%,16.079712%,25.878906%);fill-opacity:1;" d="M 13.699219 140.171875 C 13.699219 207.78125 68.417969 262.589844 135.917969 262.589844 C 203.417969 262.589844 258.140625 207.78125 258.140625 140.171875 C 258.140625 72.566406 203.417969 17.753906 135.917969 17.753906 C 68.417969 17.753906 13.699219 72.566406 13.699219 140.171875 "/>
<path style=" stroke:none;fill-rule:nonzero;fill:rgb(9.408569%,15.689087%,25.489807%);fill-opacity:1;" d="M 13.929688 139.757812 C 13.929688 207.367188 68.648438 262.179688 136.152344 262.179688 C 203.65625 262.179688 258.375 207.367188 258.375 139.757812 C 258.375 72.152344 203.65625 17.339844 136.152344 17.339844 C 68.648438 17.339844 13.929688 72.152344 13.929688 139.757812 "/>
<path style=" stroke:none;fill-rule:nonzero;fill:rgb(9.408569%,15.689087%,25.099182%);fill-opacity:1;" d="M 14.164062 139.347656 C 14.164062 206.953125 68.882812 261.765625 136.382812 261.765625 C 203.882812 261.765625 258.605469 206.953125 258.605469 139.347656 C 258.605469 71.738281 203.882812 16.929688 136.382812 16.929688 C 68.882812 16.929688 14.164062 71.738281 14.164062 139.347656 "/>
<path style=" stroke:none;fill-rule:nonzero;fill:rgb(9.408569%,15.689087%,24.708557%);fill-opacity:1;" d="M 14.398438 138.933594 C 14.398438 206.542969 69.117188 261.351562 136.621094 261.351562 C 204.121094 261.351562 258.839844 206.542969 258.839844 138.933594 C 258.839844 71.324219 204.121094 16.515625 136.621094 16.515625 C 69.117188 16.515625 14.398438 71.324219 14.398438 138.933594 "/>
<path style=" stroke:none;fill-rule:nonzero;fill:rgb(9.408569%,15.289307%,24.708557%);fill-opacity:1;" d="M 14.628906 138.519531 C 14.628906 206.128906 69.351562 260.9375 136.847656 260.9375 C 204.351562 260.9375 259.070312 206.128906 259.070312 138.519531 C 259.070312 70.910156 204.351562 16.105469 136.847656 16.105469 C 69.351562 16.105469 14.628906 70.910156 14.628906 138.519531 "/>
<path style=" stroke:none;fill-rule:nonzero;fill:rgb(9.01947%,15.289307%,24.308777%);fill-opacity:1;" d="M 14.863281 138.109375 C 14.863281 205.71875 69.582031 260.523438 137.085938 260.523438 C 204.585938 260.523438 259.304688 205.71875 259.304688 138.109375 C 259.304688 70.5 204.585938 15.691406 137.085938 15.691406 C 69.582031 15.691406 14.863281 70.5 14.863281 138.109375 "/>
<path style=" stroke:none;fill-rule:nonzero;fill:rgb(9.01947%,15.289307%,23.919678%);fill-opacity:1;" d="M 15.09375 137.695312 C 15.09375 205.304688 69.816406 260.113281 137.316406 260.113281 C 204.820312 260.113281 259.539062 205.304688 259.539062 137.695312 C 259.539062 70.085938 204.820312 15.277344 137.316406 15.277344 C 69.816406 15.277344 15.09375 70.085938 15.09375 137.695312 "/>
<path style=" stroke:none;fill-rule:nonzero;fill:rgb(9.01947%,14.898682%,23.919678%);fill-opacity:1;" d="M 15.328125 137.28125 C 15.328125 204.890625 70.050781 259.699219 137.550781 259.699219 C 205.050781 259.699219 259.769531 204.890625 259.769531 137.28125 C 259.769531 69.671875 205.050781 14.867188 137.550781 14.867188 C 70.050781 14.867188 15.328125 69.671875 15.328125 137.28125 "/>
<path style=" stroke:none;fill-rule:nonzero;fill:rgb(9.01947%,14.898682%,23.529053%);fill-opacity:1;" d="M 15.5625 136.871094 C 15.5625 204.480469 70.28125 259.285156 137.785156 259.285156 C 205.285156 259.285156 260.007812 204.480469 260.007812 136.871094 C 260.007812 69.261719 205.285156 14.453125 137.785156 14.453125 C 70.28125 14.453125 15.5625 69.261719 15.5625 136.871094 "/>
<path style=" stroke:none;fill-rule:nonzero;fill:rgb(9.01947%,14.898682%,23.139954%);fill-opacity:1;" d="M 15.792969 136.457031 C 15.792969 204.066406 70.515625 258.875 138.015625 258.875 C 205.519531 258.875 260.238281 204.066406 260.238281 136.457031 C 260.238281 68.847656 205.519531 14.039062 138.015625 14.039062 C 70.515625 14.039062 15.792969 68.847656 15.792969 136.457031 "/>
<path style=" stroke:none;fill-rule:nonzero;fill:rgb(9.01947%,14.509583%,22.749329%);fill-opacity:1;" d="M 16.027344 136.042969 C 16.027344 203.652344 70.75 258.460938 138.25 258.460938 C 205.75 258.460938 260.472656 203.652344 260.472656 136.042969 C 260.472656 68.433594 205.75 13.625 138.25 13.625 C 70.75 13.625 16.027344 68.433594 16.027344 136.042969 "/>
<path style=" stroke:none;fill-rule:nonzero;fill:rgb(9.01947%,14.509583%,22.349548%);fill-opacity:1;" d="M 16.257812 135.632812 C 16.257812 203.238281 70.980469 258.046875 138.480469 258.046875 C 205.984375 258.046875 260.703125 203.238281 260.703125 135.632812 C 260.703125 68.023438 205.984375 13.210938 138.480469 13.210938 C 70.980469 13.210938 16.257812 68.023438 16.257812 135.632812 "/>
<path style=" stroke:none;fill-rule:nonzero;fill:rgb(9.01947%,14.509583%,22.349548%);fill-opacity:1;" d="M 16.492188 135.21875 C 16.492188 202.824219 71.214844 257.636719 138.714844 257.636719 C 206.214844 257.636719 260.9375 202.824219 260.9375 135.21875 C 260.9375 67.609375 206.214844 12.796875 138.714844 12.796875 C 71.214844 12.796875 16.492188 67.609375 16.492188 135.21875 "/>
<path style=" stroke:none;fill-rule:nonzero;fill:rgb(9.01947%,14.509583%,21.958923%);fill-opacity:1;" d="M 16.726562 134.804688 C 16.726562 202.410156 71.445312 257.222656 138.949219 257.222656 C 206.449219 257.222656 261.171875 202.410156 261.171875 134.804688 C 261.171875 67.195312 206.449219 12.386719 138.949219 12.386719 C 71.445312 12.386719 16.726562 67.195312 16.726562 134.804688 "/>
<path style=" stroke:none;fill-rule:nonzero;fill:rgb(9.01947%,14.118958%,21.569824%);fill-opacity:1;" d="M 16.957031 134.390625 C 16.957031 202 71.679688 256.808594 139.179688 256.808594 C 206.683594 256.808594 261.402344 202 261.402344 134.390625 C 261.402344 66.78125 206.683594 11.972656 139.179688 11.972656 C 71.679688 11.972656 16.957031 66.78125 16.957031 134.390625 "/>
<path style=" stroke:none;fill-rule:nonzero;fill:rgb(9.01947%,14.118958%,21.569824%);fill-opacity:1;" d="M 17.195312 133.976562 C 17.195312 201.585938 71.914062 256.394531 139.414062 256.394531 C 206.914062 256.394531 261.636719 201.585938 261.636719 133.976562 C 261.636719 66.367188 206.914062 11.558594 139.414062 11.558594 C 71.914062 11.558594 17.195312 66.367188 17.195312 133.976562 "/>
<path style=" stroke:none;fill-rule:nonzero;fill:rgb(9.01947%,13.729858%,21.179199%);fill-opacity:1;" d="M 17.425781 133.566406 C 17.425781 201.175781 72.144531 255.980469 139.648438 255.980469 C 207.148438 255.980469 261.871094 201.175781 261.871094 133.566406 C 261.871094 65.957031 207.148438 11.148438 139.648438 11.148438 C 72.144531 11.148438 17.425781 65.957031 17.425781 133.566406 "/>
<path style=" stroke:none;fill-rule:nonzero;fill:rgb(9.01947%,13.729858%,20.779419%);fill-opacity:1;" d="M 17.660156 133.152344 C 17.660156 200.761719 72.378906 255.570312 139.878906 255.570312 C 207.378906 255.570312 262.101562 200.761719 262.101562 133.152344 C 262.101562 65.542969 207.378906 10.734375 139.878906 10.734375 C 72.378906 10.734375 17.660156 65.542969 17.660156 133.152344 "/>
<path style=" stroke:none;fill-rule:nonzero;fill:rgb(9.01947%,13.729858%,20.779419%);fill-opacity:1;" d="M 17.894531 132.738281 C 17.894531 200.347656 72.613281 255.15625 140.113281 255.15625 C 207.613281 255.15625 262.335938 200.347656 262.335938 132.738281 C 262.335938 65.128906 207.613281 10.324219 140.113281 10.324219 C 72.613281 10.324219 17.894531 65.128906 17.894531 132.738281 "/>
<path style=" stroke:none;fill-rule:nonzero;fill:rgb(9.01947%,13.328552%,20.388794%);fill-opacity:1;" d="M 18.125 132.328125 C 18.125 199.9375 72.84375 254.742188 140.34375 254.742188 C 207.847656 254.742188 262.566406 199.9375 262.566406 132.328125 C 262.566406 64.714844 207.847656 9.910156 140.34375 9.910156 C 72.84375 9.910156 18.125 64.714844 18.125 132.328125 "/>
<path style=" stroke:none;fill-rule:nonzero;fill:rgb(9.01947%,13.328552%,19.999695%);fill-opacity:1;" d="M 18.359375 131.914062 C 18.359375 199.523438 73.078125 254.332031 140.578125 254.332031 C 208.078125 254.332031 262.800781 199.523438 262.800781 131.914062 C 262.800781 64.304688 208.078125 9.496094 140.578125 9.496094 C 73.078125 9.496094 18.359375 64.304688 18.359375 131.914062 "/>
<path style=" stroke:none;fill-rule:nonzero;fill:rgb(9.01947%,13.328552%,19.60907%);fill-opacity:1;" d="M 18.589844 131.5 C 18.589844 199.109375 73.308594 253.917969 140.8125 253.917969 C 208.316406 253.917969 263.035156 199.109375 263.035156 131.5 C 263.035156 63.890625 208.316406 9.085938 140.8125 9.085938 C 73.308594 9.085938 18.589844 63.890625 18.589844 131.5 "/>
<path style=" stroke:none;fill-rule:nonzero;fill:rgb(8.628845%,13.328552%,19.60907%);fill-opacity:1;" d="M 18.824219 131.089844 C 18.824219 198.699219 73.546875 253.503906 141.042969 253.503906 C 208.546875 253.503906 263.265625 198.699219 263.265625 131.089844 C 263.265625 63.476562 208.546875 8.671875 141.042969 8.671875 C 73.546875 8.671875 18.824219 63.476562 18.824219 131.089844 "/>
<path style=" stroke:none;fill-rule:nonzero;fill:rgb(8.628845%,12.939453%,19.219971%);fill-opacity:1;" d="M 19.058594 130.675781 C 19.058594 198.285156 73.777344 253.09375 141.28125 253.09375 C 208.78125 253.09375 263.5 198.285156 263.5 130.675781 C 263.5 63.066406 208.78125 8.257812 141.28125 8.257812 C 73.777344 8.257812 19.058594 63.066406 19.058594 130.675781 "/>
<path style=" stroke:none;fill-rule:nonzero;fill:rgb(8.628845%,12.939453%,18.818665%);fill-opacity:1;" d="M 19.289062 130.261719 C 19.289062 197.871094 74.011719 252.679688 141.511719 252.679688 C 209.015625 252.679688 263.734375 197.871094 263.734375 130.261719 C 263.734375 62.652344 209.015625 7.84375 141.511719 7.84375 C 74.011719 7.84375 19.289062 62.652344 19.289062 130.261719 "/>
<path style=" stroke:none;fill-rule:nonzero;fill:rgb(8.628845%,12.939453%,18.818665%);fill-opacity:1;" d="M 19.523438 129.847656 C 19.523438 197.457031 74.246094 252.265625 141.746094 252.265625 C 209.246094 252.265625 263.964844 197.457031 263.964844 129.847656 C 263.964844 62.238281 209.246094 7.429688 141.746094 7.429688 C 74.246094 7.429688 19.523438 62.238281 19.523438 129.847656 "/>
<path style=" stroke:none;fill-rule:nonzero;fill:rgb(8.628845%,12.548828%,18.429565%);fill-opacity:1;" d="M 19.753906 129.433594 C 19.753906 197.042969 74.476562 251.851562 141.976562 251.851562 C 209.480469 251.851562 264.199219 197.042969 264.199219 129.433594 C 264.199219 61.824219 209.480469 7.015625 141.976562 7.015625 C 74.476562 7.015625 19.753906 61.824219 19.753906 129.433594 "/>
<path style=" stroke:none;fill-rule:nonzero;fill:rgb(8.628845%,12.548828%,18.03894%);fill-opacity:1;" d="M 19.988281 129.023438 C 19.988281 196.632812 74.710938 251.4375 142.210938 251.4375 C 209.710938 251.4375 264.429688 196.632812 264.429688 129.023438 C 264.429688 61.410156 209.710938 6.605469 142.210938 6.605469 C 74.710938 6.605469 19.988281 61.410156 19.988281 129.023438 "/>
<path style=" stroke:none;fill-rule:nonzero;fill:rgb(8.628845%,12.548828%,18.03894%);fill-opacity:1;" d="M 20.222656 128.609375 C 20.222656 196.21875 74.941406 251.027344 142.445312 251.027344 C 209.945312 251.027344 264.667969 196.21875 264.667969 128.609375 C 264.667969 61 209.945312 6.191406 142.445312 6.191406 C 74.941406 6.191406 20.222656 61 20.222656 128.609375 "/>
<path style=" stroke:none;fill-rule:nonzero;fill:rgb(8.628845%,12.159729%,17.649841%);fill-opacity:1;" d="M 20.453125 128.195312 C 20.453125 195.804688 75.175781 250.613281 142.675781 250.613281 C 210.179688 250.613281 264.898438 195.804688 264.898438 128.195312 C 264.898438 60.585938 210.179688 5.777344 142.675781 5.777344 C 75.175781 5.777344 20.453125 60.585938 20.453125 128.195312 "/>
<path style=" stroke:none;fill-rule:nonzero;fill:rgb(8.239746%,12.159729%,17.248535%);fill-opacity:1;" d="M 20.6875 127.785156 C 20.6875 195.394531 75.410156 250.199219 142.910156 250.199219 C 210.410156 250.199219 265.132812 195.394531 265.132812 127.785156 C 265.132812 60.175781 210.410156 5.367188 142.910156 5.367188 C 75.410156 5.367188 20.6875 60.175781 20.6875 127.785156 "/>
<path style=" stroke:none;fill-rule:nonzero;fill:rgb(8.239746%,11.759949%,16.859436%);fill-opacity:1;" d="M 20.921875 127.371094 C 20.921875 194.980469 75.640625 249.789062 143.144531 249.789062 C 210.644531 249.789062 265.367188 194.980469 265.367188 127.371094 C 265.367188 59.761719 210.644531 4.953125 143.144531 4.953125 C 75.640625 4.953125 20.921875 59.761719 20.921875 127.371094 "/>
<path style=" stroke:none;fill-rule:nonzero;fill:rgb(8.239746%,11.759949%,16.859436%);fill-opacity:1;" d="M 21.152344 126.957031 C 21.152344 194.566406 75.875 249.375 143.375 249.375 C 210.875 249.375 265.597656 194.566406 265.597656 126.957031 C 265.597656 59.347656 210.875 4.539062 143.375 4.539062 C 75.875 4.539062 21.152344 59.347656 21.152344 126.957031 "/>
<path style=" stroke:none;fill-rule:nonzero;fill:rgb(8.239746%,11.759949%,16.468811%);fill-opacity:1;" d="M 21.386719 126.546875 C 21.386719 194.15625 76.109375 248.960938 143.609375 248.960938 C 211.109375 248.960938 265.832031 194.15625 265.832031 126.546875 C 265.832031 58.9375 211.109375 4.128906 143.609375 4.128906 C 76.109375 4.128906 21.386719 58.9375 21.386719 126.546875 "/>
<path style=" stroke:none;fill-rule:nonzero;fill:rgb(8.239746%,11.759949%,16.468811%);fill-opacity:1;" d="M 21.617188 126.132812 C 21.617188 193.742188 76.339844 248.550781 143.839844 248.550781 C 211.34375 248.550781 266.0625 193.742188 266.0625 126.132812 C 266.0625 58.523438 211.34375 3.714844 143.839844 3.714844 C 76.339844 3.714844 21.617188 58.523438 21.617188 126.132812 "/>
<path style=" stroke:none;fill-rule:nonzero;fill:rgb(8.239746%,11.369324%,16.079712%);fill-opacity:1;" d="M 21.855469 125.71875 C 21.855469 193.328125 76.574219 248.136719 144.074219 248.136719 C 211.574219 248.136719 266.296875 193.328125 266.296875 125.71875 C 266.296875 58.109375 211.574219 3.300781 144.074219 3.300781 C 76.574219 3.300781 21.855469 58.109375 21.855469 125.71875 "/>
<path style=" stroke:none;fill-rule:nonzero;fill:rgb(8.239746%,11.369324%,15.689087%);fill-opacity:1;" d="M 22.085938 125.304688 C 22.085938 192.914062 76.804688 247.722656 144.308594 247.722656 C 211.808594 247.722656 266.53125 192.914062 266.53125 125.304688 C 266.53125 57.699219 211.808594 2.886719 144.308594 2.886719 C 76.804688 2.886719 22.085938 57.699219 22.085938 125.304688 "/>
<path style=" stroke:none;fill-rule:nonzero;fill:rgb(8.239746%,10.978699%,15.289307%);fill-opacity:1;" d="M 22.320312 124.890625 C 22.320312 192.5 77.039062 247.3125 144.539062 247.3125 C 212.042969 247.3125 266.761719 192.5 266.761719 124.890625 C 266.761719 57.285156 212.042969 2.472656 144.539062 2.472656 C 77.039062 2.472656 22.320312 57.285156 22.320312 124.890625 "/>
<path style=" stroke:none;fill-rule:nonzero;fill:rgb(7.839966%,10.978699%,15.289307%);fill-opacity:1;" d="M 22.554688 124.480469 C 22.554688 192.085938 77.273438 246.898438 144.773438 246.898438 C 212.273438 246.898438 266.996094 192.085938 266.996094 124.480469 C 266.996094 56.871094 212.273438 2.0625 144.773438 2.0625 C 77.273438 2.0625 22.554688 56.871094 22.554688 124.480469 "/>
<path style=" stroke:none;fill-rule:nonzero;fill:rgb(7.839966%,10.978699%,14.898682%);fill-opacity:1;" d="M 22.785156 124.066406 C 22.785156 191.675781 77.503906 246.484375 145.007812 246.484375 C 212.507812 246.484375 267.230469 191.675781 267.230469 124.066406 C 267.230469 56.457031 212.507812 1.648438 145.007812 1.648438 C 77.503906 1.648438 22.785156 56.457031 22.785156 124.066406 "/>
<path style=" stroke:none;fill-rule:nonzero;fill:rgb(7.839966%,10.5896%,14.898682%);fill-opacity:1;" d="M 23.019531 123.652344 C 23.019531 191.261719 77.738281 246.070312 145.242188 246.070312 C 212.738281 246.070312 267.460938 191.261719 267.460938 123.652344 C 267.460938 56.042969 212.738281 1.238281 145.242188 1.238281 C 77.738281 1.238281 23.019531 56.042969 23.019531 123.652344 "/>
<path style=" stroke:none;fill-rule:nonzero;fill:rgb(7.839966%,10.5896%,14.509583%);fill-opacity:1;" d="M 23.25 123.242188 C 23.25 190.851562 77.96875 245.65625 145.472656 245.65625 C 212.976562 245.65625 267.695312 190.851562 267.695312 123.242188 C 267.695312 55.628906 212.976562 0.824219 145.472656 0.824219 C 77.96875 0.824219 23.25 55.628906 23.25 123.242188 "/>
<path style=" stroke:none;fill-rule:nonzero;fill:rgb(7.839966%,10.5896%,14.118958%);fill-opacity:1;" d="M 23.484375 122.828125 C 23.484375 190.4375 78.207031 245.246094 145.707031 245.246094 C 213.207031 245.246094 267.925781 190.4375 267.925781 122.828125 C 267.925781 55.21875 213.207031 0.410156 145.707031 0.410156 C 78.207031 0.410156 23.484375 55.21875 23.484375 122.828125 "/>
<path style=" stroke:none;fill-rule:nonzero;fill:rgb(7.839966%,10.198975%,13.729858%);fill-opacity:1;" d="M 23.71875 122.414062 C 23.71875 190.023438 78.4375 244.832031 145.9375 244.832031 C 213.441406 244.832031 268.160156 190.023438 268.160156 122.414062 C 268.160156 54.804688 213.441406 -0.00390625 145.9375 -0.00390625 C 78.4375 -0.00390625 23.71875 54.804688 23.71875 122.414062 "/>
<path style=" stroke:none;fill-rule:nonzero;fill:rgb(89.7995%,54.119873%,29.019165%);fill-opacity:1;" d="M 280.289062 231.324219 L 305.664062 201.4375 L 284.472656 179.046875 L 255.484375 221.296875 L 280.289062 231.324219 "/>
<path style=" stroke:none;fill-rule:nonzero;fill:rgb(100%,100%,100%);fill-opacity:1;" d="M 273.269531 212.722656 L 238.546875 195.820312 L 257.890625 155.949219 L 292.613281 172.851562 C 301.1875 177.023438 304.761719 187.371094 300.59375 195.960938 L 296.335938 204.730469 C 292.171875 213.316406 281.84375 216.894531 273.269531 212.722656 "/>
<path style=" stroke:none;fill-rule:nonzero;fill:rgb(89.408875%,89.408875%,89.019775%);fill-opacity:1;" d="M 280.039062 198.765625 L 245.316406 181.863281 L 238.546875 195.820312 L 273.269531 212.722656 C 278.675781 215.359375 284.789062 214.898438 289.605469 212.046875 C 288.867188 206.492188 285.449219 201.398438 280.039062 198.765625 "/>
<path style=" stroke:none;fill-rule:nonzero;fill:rgb(89.7995%,54.119873%,29.019165%);fill-opacity:1;" d="M 305.664062 239.367188 L 325.039062 218.980469 L 303.722656 199.570312 L 288.761719 217.195312 L 277.34375 236.730469 L 292.25 250.703125 L 305.664062 239.367188 "/>
<path style=" stroke:none;fill-rule:nonzero;fill:rgb(88.238525%,49.409485%,25.878906%);fill-opacity:1;" d="M 294.695312 210.203125 C 294.804688 209.996094 294.921875 209.792969 295.039062 209.59375 C 296.175781 207.679688 297.617188 205.957031 298.722656 204.023438 C 299.011719 203.519531 299.289062 202.988281 299.625 202.507812 C 299.773438 202.660156 299.929688 202.8125 300.089844 202.976562 C 300.148438 203.03125 300.207031 203.09375 300.269531 203.15625 C 300.160156 203.328125 300.050781 203.5 299.941406 203.664062 C 299.574219 204.226562 299.191406 204.792969 298.796875 205.367188 L 294.695312 210.203125 "/>
<path style=" stroke:none;fill-rule:nonzero;fill:rgb(88.238525%,49.409485%,25.878906%);fill-opacity:1;" d="M 293.855469 214.828125 C 293.703125 214.503906 293.542969 214.175781 293.386719 213.847656 C 293.585938 212.582031 294.078125 211.347656 294.695312 210.203125 L 298.796875 205.367188 C 297.699219 206.976562 296.550781 208.644531 295.695312 210.304688 C 294.921875 211.816406 294.492188 213.324219 293.855469 214.828125 "/>
<path style=" stroke:none;fill-rule:nonzero;fill:rgb(89.7995%,54.119873%,29.019165%);fill-opacity:1;" d="M 325.46875 268.394531 L 350.75 242.835938 L 319.664062 214.605469 L 301.191406 238.757812 L 282.71875 258.847656 L 307.96875 282.605469 L 325.46875 268.394531 "/>
<path style=" stroke:none;fill-rule:nonzero;fill:rgb(89.7995%,54.119873%,29.019165%);fill-opacity:1;" d="M 259.8125 214.320312 L 253.15625 225.050781 C 253.15625 225.050781 247.449219 235.558594 256.351562 242.570312 C 265.363281 249.664062 272.976562 240.089844 272.976562 240.089844 L 280.289062 231.324219 L 259.8125 214.320312 "/>
<path style=" stroke:none;fill-rule:nonzero;fill:rgb(89.7995%,54.119873%,29.019165%);fill-opacity:1;" d="M 278.464844 228.128906 L 271.808594 238.859375 C 271.808594 238.859375 266.097656 249.371094 275 256.378906 C 284.011719 263.472656 291.628906 253.898438 291.628906 253.898438 L 298.945312 245.132812 L 278.464844 228.128906 "/>
<path style=" stroke:none;fill-rule:nonzero;fill:rgb(88.238525%,49.409485%,25.878906%);fill-opacity:1;" d="M 279.425781 258.671875 C 278.011719 258.300781 276.527344 257.578125 275 256.378906 C 271.097656 253.304688 270.003906 249.558594 270.003906 246.320312 C 270.007812 243.210938 271.019531 240.570312 271.523438 239.445312 C 271.570312 239.535156 271.617188 239.625 271.664062 239.714844 L 271.664062 239.71875 C 271.753906 239.902344 271.847656 240.085938 271.941406 240.273438 C 271.929688 240.332031 271.914062 240.390625 271.902344 240.453125 C 271.019531 244.882812 273.25 249.761719 276.113281 253.070312 C 276.734375 253.789062 277.535156 254.625 278.441406 255.417969 C 278.792969 256.492188 279.117188 257.578125 279.425781 258.671875 "/>
<path style=" stroke:none;fill-rule:nonzero;fill:rgb(9.799194%,16.468811%,25.489807%);fill-opacity:1;" d="M 258.695312 244.074219 C 258.691406 244.070312 258.6875 244.070312 258.683594 244.070312 C 258.6875 244.070312 258.691406 244.070312 258.695312 244.074219 M 258.683594 244.070312 C 257.917969 243.683594 257.140625 243.191406 256.351562 242.570312 C 252.445312 239.496094 251.351562 235.75 251.355469 232.511719 C 251.351562 235.75 252.445312 239.496094 256.351562 242.570312 C 257.140625 243.191406 257.917969 243.683594 258.683594 244.070312 M 253.15625 225.050781 L 257.410156 218.195312 L 253.15625 225.050781 "/>
<path style=" stroke:none;fill-rule:nonzero;fill:rgb(88.238525%,49.409485%,25.878906%);fill-opacity:1;" d="M 263.222656 245.183594 C 261.804688 245.183594 260.28125 244.867188 258.695312 244.074219 C 258.691406 244.070312 258.6875 244.070312 258.683594 244.070312 C 257.917969 243.683594 257.140625 243.191406 256.351562 242.570312 C 252.445312 239.496094 251.351562 235.75 251.355469 232.511719 C 251.359375 228.363281 253.15625 225.050781 253.15625 225.050781 L 257.410156 218.195312 C 257.414062 218.195312 257.417969 218.199219 257.425781 218.199219 C 257.574219 218.199219 258.191406 217.210938 258.761719 216.222656 C 258.910156 215.96875 259.050781 215.71875 259.183594 215.484375 C 259.609375 216.425781 260.039062 217.339844 260.464844 218.238281 C 259.246094 220.277344 257.671875 222.945312 257.523438 223.085938 C 257.058594 223.527344 256.800781 224.144531 256.570312 224.742188 C 254.84375 229.207031 253.828125 234.675781 256.753906 238.46875 C 257.792969 239.8125 259.238281 240.789062 260.71875 241.617188 C 262.804688 242.777344 265.027344 243.675781 267.324219 244.316406 C 266.097656 244.832031 264.71875 245.183594 263.222656 245.183594 "/>
<path style=" stroke:none;fill-rule:nonzero;fill:rgb(88.238525%,49.409485%,25.878906%);fill-opacity:1;" d="M 304.945312 238.082031 C 304.679688 237.597656 304.417969 237.113281 304.15625 236.628906 C 304.777344 234.734375 305.816406 232.945312 307 231.328125 C 308.972656 228.636719 311.371094 226.273438 313.296875 223.550781 C 313.757812 222.90625 314.207031 222.222656 314.714844 221.601562 C 314.929688 222.054688 315.136719 222.511719 315.34375 222.980469 C 315.285156 223.050781 315.230469 223.121094 315.171875 223.191406 C 312.796875 226.160156 309.9375 229.289062 307.878906 232.484375 C 306.695312 234.332031 305.894531 236.214844 304.945312 238.082031 "/>
<path style=" stroke:none;fill-rule:nonzero;fill:rgb(88.238525%,49.409485%,25.878906%);fill-opacity:1;" d="M 318.003906 255.957031 C 317.65625 255.582031 317.308594 255.199219 316.957031 254.8125 C 317.347656 254.15625 317.773438 253.523438 318.222656 252.914062 C 319.753906 250.824219 321.539062 248.933594 323.164062 246.917969 C 323.285156 247.371094 323.398438 247.820312 323.511719 248.265625 C 321.9375 250.160156 320.363281 252.101562 319.097656 254.070312 C 318.695312 254.695312 318.339844 255.324219 318.003906 255.957031 "/>
<g clip-path="url(#clip2)" clip-rule="nonzero">
<path style=" stroke:none;fill-rule:nonzero;fill:rgb(97.24884%,65.489197%,38.42926%);fill-opacity:1;" d="M 362.554688 374.984375 L 362.554688 240.558594 C 355.917969 226.34375 350.148438 214.167969 347.621094 209.304688 C 339.84375 194.347656 340.464844 198.398438 335.175781 195.28125 C 329.886719 192.167969 314.019531 175.03125 301.890625 163.191406 C 289.757812 151.347656 278.097656 168.464844 278.097656 168.464844 C 278.097656 168.464844 287.714844 173.929688 290.699219 179.554688 C 293.6875 185.179688 293.757812 185.480469 294.640625 188.65625 C 295.519531 191.832031 298.453125 197.652344 297.683594 199.644531 C 296.914062 201.636719 310.429688 209.878906 316.097656 224.824219 C 321.851562 240 326.738281 258.890625 325.328125 261.078125 C 323.921875 263.265625 314.773438 252.671875 310.753906 247.28125 C 306.683594 241.816406 303.597656 235.6875 300.5625 229.578125 C 296.4375 221.261719 272.804688 160.078125 254.652344 182.863281 C 252.011719 186.175781 252.222656 197.066406 253.5625 201.089844 C 260.832031 222.878906 268.679688 231.511719 276.574219 250.347656 C 280.203125 259 281.566406 268.410156 284.085938 277.449219 C 290.277344 299.660156 311.632812 336.261719 328.050781 347.882812 C 331.828125 351.261719 338.503906 357.546875 344.171875 364.535156 C 347.109375 368.15625 349.988281 371.789062 352.492188 374.984375 L 362.554688 374.984375 "/>
</g>
<path style=" stroke:none;fill-rule:nonzero;fill:rgb(89.7995%,50.588989%,26.269531%);fill-opacity:1;" d="M 323.144531 260.683594 C 323.140625 260.683594 323.136719 260.683594 323.136719 260.679688 C 321.753906 259.753906 319.90625 257.992188 318.003906 255.957031 C 319.914062 257.996094 321.757812 259.761719 323.144531 260.683594 M 316.957031 254.8125 C 315.664062 253.378906 314.382812 251.867188 313.230469 250.449219 C 314.382812 251.867188 315.667969 253.378906 316.957031 254.8125 "/>
<path style=" stroke:none;fill-rule:nonzero;fill:rgb(89.7995%,50.588989%,26.269531%);fill-opacity:1;" d="M 300.554688 229.558594 C 300.550781 229.550781 300.546875 229.546875 300.546875 229.539062 C 300.546875 229.546875 300.550781 229.550781 300.554688 229.558594 "/>
<path style=" stroke:none;fill-rule:nonzero;fill:rgb(87.838745%,46.269226%,23.529053%);fill-opacity:1;" d="M 318.003906 255.957031 C 317.65625 255.582031 317.308594 255.199219 316.957031 254.8125 C 317.308594 255.199219 317.65625 255.582031 318.003906 255.957031 "/>
<path style=" stroke:none;fill-rule:nonzero;fill:rgb(96.859741%,60.778809%,33.729553%);fill-opacity:1;" d="M 323.136719 260.679688 C 316.289062 259.035156 311.304688 252.847656 307.464844 246.804688 C 295.21875 227.546875 287.621094 205.527344 274.496094 186.863281 C 273.617188 185.609375 272.691406 184.351562 271.464844 183.433594 C 271.101562 183.164062 270.707031 182.910156 270.296875 182.667969 C 269.25 180.640625 267.605469 179.070312 265.6875 178.097656 C 281.191406 181.871094 297.089844 222.5 300.515625 229.480469 C 300.519531 229.484375 300.519531 229.488281 300.523438 229.492188 C 300.53125 229.511719 300.535156 229.523438 300.546875 229.539062 C 300.546875 229.546875 300.550781 229.550781 300.554688 229.558594 C 300.558594 229.5625 300.558594 229.570312 300.5625 229.578125 C 303.597656 235.6875 306.683594 241.816406 310.753906 247.28125 C 311.449219 248.214844 312.296875 249.300781 313.230469 250.449219 C 314.382812 251.867188 315.664062 253.378906 316.957031 254.8125 C 317.308594 255.199219 317.65625 255.582031 318.003906 255.957031 C 319.90625 257.992188 321.753906 259.753906 323.136719 260.679688 "/>
<path style=" stroke:none;fill-rule:nonzero;fill:rgb(96.469116%,88.62915%,89.7995%);fill-opacity:1;" d="M 270.65625 183.441406 L 280.382812 203.390625 C 281.824219 206.828125 280.847656 210.789062 278.003906 213.191406 C 276.914062 214.113281 275.605469 215.066406 274.054688 215.96875 L 273.875 216.074219 C 269.605469 218.503906 264.15625 216.554688 262.152344 212.058594 L 251.53125 191.75 C 249.515625 187.242188 250.847656 181.835938 254.902344 179.023438 C 255.300781 178.746094 255.730469 178.480469 256.191406 178.230469 L 256.375 178.128906 C 261.707031 175.304688 268.320312 177.871094 270.65625 183.441406 "/>
<path style=" stroke:none;fill-rule:nonzero;fill:rgb(98.81897%,96.859741%,97.24884%);fill-opacity:1;" d="M 254.921875 179.011719 C 255.3125 178.738281 255.738281 178.476562 256.191406 178.230469 L 256.375 178.128906 L 256.191406 178.230469 C 255.738281 178.476562 255.3125 178.738281 254.921875 179.011719 "/>
<path style=" stroke:none;fill-rule:nonzero;fill:rgb(95.689392%,86.268616%,88.238525%);fill-opacity:1;" d="M 269.898438 217.128906 C 269.894531 217.128906 269.894531 217.128906 269.890625 217.128906 C 266.703125 217.125 263.605469 215.246094 262.179688 212.125 C 262.179688 212.117188 262.171875 212.109375 262.167969 212.101562 C 262.167969 212.097656 262.167969 212.097656 262.167969 212.09375 C 262.160156 212.082031 262.15625 212.070312 262.152344 212.058594 L 252.605469 193.8125 L 251.53125 191.75 C 250.902344 190.351562 250.601562 188.863281 250.601562 187.394531 C 250.605469 184.132812 252.105469 180.964844 254.902344 179.023438 C 254.90625 179.019531 254.910156 179.015625 254.921875 179.011719 C 255.3125 178.738281 255.738281 178.476562 256.191406 178.230469 L 256.375 178.128906 L 256.398438 178.117188 C 255.191406 180.910156 255.15625 184.1875 256.464844 187.117188 L 267.695312 208.585938 C 269.1875 211.929688 272.484375 213.933594 275.878906 213.933594 C 276.324219 213.933594 276.769531 213.898438 277.214844 213.828125 C 276.3125 214.535156 275.285156 215.253906 274.109375 215.9375 C 274.101562 215.945312 274.09375 215.949219 274.085938 215.957031 C 274.074219 215.960938 274.0625 215.964844 274.054688 215.96875 L 273.875 216.074219 C 273.863281 216.082031 273.855469 216.085938 273.839844 216.09375 C 272.585938 216.796875 271.238281 217.128906 269.902344 217.128906 C 269.902344 217.128906 269.898438 217.128906 269.898438 217.128906 "/>
<path style=" stroke:none;fill-rule:nonzero;fill:rgb(89.7995%,50.588989%,26.269531%);fill-opacity:1;" d="M 300.488281 203.375 C 300.414062 203.300781 300.339844 203.226562 300.269531 203.15625 L 300.269531 203.152344 C 300.339844 203.226562 300.414062 203.300781 300.488281 203.375 "/>
<path style=" stroke:none;fill-rule:nonzero;fill:rgb(89.7995%,50.588989%,26.269531%);fill-opacity:1;" d="M 302.84375 205.703125 C 301.976562 204.835938 301.183594 204.0625 300.488281 203.375 C 301.1875 204.066406 301.980469 204.839844 302.84375 205.703125 "/>
<path style=" stroke:none;fill-rule:nonzero;fill:rgb(87.838745%,46.269226%,23.529053%);fill-opacity:1;" d="M 300.269531 203.15625 C 300.207031 203.09375 300.148438 203.03125 300.089844 202.976562 C 300.148438 203.03125 300.207031 203.09375 300.269531 203.152344 L 300.269531 203.15625 "/>
<path style=" stroke:none;fill-rule:nonzero;fill:rgb(96.859741%,60.778809%,33.729553%);fill-opacity:1;" d="M 325.457031 261.203125 C 326.863281 259.015625 321.976562 240.125 316.222656 224.949219 C 312.957031 216.335938 307.082031 209.953125 302.84375 205.703125 C 301.980469 204.839844 301.1875 204.066406 300.488281 203.375 C 300.414062 203.300781 300.339844 203.226562 300.269531 203.152344 C 300.207031 203.09375 300.148438 203.03125 300.089844 202.976562 C 298.519531 201.398438 297.59375 200.332031 297.808594 199.769531 C 298.578125 197.777344 295.644531 191.957031 294.765625 188.78125 C 293.882812 185.601562 293.8125 185.304688 290.824219 179.679688 C 290.308594 178.703125 289.589844 177.738281 288.761719 176.800781 C 288.761719 176.800781 288.789062 176.792969 288.851562 176.792969 C 289.277344 176.792969 291.132812 177.121094 293.796875 182.34375 C 296.84375 188.316406 299.265625 197.644531 301.316406 200.816406 C 303.367188 203.988281 309.886719 208.308594 313.800781 214.734375 C 317.710938 221.15625 325.535156 250.3125 325.910156 253.273438 C 326.28125 256.238281 326.300781 260.941406 325.457031 261.203125 "/>
<path style=" stroke:none;fill-rule:nonzero;fill:rgb(96.859741%,60.778809%,33.729553%);fill-opacity:1;" d="M 268.984375 218.707031 C 266.257812 218.703125 263.726562 216.820312 260.558594 211.863281 L 252.722656 196.183594 C 252.664062 195.421875 252.625 194.621094 252.605469 193.8125 L 262.152344 212.058594 C 262.15625 212.070312 262.160156 212.082031 262.167969 212.09375 C 262.167969 212.097656 262.167969 212.097656 262.167969 212.101562 C 262.171875 212.109375 262.179688 212.117188 262.179688 212.125 C 263.605469 215.246094 266.703125 217.125 269.890625 217.128906 C 269.894531 217.128906 269.894531 217.128906 269.898438 217.128906 C 269.898438 217.128906 269.902344 217.128906 269.902344 217.128906 C 271.238281 217.128906 272.585938 216.796875 273.839844 216.09375 C 273.855469 216.085938 273.863281 216.082031 273.875 216.074219 L 274.054688 215.96875 C 274.0625 215.964844 274.074219 215.960938 274.085938 215.957031 C 274.09375 215.949219 274.101562 215.945312 274.109375 215.9375 C 275.636719 215.046875 276.929688 214.101562 278.003906 213.191406 C 278.007812 213.1875 278.015625 213.183594 278.019531 213.179688 C 278.019531 213.179688 278.019531 213.175781 278.023438 213.175781 C 278.027344 213.171875 278.03125 213.167969 278.035156 213.164062 C 278.035156 213.164062 278.039062 213.164062 278.039062 213.164062 C 278.050781 213.152344 278.058594 213.144531 278.070312 213.136719 C 278.117188 213.09375 278.167969 213.046875 278.214844 213.007812 C 278.214844 213.003906 278.21875 213.003906 278.21875 213.003906 C 278.226562 212.996094 278.238281 212.988281 278.246094 212.976562 C 278.25 212.976562 278.25 212.976562 278.25 212.976562 C 278.253906 212.972656 278.257812 212.96875 278.261719 212.964844 C 278.265625 212.964844 278.265625 212.960938 278.265625 212.960938 C 278.269531 212.957031 278.273438 212.953125 278.277344 212.949219 C 278.277344 212.949219 278.28125 212.945312 278.28125 212.945312 C 278.289062 212.941406 278.289062 212.9375 278.292969 212.933594 C 278.296875 212.933594 278.300781 212.933594 278.300781 212.929688 C 278.300781 212.925781 278.304688 212.921875 278.308594 212.921875 C 278.3125 212.921875 278.3125 212.917969 278.3125 212.914062 C 278.316406 212.914062 278.316406 212.914062 278.320312 212.910156 C 278.324219 212.90625 278.332031 212.898438 278.335938 212.894531 C 278.335938 212.894531 278.339844 212.894531 278.339844 212.890625 C 278.34375 212.886719 278.347656 212.886719 278.351562 212.882812 C 280.226562 211.117188 281.179688 208.644531 281.027344 206.15625 L 281.042969 206.1875 C 281.042969 206.1875 282.933594 212.261719 275.109375 216.449219 C 275.03125 216.488281 274.953125 216.523438 274.875 216.570312 C 272.667969 217.878906 270.785156 218.707031 268.984375 218.707031 "/>
<path style=" stroke:none;fill-rule:nonzero;fill:rgb(96.078491%,81.568909%,76.469421%);fill-opacity:1;" d="M 278.019531 213.179688 C 278.019531 213.179688 278.019531 213.175781 278.023438 213.175781 C 278.019531 213.175781 278.019531 213.179688 278.019531 213.179688 M 278.035156 213.164062 C 278.035156 213.164062 278.039062 213.164062 278.039062 213.164062 C 278.039062 213.164062 278.035156 213.164062 278.035156 213.164062 M 278.214844 213.007812 C 278.214844 213.003906 278.21875 213.003906 278.21875 213.003906 C 278.21875 213.003906 278.214844 213.003906 278.214844 213.007812 M 278.246094 212.976562 C 278.25 212.976562 278.25 212.976562 278.25 212.976562 C 278.25 212.976562 278.25 212.976562 278.246094 212.976562 M 278.261719 212.964844 C 278.265625 212.964844 278.265625 212.960938 278.265625 212.960938 C 278.265625 212.960938 278.265625 212.964844 278.261719 212.964844 M 278.277344 212.949219 C 278.277344 212.949219 278.28125 212.945312 278.28125 212.945312 C 278.28125 212.945312 278.277344 212.949219 278.277344 212.949219 M 278.292969 212.933594 C 278.296875 212.933594 278.300781 212.933594 278.300781 212.929688 C 278.300781 212.933594 278.296875 212.933594 278.292969 212.933594 M 278.308594 212.921875 C 278.3125 212.921875 278.3125 212.917969 278.3125 212.914062 C 278.3125 212.917969 278.3125 212.921875 278.308594 212.921875 M 278.320312 212.910156 C 278.324219 212.90625 278.332031 212.898438 278.335938 212.894531 C 278.332031 212.898438 278.324219 212.90625 278.320312 212.910156 M 278.339844 212.890625 C 278.34375 212.886719 278.347656 212.886719 278.351562 212.882812 C 278.347656 212.886719 278.34375 212.886719 278.339844 212.890625 M 278.351562 212.882812 C 280.226562 211.117188 281.179688 208.636719 281.023438 206.148438 L 281.027344 206.15625 C 281.179688 208.644531 280.226562 211.117188 278.351562 212.882812 "/>
<path style=" stroke:none;fill-rule:nonzero;fill:rgb(96.078491%,59.21936%,33.729553%);fill-opacity:1;" d="M 269.898438 217.128906 C 269.894531 217.128906 269.894531 217.128906 269.890625 217.128906 C 269.894531 217.128906 269.894531 217.128906 269.898438 217.128906 M 269.902344 217.128906 C 271.238281 217.128906 272.585938 216.796875 273.839844 216.09375 C 272.585938 216.796875 271.238281 217.128906 269.902344 217.128906 M 274.054688 215.96875 C 274.0625 215.964844 274.074219 215.960938 274.085938 215.957031 C 274.074219 215.960938 274.0625 215.964844 274.054688 215.96875 M 262.179688 212.125 C 262.179688 212.117188 262.171875 212.109375 262.167969 212.101562 C 262.171875 212.109375 262.179688 212.117188 262.179688 212.125 "/>
<path style=" stroke:none;fill-rule:nonzero;fill:rgb(95.289612%,79.60968%,74.899292%);fill-opacity:1;" d="M 262.152344 212.058594 L 252.605469 193.8125 L 262.152344 212.058594 "/>
<path style=" stroke:none;fill-rule:nonzero;fill:rgb(99.609375%,91.758728%,84.309387%);fill-opacity:1;" d="M 280.632812 170.042969 C 279.132812 169.054688 278.097656 168.464844 278.097656 168.464844 C 278.097656 168.464844 279.132812 169.050781 280.632812 170.042969 "/>
<path style=" stroke:none;fill-rule:nonzero;fill:rgb(96.859741%,60.778809%,33.729553%);fill-opacity:1;" d="M 351.445312 217.195312 C 348.484375 212.5 346.644531 206.816406 342.558594 203.027344 C 340.378906 201.003906 337.679688 199.648438 335.132812 198.109375 C 322.335938 190.375 313.21875 177.890625 301.847656 168.175781 C 298.890625 165.644531 295.398438 163.179688 291.566406 163.179688 C 291.328125 163.179688 291.089844 163.191406 290.847656 163.210938 C 286.652344 163.546875 283.410156 166.796875 280.632812 170.042969 C 279.132812 169.050781 278.097656 168.464844 278.097656 168.464844 C 278.097656 168.464844 284.535156 159.015625 292.816406 159.015625 C 295.683594 159.015625 298.773438 160.144531 301.890625 163.191406 C 314.019531 175.03125 329.886719 192.167969 335.175781 195.28125 C 340.464844 198.398438 339.84375 194.347656 347.621094 209.304688 C 348.558594 211.113281 349.871094 213.828125 351.445312 217.195312 "/>
<path style=" stroke:none;fill-rule:nonzero;fill:rgb(89.7995%,50.588989%,26.269531%);fill-opacity:1;" d="M 275.835938 248.613281 C 275.835938 248.609375 275.832031 248.609375 275.832031 248.605469 C 275.832031 248.609375 275.835938 248.609375 275.835938 248.613281 M 275.820312 248.574219 C 274.523438 245.585938 273.230469 242.855469 271.941406 240.273438 C 271.941406 240.273438 271.941406 240.269531 271.941406 240.269531 C 273.230469 242.851562 274.527344 245.585938 275.820312 248.574219 "/>
<path style=" stroke:none;fill-rule:nonzero;fill:rgb(87.838745%,46.269226%,23.529053%);fill-opacity:1;" d="M 271.941406 240.273438 C 271.847656 240.085938 271.753906 239.902344 271.664062 239.71875 L 271.664062 239.714844 C 271.753906 239.898438 271.847656 240.082031 271.941406 240.269531 C 271.941406 240.269531 271.941406 240.273438 271.941406 240.273438 "/>
<g clip-path="url(#clip3)" clip-rule="nonzero">
<path style=" stroke:none;fill-rule:nonzero;fill:rgb(96.859741%,60.778809%,33.729553%);fill-opacity:1;" d="M 358.882812 374.984375 L 352.492188 374.984375 C 349.988281 371.789062 347.109375 368.15625 344.171875 364.535156 C 338.503906 357.546875 331.828125 351.261719 328.050781 347.882812 C 311.632812 336.261719 290.277344 299.660156 284.085938 277.449219 C 281.566406 268.410156 280.203125 259 276.574219 250.347656 C 276.332031 249.761719 276.085938 249.183594 275.835938 248.613281 C 275.835938 248.609375 275.832031 248.609375 275.832031 248.605469 C 275.832031 248.597656 275.824219 248.585938 275.820312 248.574219 C 274.527344 245.585938 273.230469 242.851562 271.941406 240.269531 C 271.847656 240.082031 271.753906 239.898438 271.664062 239.714844 L 271.808594 238.859375 C 271.808594 238.859375 279.765625 248.207031 282.71875 258.847656 C 285.671875 269.492188 286.417969 277.292969 290.699219 286.453125 C 294.984375 295.613281 305.492188 315.753906 314.773438 325.835938 C 324.050781 335.921875 327.03125 338.160156 336.71875 347.492188 C 342.984375 353.523438 352.753906 366.535156 358.882812 374.984375 "/>
</g>
<path style=" stroke:none;fill-rule:nonzero;fill:rgb(100%,100%,100%);fill-opacity:1;" d="M 23.71875 122.414062 C 23.71875 190.023438 78.4375 244.832031 145.9375 244.832031 C 213.441406 244.832031 268.160156 190.023438 268.160156 122.414062 C 268.160156 54.804688 213.441406 -0.00390625 145.9375 -0.00390625 C 78.4375 -0.00390625 23.71875 54.804688 23.71875 122.414062 "/>
<path style=" stroke:none;fill-rule:nonzero;fill:rgb(92.939758%,92.549133%,92.549133%);fill-opacity:1;" d="M 27.265625 123.34375 C 27.265625 188.703125 80.164062 241.683594 145.414062 241.683594 C 210.664062 241.683594 263.5625 188.703125 263.5625 123.34375 C 263.5625 57.988281 210.664062 5.007812 145.414062 5.007812 C 80.164062 5.007812 27.265625 57.988281 27.265625 123.34375 "/>
<path style=" stroke:none;fill-rule:nonzero;fill:rgb(100%,100%,100%);fill-opacity:1;" d="M 40.9375 123.34375 C 40.9375 181.140625 87.714844 227.988281 145.414062 227.988281 C 203.113281 227.988281 249.890625 181.140625 249.890625 123.34375 C 249.890625 65.550781 203.113281 18.703125 145.414062 18.703125 C 87.714844 18.703125 40.9375 65.550781 40.9375 123.34375 "/>
<path style=" stroke:none;fill-rule:nonzero;fill:rgb(89.408875%,89.408875%,89.019775%);fill-opacity:1;" d="M 48.917969 123.34375 C 48.917969 176.726562 92.121094 219.996094 145.414062 219.996094 C 198.707031 219.996094 241.910156 176.726562 241.910156 123.34375 C 241.910156 69.964844 198.707031 26.695312 145.414062 26.695312 C 92.121094 26.695312 48.917969 69.964844 48.917969 123.34375 "/>
<path style=" stroke:none;fill-rule:nonzero;fill:rgb(15.289307%,10.198975%,8.239746%);fill-opacity:1;" d="M 63.550781 123.34375 C 63.550781 168.628906 100.203125 205.335938 145.414062 205.335938 C 190.625 205.335938 227.277344 168.628906 227.277344 123.34375 C 227.277344 78.0625 190.625 41.351562 145.414062 41.351562 C 100.203125 41.351562 63.550781 78.0625 63.550781 123.34375 "/>
<path style=" stroke:none;fill-rule:nonzero;fill:rgb(25.878906%,15.689087%,10.5896%);fill-opacity:1;" d="M 65.109375 126.601562 C 65.933594 125.75 67.289062 125.726562 68.140625 126.546875 C 68.257812 126.660156 68.351562 126.78125 68.4375 126.910156 C 68.5 127.007812 68.554688 127.105469 68.601562 127.207031 L 68.664062 127.378906 L 68.71875 127.550781 L 68.757812 127.742188 L 68.777344 127.902344 C 68.785156 127.972656 68.789062 128.042969 68.789062 128.113281 L 68.789062 128.125 C 68.785156 128.308594 68.753906 128.492188 68.703125 128.671875 L 68.679688 128.753906 C 68.65625 128.835938 68.621094 128.917969 68.585938 128.996094 L 68.542969 129.074219 C 68.453125 129.253906 68.339844 129.429688 68.191406 129.582031 C 67.371094 130.433594 66.015625 130.457031 65.160156 129.632812 C 64.3125 128.8125 64.289062 127.453125 65.109375 126.601562 Z M 65.617188 131.605469 C 66.214844 130.988281 67.191406 130.972656 67.800781 131.566406 C 68.203125 131.953125 68.34375 132.492188 68.234375 133 L 68.230469 133.027344 C 68.203125 133.136719 68.164062 133.246094 68.113281 133.355469 L 68.070312 133.433594 C 68.007812 133.546875 67.9375 133.65625 67.839844 133.753906 L 67.734375 133.851562 L 67.660156 133.90625 L 67.550781 133.984375 L 67.417969 134.054688 L 67.289062 134.117188 L 67.253906 134.132812 L 67.253906 134.128906 C 66.714844 134.320312 66.09375 134.214844 65.65625 133.792969 C 65.042969 133.195312 65.023438 132.214844 65.617188 131.605469 Z M 66.59375 137.378906 C 66.820312 136.96875 67.207031 136.710938 67.628906 136.621094 C 67.71875 136.597656 67.804688 136.589844 67.894531 136.585938 L 67.90625 136.585938 C 67.988281 136.585938 68.074219 136.585938 68.15625 136.597656 L 68.238281 136.613281 L 68.421875 136.65625 C 68.515625 136.683594 68.605469 136.722656 68.691406 136.769531 C 68.808594 136.835938 68.910156 136.917969 69.007812 137.003906 L 69.074219 137.074219 C 69.148438 137.15625 69.21875 137.246094 69.273438 137.34375 L 69.296875 137.378906 C 69.363281 137.496094 69.410156 137.621094 69.445312 137.75 L 69.445312 137.757812 C 69.476562 137.886719 69.488281 138.019531 69.484375 138.152344 L 69.488281 138.167969 C 69.480469 138.40625 69.425781 138.644531 69.300781 138.871094 C 68.890625 139.621094 67.953125 139.894531 67.207031 139.484375 C 66.457031 139.070312 66.183594 138.128906 66.59375 137.378906 Z M 67.351562 141.496094 C 67.917969 140.460938 69.222656 140.078125 70.257812 140.648438 C 70.367188 140.707031 70.460938 140.78125 70.554688 140.851562 L 70.578125 140.871094 L 70.695312 140.976562 L 70.847656 141.136719 L 70.953125 141.265625 L 71.070312 141.449219 L 71.148438 141.582031 C 71.195312 141.683594 71.238281 141.785156 71.269531 141.894531 L 71.308594 142.058594 L 71.34375 142.25 L 71.363281 142.4375 L 71.359375 142.613281 L 71.347656 142.804688 C 71.339844 142.875 71.320312 142.941406 71.308594 143.011719 C 71.261719 143.195312 71.203125 143.382812 71.105469 143.5625 C 70.535156 144.601562 69.234375 144.980469 68.195312 144.410156 C 67.160156 143.839844 66.78125 142.535156 67.351562 141.496094 Z M 68.65625 146.757812 C 69.367188 145.460938 70.972656 144.984375 72.273438 145.667969 L 72.324219 145.6875 C 72.480469 145.773438 72.621094 145.871094 72.75 145.980469 L 72.871094 146.097656 C 72.953125 146.175781 73.035156 146.253906 73.105469 146.339844 L 73.21875 146.496094 C 73.277344 146.578125 73.332031 146.664062 73.382812 146.75 L 73.46875 146.933594 C 73.511719 147.019531 73.546875 147.109375 73.582031 147.207031 L 73.636719 147.394531 C 73.660156 147.496094 73.675781 147.589844 73.691406 147.691406 L 73.714844 147.882812 C 73.71875 147.988281 73.71875 148.09375 73.710938 148.199219 L 73.703125 148.382812 C 73.6875 148.5 73.664062 148.625 73.628906 148.746094 L 73.601562 148.875 L 73.59375 148.890625 C 73.546875 149.050781 73.476562 149.210938 73.390625 149.363281 L 73.375 149.390625 C 72.644531 150.679688 71.023438 151.148438 69.722656 150.433594 C 68.414062 149.714844 67.9375 148.066406 68.65625 146.757812 Z M 71.164062 153.121094 C 71.847656 151.867188 73.328125 151.347656 74.625 151.816406 C 74.765625 151.863281 74.902344 151.917969 75.035156 151.992188 C 75.199219 152.082031 75.347656 152.1875 75.484375 152.300781 L 75.609375 152.421875 C 75.695312 152.503906 75.785156 152.589844 75.859375 152.679688 L 75.976562 152.84375 C 76.039062 152.929688 76.097656 153.019531 76.152344 153.113281 L 76.246094 153.304688 C 76.289062 153.394531 76.324219 153.492188 76.359375 153.589844 C 76.382812 153.660156 76.402344 153.726562 76.417969 153.792969 C 76.445312 153.894531 76.460938 153.996094 76.476562 154.101562 C 76.484375 154.167969 76.496094 154.238281 76.5 154.308594 C 76.507812 154.417969 76.507812 154.527344 76.5 154.636719 L 76.488281 154.832031 C 76.472656 154.960938 76.445312 155.089844 76.410156 155.21875 L 76.382812 155.351562 L 76.375 155.371094 C 76.324219 155.539062 76.25 155.707031 76.164062 155.867188 C 75.402344 157.25 73.671875 157.753906 72.292969 156.996094 C 70.910156 156.234375 70.40625 154.5 71.164062 153.121094 Z M 73.960938 160.328125 C 74.28125 158.914062 75.648438 158.019531 77.058594 158.261719 L 77.191406 158.277344 C 77.4375 158.332031 77.664062 158.433594 77.878906 158.546875 C 78.132812 158.683594 78.371094 158.851562 78.566406 159.058594 C 78.804688 159.3125 78.988281 159.605469 79.117188 159.929688 C 79.308594 160.417969 79.359375 160.960938 79.238281 161.511719 L 79.222656 161.5625 L 79.21875 161.5625 C 78.871094 162.988281 77.449219 163.882812 76.011719 163.558594 C 74.554688 163.234375 73.636719 161.789062 73.960938 160.328125 Z M 77.46875 165.457031 C 77.722656 164.296875 78.871094 163.570312 80.023438 163.828125 C 80.179688 163.863281 80.324219 163.917969 80.464844 163.984375 C 80.570312 164.03125 80.667969 164.089844 80.757812 164.152344 L 80.898438 164.261719 L 81.039062 164.386719 L 81.167969 164.523438 L 81.273438 164.652344 L 81.386719 164.820312 L 81.390625 164.824219 C 81.484375 164.980469 81.550781 165.148438 81.605469 165.320312 L 81.632812 165.429688 C 81.652344 165.511719 81.664062 165.589844 81.675781 165.671875 L 81.683594 165.777344 C 81.695312 165.980469 81.695312 166.183594 81.648438 166.390625 C 81.386719 167.550781 80.242188 168.277344 79.089844 168.019531 C 77.9375 167.757812 77.207031 166.613281 77.46875 165.457031 Z M 80.503906 169.457031 C 80.691406 168.625 81.511719 168.101562 82.347656 168.285156 C 82.597656 168.34375 82.816406 168.460938 82.996094 168.617188 C 83.148438 168.746094 83.273438 168.894531 83.367188 169.066406 L 83.398438 169.136719 L 83.460938 169.28125 C 83.488281 169.351562 83.507812 169.425781 83.523438 169.496094 L 83.535156 169.585938 L 83.550781 169.773438 L 83.550781 169.859375 C 83.546875 169.953125 83.539062 170.042969 83.519531 170.132812 L 83.519531 170.136719 L 83.476562 170.273438 L 83.449219 170.34375 L 83.371094 170.515625 L 83.308594 170.621094 L 83.179688 170.792969 L 83.128906 170.855469 C 83.066406 170.921875 82.996094 170.984375 82.921875 171.035156 L 82.90625 171.050781 C 82.5625 171.296875 82.117188 171.40625 81.671875 171.308594 C 80.839844 171.121094 80.316406 170.292969 80.503906 169.457031 Z M 83.878906 166.519531 C 84.140625 164.609375 83.113281 162.769531 81.410156 161.96875 C 81.933594 159.570312 80.609375 157.195312 78.390625 156.328125 C 78.425781 156.238281 78.460938 156.148438 78.492188 156.054688 C 79.238281 153.742188 78.234375 151.210938 76.105469 150.039062 C 75.949219 149.953125 75.789062 149.878906 75.625 149.808594 C 75.652344 149.730469 75.683594 149.65625 75.710938 149.578125 C 76.433594 147.335938 75.46875 144.894531 73.417969 143.75 C 73.953125 141.90625 73.21875 139.925781 71.628906 138.878906 C 71.949219 137.296875 71.234375 135.660156 69.808594 134.847656 C 70.640625 133.664062 70.714844 132.101562 70.03125 130.859375 C 71.25 129.363281 71.332031 127.261719 70.292969 125.6875 C 71.984375 123.914062 72.09375 121.191406 70.648438 119.292969 C 70.726562 119.234375 70.804688 119.179688 70.878906 119.113281 C 72.722656 117.53125 73.183594 114.84375 71.972656 112.734375 C 71.882812 112.578125 71.789062 112.429688 71.683594 112.285156 L 71.878906 112.132812 C 73.660156 110.601562 74.109375 108.011719 72.953125 105.964844 C 74.371094 104.667969 74.769531 102.597656 73.960938 100.871094 C 75.070312 99.675781 75.308594 97.878906 74.484375 96.433594 C 74.300781 96.125 74.085938 95.847656 73.835938 95.605469 C 74.652344 95.421875 75.378906 94.882812 75.753906 94.066406 C 75.828125 93.90625 75.886719 93.738281 75.925781 93.570312 C 76.105469 92.84375 75.972656 92.109375 75.613281 91.503906 C 77.011719 91.46875 78.335938 90.664062 78.957031 89.304688 C 79.054688 89.089844 79.136719 88.863281 79.191406 88.632812 C 79.460938 87.535156 79.21875 86.414062 78.597656 85.542969 C 80.007812 85.523438 81.351562 84.710938 81.972656 83.347656 C 82.070312 83.132812 82.152344 82.902344 82.210938 82.671875 C 82.425781 81.796875 82.3125 80.90625 81.945312 80.140625 C 82.09375 80.15625 82.253906 80.167969 82.410156 80.167969 C 82.527344 80.167969 82.644531 80.164062 82.761719 80.152344 C 84.445312 79.996094 85.769531 78.746094 86.101562 77.164062 C 87.996094 76.832031 89.425781 75.285156 89.664062 73.414062 C 92.101562 73.175781 93.953125 71.179688 94.089844 68.796875 C 94.1875 68.804688 94.285156 68.8125 94.382812 68.8125 C 96.8125 68.8125 98.902344 67.078125 99.359375 64.6875 C 99.394531 64.507812 99.417969 64.332031 99.433594 64.15625 C 99.515625 64.160156 99.597656 64.167969 99.679688 64.167969 C 102.03125 64.167969 104.054688 62.496094 104.511719 60.1875 C 106.425781 60.132812 108.078125 58.820312 108.582031 56.984375 C 110.203125 56.800781 111.554688 55.59375 111.867188 53.957031 C 112 53.253906 111.933594 52.546875 111.683594 51.890625 C 121.910156 47.039062 133.34375 44.320312 145.414062 44.320312 C 188.988281 44.320312 224.3125 79.703125 224.3125 123.34375 C 224.3125 166.988281 188.988281 202.371094 145.414062 202.371094 C 142.046875 202.371094 138.730469 202.148438 135.472656 201.742188 C 135.402344 200.527344 134.550781 199.457031 133.304688 199.1875 C 133.136719 199.152344 132.960938 199.128906 132.789062 199.125 C 132.042969 199.105469 131.355469 199.394531 130.839844 199.875 C 130.507812 198.515625 129.4375 197.390625 127.980469 197.078125 C 127.75 197.023438 127.511719 196.996094 127.273438 196.988281 C 126.148438 196.960938 125.101562 197.4375 124.386719 198.230469 C 124.066406 196.859375 122.988281 195.71875 121.523438 195.398438 C 121.289062 195.351562 121.050781 195.320312 120.816406 195.316406 C 120.0625 195.296875 119.351562 195.515625 118.742188 195.890625 C 118.726562 195.792969 118.710938 195.695312 118.6875 195.59375 C 118.660156 195.480469 118.628906 195.367188 118.589844 195.257812 C 118 193.507812 116.25 192.476562 114.488281 192.730469 C 114.480469 192.59375 114.464844 192.449219 114.441406 192.308594 C 114.417969 192.175781 114.390625 192.039062 114.355469 191.910156 C 113.828125 189.890625 111.972656 188.578125 109.972656 188.648438 C 109.339844 186.28125 107.074219 184.773438 104.707031 185.023438 C 104.695312 184.925781 104.6875 184.832031 104.671875 184.734375 C 104.277344 182.335938 102.226562 180.546875 99.796875 180.484375 C 99.621094 180.476562 99.441406 180.484375 99.265625 180.496094 C 99.257812 180.417969 99.25 180.332031 99.234375 180.253906 C 98.855469 177.929688 96.878906 176.199219 94.53125 176.125 C 94.164062 174.242188 92.605469 172.820312 90.710938 172.621094 C 90.269531 171.046875 88.859375 169.90625 87.195312 169.867188 C 86.699219 169.851562 86.210938 169.9375 85.757812 170.109375 C 85.878906 168.636719 85.132812 167.238281 83.878906 166.519531 Z M 85.554688 173.597656 C 85.558594 173.382812 85.609375 173.183594 85.691406 173 C 85.730469 172.90625 85.785156 172.820312 85.839844 172.738281 C 86.015625 172.496094 86.253906 172.308594 86.535156 172.195312 C 86.722656 172.125 86.925781 172.085938 87.136719 172.089844 C 87.234375 172.09375 87.324219 172.105469 87.414062 172.125 L 87.492188 172.144531 L 87.683594 172.207031 L 87.753906 172.238281 C 87.828125 172.273438 87.894531 172.3125 87.957031 172.355469 L 88.058594 172.4375 L 88.148438 172.511719 L 88.253906 172.621094 L 88.269531 172.640625 C 88.347656 172.730469 88.414062 172.828125 88.46875 172.9375 L 88.484375 172.96875 C 88.585938 173.183594 88.648438 173.425781 88.640625 173.679688 C 88.621094 174.53125 87.910156 175.207031 87.058594 175.183594 C 86.800781 175.175781 86.566406 175.105469 86.359375 174.988281 L 86.355469 174.992188 L 86.339844 174.976562 C 86.253906 174.929688 86.175781 174.875 86.097656 174.808594 L 86.058594 174.769531 C 85.992188 174.710938 85.929688 174.644531 85.875 174.570312 L 85.832031 174.515625 C 85.777344 174.4375 85.734375 174.359375 85.695312 174.277344 L 85.667969 174.21875 C 85.625 174.117188 85.59375 174.011719 85.578125 173.898438 L 85.574219 173.890625 C 85.558594 173.792969 85.550781 173.699219 85.554688 173.597656 Z M 88.136719 177.265625 C 88.117188 177.148438 88.105469 177.03125 88.109375 176.910156 C 88.140625 175.726562 89.121094 174.789062 90.308594 174.820312 C 90.425781 174.824219 90.542969 174.84375 90.660156 174.863281 L 90.664062 174.863281 L 90.691406 174.871094 L 90.84375 174.910156 C 90.914062 174.929688 90.984375 174.953125 91.054688 174.980469 L 91.203125 175.050781 L 91.394531 175.160156 L 91.519531 175.242188 C 91.613281 175.3125 91.695312 175.378906 91.773438 175.460938 L 91.886719 175.59375 L 92 175.742188 L 92.105469 175.902344 L 92.183594 176.058594 L 92.261719 176.238281 C 92.285156 176.300781 92.300781 176.371094 92.316406 176.4375 C 92.367188 176.625 92.398438 176.816406 92.390625 177.023438 C 92.363281 178.207031 91.375 179.140625 90.195312 179.109375 C 90.082031 179.105469 89.980469 179.085938 89.871094 179.070312 L 89.867188 179.070312 L 89.839844 179.066406 C 89.769531 179.050781 89.703125 179.03125 89.636719 179.011719 L 89.519531 178.972656 C 88.988281 178.777344 88.5625 178.382812 88.320312 177.878906 L 88.320312 177.875 L 88.3125 177.859375 C 88.28125 177.792969 88.253906 177.726562 88.230469 177.652344 C 88.199219 177.574219 88.179688 177.492188 88.160156 177.40625 L 88.140625 177.332031 L 88.136719 177.316406 L 88.132812 177.265625 Z M 91.679688 181.09375 L 91.675781 180.984375 C 91.714844 179.488281 92.953125 178.3125 94.445312 178.347656 C 94.625 178.355469 94.796875 178.378906 94.960938 178.414062 L 95.121094 178.460938 C 95.230469 178.496094 95.335938 178.527344 95.441406 178.574219 L 95.613281 178.65625 C 95.703125 178.703125 95.789062 178.753906 95.875 178.8125 L 96.035156 178.929688 C 96.113281 178.992188 96.183594 179.054688 96.257812 179.121094 L 96.394531 179.265625 C 96.460938 179.34375 96.519531 179.417969 96.578125 179.5 L 96.6875 179.664062 C 96.742188 179.753906 96.789062 179.847656 96.832031 179.945312 L 96.902344 180.109375 C 96.949219 180.226562 96.980469 180.347656 97.007812 180.472656 L 97.042969 180.613281 C 97.070312 180.78125 97.082031 180.953125 97.078125 181.128906 C 97.039062 182.539062 95.925781 183.660156 94.542969 183.742188 C 94.460938 183.75 94.386719 183.761719 94.304688 183.761719 C 92.890625 183.726562 91.769531 182.597656 91.691406 181.207031 Z M 96.816406 185.488281 L 96.835938 185.324219 C 96.949219 183.976562 97.984375 182.910156 99.296875 182.742188 C 99.441406 182.71875 99.589844 182.703125 99.738281 182.707031 C 99.925781 182.714844 100.105469 182.738281 100.285156 182.777344 L 100.449219 182.828125 C 100.566406 182.863281 100.679688 182.898438 100.789062 182.941406 L 100.96875 183.035156 C 101.0625 183.082031 101.15625 183.136719 101.246094 183.195312 L 101.417969 183.320312 C 101.496094 183.382812 101.574219 183.453125 101.648438 183.523438 L 101.792969 183.675781 C 101.863281 183.753906 101.929688 183.835938 101.988281 183.921875 L 102.101562 184.09375 C 102.160156 184.1875 102.207031 184.289062 102.253906 184.390625 L 102.332031 184.566406 C 102.378906 184.6875 102.410156 184.816406 102.441406 184.945312 L 102.472656 185.074219 L 102.480469 185.097656 C 102.507812 185.269531 102.519531 185.453125 102.515625 185.636719 L 102.492188 185.816406 C 102.359375 187.304688 101.105469 188.457031 99.589844 188.417969 C 98.054688 188.375 96.84375 187.121094 96.824219 185.59375 Z M 104.410156 187.351562 L 104.53125 187.304688 C 105.976562 186.929688 107.453125 187.792969 107.832031 189.238281 L 107.84375 189.292969 L 107.839844 189.296875 C 108.179688 190.722656 107.324219 192.167969 105.902344 192.542969 C 104.457031 192.921875 102.980469 192.058594 102.601562 190.613281 C 102.238281 189.210938 103.042969 187.785156 104.410156 187.351562 Z M 109.589844 190.941406 C 109.941406 190.847656 110.292969 190.859375 110.625 190.9375 L 110.789062 190.980469 L 110.976562 191.050781 L 111.148438 191.132812 L 111.308594 191.230469 L 111.472656 191.351562 L 111.605469 191.464844 L 111.757812 191.628906 L 111.859375 191.753906 C 111.910156 191.820312 111.953125 191.898438 111.996094 191.972656 L 112.066406 192.089844 C 112.121094 192.214844 112.171875 192.339844 112.207031 192.472656 L 112.25 192.671875 L 112.265625 192.847656 L 112.269531 192.925781 C 112.277344 193.050781 112.269531 193.167969 112.257812 193.289062 L 112.238281 193.398438 C 112.222656 193.476562 112.203125 193.5625 112.175781 193.640625 L 112.132812 193.773438 C 112.097656 193.867188 112.054688 193.960938 112.003906 194.050781 L 111.90625 194.210938 L 111.816406 194.332031 L 111.679688 194.492188 L 111.613281 194.558594 C 111.355469 194.804688 111.042969 194.996094 110.675781 195.09375 C 109.53125 195.394531 108.363281 194.707031 108.0625 193.558594 C 107.761719 192.414062 108.445312 191.242188 109.589844 190.941406 Z M 113.679688 195.707031 L 113.675781 195.707031 L 113.734375 195.625 L 113.816406 195.5 L 113.917969 195.394531 L 114.015625 195.292969 L 114.15625 195.1875 L 114.253906 195.121094 C 114.339844 195.074219 114.429688 195.03125 114.527344 194.996094 C 114.726562 194.929688 114.933594 194.90625 115.136719 194.917969 C 115.636719 194.960938 116.097656 195.238281 116.355469 195.683594 C 116.40625 195.773438 116.453125 195.867188 116.488281 195.96875 L 116.523438 196.109375 L 116.53125 196.167969 C 116.550781 196.269531 116.558594 196.363281 116.558594 196.460938 L 116.558594 196.523438 C 116.535156 197.144531 116.140625 197.71875 115.515625 197.929688 C 114.707031 198.203125 113.832031 197.765625 113.558594 196.960938 C 113.414062 196.523438 113.472656 196.078125 113.679688 195.707031 Z M 119.214844 198.757812 C 119.273438 198.476562 119.414062 198.230469 119.601562 198.035156 L 119.59375 198.03125 L 119.617188 198.011719 L 119.789062 197.867188 L 119.859375 197.8125 C 119.921875 197.765625 119.992188 197.730469 120.0625 197.699219 L 120.132812 197.664062 C 120.21875 197.625 120.304688 197.597656 120.398438 197.578125 L 120.433594 197.570312 C 120.535156 197.546875 120.644531 197.539062 120.75 197.542969 L 120.761719 197.542969 C 120.855469 197.542969 120.953125 197.554688 121.050781 197.578125 C 121.148438 197.597656 121.234375 197.628906 121.320312 197.664062 L 121.40625 197.707031 L 121.558594 197.792969 L 121.65625 197.859375 L 121.765625 197.953125 L 121.863281 198.050781 L 121.902344 198.101562 C 121.988281 198.203125 122.0625 198.320312 122.121094 198.445312 C 122.15625 198.515625 122.175781 198.582031 122.199219 198.652344 L 122.207031 198.675781 C 122.269531 198.914062 122.289062 199.164062 122.234375 199.417969 C 122.050781 200.25 121.230469 200.78125 120.394531 200.601562 C 119.5625 200.417969 119.03125 199.59375 119.214844 198.757812 Z M 125.671875 200.433594 C 125.714844 200.246094 125.789062 200.078125 125.890625 199.921875 L 125.886719 199.921875 L 125.902344 199.90625 C 125.96875 199.804688 126.042969 199.710938 126.128906 199.628906 L 126.175781 199.597656 C 126.25 199.53125 126.332031 199.476562 126.417969 199.421875 L 126.511719 199.375 C 126.589844 199.339844 126.675781 199.308594 126.757812 199.28125 L 126.851562 199.253906 C 126.96875 199.226562 127.089844 199.214844 127.210938 199.214844 L 127.21875 199.214844 C 127.316406 199.21875 127.410156 199.230469 127.511719 199.25 C 127.605469 199.273438 127.695312 199.300781 127.78125 199.339844 L 127.867188 199.382812 L 128.019531 199.46875 L 128.117188 199.539062 L 128.222656 199.628906 L 128.324219 199.726562 L 128.363281 199.777344 C 128.503906 199.941406 128.601562 200.136719 128.664062 200.34375 L 128.667969 200.355469 C 128.6875 200.433594 128.703125 200.507812 128.710938 200.585938 C 128.730469 200.75 128.726562 200.917969 128.691406 201.089844 C 128.507812 201.929688 127.6875 202.457031 126.851562 202.273438 C 126.019531 202.09375 125.492188 201.269531 125.671875 200.433594 Z M 131.609375 201.65625 C 131.664062 201.398438 131.808594 201.179688 132.003906 201.023438 L 132.027344 201.003906 L 132.207031 200.890625 L 132.25 200.867188 L 132.441406 200.800781 L 132.492188 200.785156 C 132.574219 200.769531 132.65625 200.757812 132.738281 200.761719 L 132.746094 200.761719 C 132.816406 200.761719 132.890625 200.773438 132.960938 200.789062 C 133.050781 200.808594 133.132812 200.839844 133.214844 200.878906 L 133.277344 200.914062 L 133.441406 201.03125 L 133.488281 201.066406 C 133.773438 201.335938 133.917969 201.734375 133.832031 202.140625 C 133.695312 202.753906 133.089844 203.144531 132.480469 203.007812 C 131.867188 202.875 131.476562 202.273438 131.609375 201.65625 Z M 109.710938 53.203125 C 109.710938 53.316406 109.707031 53.425781 109.683594 53.535156 C 109.660156 53.671875 109.613281 53.792969 109.558594 53.910156 L 109.511719 53.996094 C 109.457031 54.09375 109.390625 54.183594 109.320312 54.269531 L 109.292969 54.300781 C 109.199219 54.398438 109.09375 54.484375 108.980469 54.554688 L 108.976562 54.558594 C 108.867188 54.628906 108.742188 54.679688 108.613281 54.71875 L 108.601562 54.726562 L 108.601562 54.722656 C 108.371094 54.789062 108.125 54.8125 107.875 54.765625 C 107.039062 54.605469 106.488281 53.792969 106.648438 52.957031 C 106.808594 52.117188 107.621094 51.566406 108.457031 51.726562 C 109.070312 51.84375 109.527344 52.3125 109.664062 52.878906 C 109.6875 52.984375 109.703125 53.085938 109.710938 53.191406 Z M 106.480469 56.226562 C 106.457031 56.34375 106.421875 56.457031 106.378906 56.570312 L 106.382812 56.570312 L 106.371094 56.597656 L 106.304688 56.742188 L 106.203125 56.9375 L 106.109375 57.078125 L 105.972656 57.246094 L 105.871094 57.355469 C 105.789062 57.433594 105.699219 57.507812 105.609375 57.570312 L 105.464844 57.660156 L 105.296875 57.753906 L 105.125 57.824219 L 104.957031 57.878906 L 104.765625 57.929688 C 104.699219 57.941406 104.632812 57.941406 104.5625 57.949219 C 104.371094 57.964844 104.171875 57.96875 103.976562 57.929688 C 102.8125 57.707031 102.050781 56.582031 102.273438 55.417969 C 102.496094 54.253906 103.621094 53.488281 104.78125 53.714844 C 105.941406 53.9375 106.707031 55.0625 106.480469 56.226562 Z M 102.335938 59.6875 L 102.332031 59.746094 C 102.296875 59.917969 102.25 60.082031 102.183594 60.238281 L 102.113281 60.390625 C 102.0625 60.492188 102.011719 60.59375 101.953125 60.6875 L 101.839844 60.84375 C 101.777344 60.925781 101.714844 61.007812 101.644531 61.078125 L 101.503906 61.21875 C 101.429688 61.285156 101.355469 61.347656 101.277344 61.40625 L 101.109375 61.519531 C 101.027344 61.574219 100.941406 61.617188 100.851562 61.664062 L 100.671875 61.746094 C 100.578125 61.785156 100.476562 61.8125 100.375 61.839844 L 100.199219 61.886719 C 100.078125 61.910156 99.953125 61.921875 99.828125 61.929688 L 99.699219 61.941406 L 99.679688 61.941406 C 99.511719 61.941406 99.339844 61.925781 99.167969 61.894531 L 99.097656 61.871094 C 97.675781 61.558594 96.746094 60.171875 97.023438 58.722656 C 97.304688 57.257812 98.71875 56.296875 100.1875 56.574219 C 101.632812 56.855469 102.582031 58.238281 102.335938 59.6875 Z M 97.21875 63.824219 C 97.21875 63.96875 97.207031 64.117188 97.175781 64.265625 C 97.144531 64.449219 97.089844 64.625 97.023438 64.792969 L 96.945312 64.953125 C 96.894531 65.058594 96.84375 65.164062 96.777344 65.265625 L 96.660156 65.429688 C 96.59375 65.515625 96.527344 65.597656 96.457031 65.675781 L 96.304688 65.824219 C 96.230469 65.894531 96.148438 65.960938 96.066406 66.023438 L 95.890625 66.140625 C 95.804688 66.195312 95.710938 66.246094 95.617188 66.292969 L 95.429688 66.378906 C 95.328125 66.417969 95.222656 66.449219 95.113281 66.480469 L 94.925781 66.527344 C 94.800781 66.550781 94.671875 66.5625 94.539062 66.574219 L 94.402344 66.585938 L 94.382812 66.585938 C 94.207031 66.585938 94.023438 66.570312 93.839844 66.535156 C 92.296875 66.238281 91.28125 64.742188 91.578125 63.195312 C 91.875 61.644531 93.367188 60.628906 94.914062 60.925781 C 96.3125 61.195312 97.265625 62.441406 97.21875 63.824219 Z M 91.84375 68.125 L 91.871094 68.257812 C 92.007812 69.746094 90.914062 71.0625 89.429688 71.203125 L 89.375 71.207031 L 89.375 71.203125 C 87.910156 71.308594 86.625 70.230469 86.488281 68.757812 C 86.347656 67.269531 87.441406 65.953125 88.929688 65.8125 C 90.367188 65.675781 91.644531 66.707031 91.84375 68.125 Z M 87.46875 72.667969 C 87.484375 72.828125 87.476562 72.980469 87.457031 73.132812 C 87.441406 73.246094 87.417969 73.359375 87.386719 73.464844 L 87.328125 73.632812 L 87.253906 73.804688 L 87.160156 73.972656 L 87.066406 74.109375 L 86.949219 74.269531 L 86.945312 74.273438 C 86.824219 74.410156 86.6875 74.527344 86.539062 74.632812 L 86.441406 74.691406 C 86.375 74.738281 86.300781 74.773438 86.230469 74.808594 L 86.128906 74.847656 C 85.941406 74.921875 85.746094 74.980469 85.535156 75.003906 C 84.359375 75.113281 83.3125 74.242188 83.203125 73.0625 C 83.089844 71.886719 83.957031 70.839844 85.136719 70.726562 C 86.3125 70.621094 87.359375 71.484375 87.46875 72.667969 Z M 82.265625 74.855469 C 83.117188 74.773438 83.871094 75.402344 83.949219 76.253906 C 83.972656 76.507812 83.925781 76.75 83.835938 76.972656 C 83.734375 77.230469 83.566406 77.453125 83.347656 77.625 L 83.320312 77.636719 C 83.230469 77.707031 83.128906 77.761719 83.019531 77.808594 L 82.9375 77.84375 C 82.816406 77.886719 82.6875 77.921875 82.554688 77.933594 L 82.410156 77.945312 L 82.335938 77.933594 C 82.269531 77.933594 82.203125 77.921875 82.140625 77.910156 L 82.019531 77.886719 C 81.945312 77.867188 81.875 77.84375 81.808594 77.8125 L 81.730469 77.777344 C 81.636719 77.734375 81.554688 77.679688 81.472656 77.621094 L 81.464844 77.613281 C 81.140625 77.359375 80.914062 76.980469 80.871094 76.539062 C 80.792969 75.691406 81.417969 74.933594 82.265625 74.855469 Z M 79.742188 80.796875 L 79.839844 80.929688 L 79.902344 81.035156 L 79.96875 81.179688 L 80.015625 81.292969 L 80.054688 81.453125 L 80.078125 81.5625 L 80.089844 81.742188 L 80.089844 81.84375 C 80.085938 81.914062 80.078125 81.988281 80.0625 82.058594 L 80.050781 82.132812 L 80.050781 82.140625 C 80.027344 82.234375 79.996094 82.324219 79.957031 82.414062 L 79.953125 82.417969 C 79.867188 82.613281 79.742188 82.78125 79.59375 82.914062 C 79.519531 82.980469 79.4375 83.042969 79.351562 83.097656 C 79.101562 83.25 78.804688 83.328125 78.503906 83.320312 C 78.300781 83.316406 78.097656 83.269531 77.90625 83.179688 L 77.902344 83.179688 C 77.128906 82.820312 76.789062 81.902344 77.148438 81.128906 C 77.5 80.351562 78.417969 80.011719 79.191406 80.367188 L 79.203125 80.371094 C 79.289062 80.414062 79.371094 80.460938 79.449219 80.515625 L 79.535156 80.589844 L 79.664062 80.707031 Z M 76.648438 86.667969 L 76.71875 86.753906 L 76.824219 86.890625 L 76.882812 86.988281 L 76.953125 87.140625 L 76.996094 87.246094 L 77.039062 87.410156 L 77.058594 87.523438 L 77.070312 87.699219 L 77.074219 87.804688 C 77.070312 87.878906 77.058594 87.949219 77.042969 88.019531 L 77.035156 88.089844 L 77.035156 88.101562 C 77.011719 88.195312 76.976562 88.289062 76.9375 88.378906 C 76.714844 88.863281 76.269531 89.179688 75.785156 89.261719 C 75.488281 89.308594 75.179688 89.273438 74.886719 89.140625 C 74.796875 89.097656 74.710938 89.046875 74.632812 88.988281 L 74.429688 88.816406 L 74.433594 88.8125 C 73.996094 88.371094 73.855469 87.6875 74.128906 87.085938 C 74.449219 86.386719 75.226562 86.046875 75.949219 86.246094 C 76.023438 86.269531 76.097656 86.292969 76.175781 86.328125 C 76.269531 86.371094 76.351562 86.421875 76.429688 86.476562 L 76.507812 86.539062 Z M 73.421875 91.789062 C 73.519531 91.804688 73.617188 91.832031 73.710938 91.871094 L 73.710938 91.875 L 73.898438 91.984375 L 73.949219 92.03125 L 74.058594 92.121094 L 74.109375 92.183594 L 74.1875 92.285156 L 74.230469 92.359375 L 74.28125 92.46875 L 74.3125 92.550781 L 74.34375 92.671875 L 74.359375 92.753906 L 74.367188 92.882812 L 74.371094 92.960938 L 74.347656 93.117188 L 74.339844 93.167969 L 74.339844 93.179688 C 74.324219 93.246094 74.300781 93.316406 74.269531 93.382812 C 74.203125 93.523438 74.113281 93.648438 74.003906 93.746094 C 73.894531 93.847656 73.765625 93.921875 73.628906 93.972656 C 73.492188 94.023438 73.347656 94.046875 73.203125 94.042969 C 73.054688 94.039062 72.90625 94.007812 72.761719 93.941406 C 72.679688 93.902344 72.601562 93.851562 72.53125 93.796875 L 72.480469 93.75 L 72.34375 93.601562 L 72.316406 93.574219 L 72.320312 93.570312 C 72.089844 93.25 72.027344 92.816406 72.203125 92.433594 C 72.414062 91.976562 72.886719 91.730469 73.355469 91.78125 Z M 71.933594 96.941406 C 72.039062 97 72.140625 97.074219 72.234375 97.160156 L 72.304688 97.222656 C 72.394531 97.316406 72.484375 97.417969 72.554688 97.539062 C 72.601562 97.621094 72.632812 97.707031 72.667969 97.792969 L 72.691406 97.871094 L 72.734375 98.066406 L 72.75 98.144531 C 72.753906 98.222656 72.757812 98.300781 72.75 98.378906 L 72.738281 98.507812 L 72.71875 98.621094 L 72.683594 98.769531 L 72.671875 98.796875 C 72.632812 98.90625 72.585938 99.015625 72.519531 99.117188 L 72.503906 99.148438 L 72.5 99.148438 C 72.371094 99.347656 72.199219 99.523438 71.980469 99.652344 C 71.242188 100.078125 70.296875 99.820312 69.871094 99.078125 C 69.445312 98.335938 69.703125 97.390625 70.445312 96.964844 C 70.777344 96.773438 71.152344 96.726562 71.503906 96.796875 L 71.535156 96.800781 C 71.667969 96.828125 71.800781 96.871094 71.921875 96.9375 Z M 68.945312 100.871094 C 69.972656 100.285156 71.285156 100.640625 71.871094 101.667969 C 71.933594 101.773438 71.976562 101.886719 72.015625 101.996094 L 72.019531 101.996094 L 72.027344 102.023438 L 72.074219 102.175781 C 72.09375 102.25 72.109375 102.320312 72.121094 102.390625 L 72.144531 102.558594 C 72.148438 102.628906 72.148438 102.699219 72.144531 102.773438 L 72.144531 102.929688 C 72.132812 103.039062 72.113281 103.148438 72.085938 103.257812 L 72.035156 103.421875 L 71.964844 103.597656 L 71.878906 103.769531 L 71.789062 103.921875 L 71.675781 104.078125 L 71.539062 104.230469 C 71.402344 104.367188 71.25 104.496094 71.078125 104.597656 C 70.050781 105.183594 68.742188 104.828125 68.15625 103.804688 C 67.5625 102.773438 67.921875 101.460938 68.945312 100.871094 Z M 67.320312 106.042969 C 68.601562 105.308594 70.222656 105.742188 70.976562 107 L 70.984375 107.011719 L 71.011719 107.046875 C 71.101562 107.199219 71.167969 107.359375 71.222656 107.519531 L 71.261719 107.679688 C 71.296875 107.792969 71.320312 107.898438 71.339844 108.011719 L 71.355469 108.203125 C 71.359375 108.304688 71.367188 108.40625 71.359375 108.507812 L 71.34375 108.703125 C 71.332031 108.804688 71.316406 108.898438 71.292969 108.996094 L 71.242188 109.191406 C 71.210938 109.285156 71.175781 109.378906 71.136719 109.46875 L 71.054688 109.644531 C 71.007812 109.738281 70.949219 109.828125 70.890625 109.914062 L 70.789062 110.0625 C 70.710938 110.164062 70.625 110.25 70.53125 110.335938 L 70.441406 110.429688 L 70.429688 110.445312 C 70.304688 110.554688 70.164062 110.652344 70.007812 110.738281 L 69.941406 110.773438 C 68.660156 111.460938 67.050781 111.015625 66.320312 109.738281 C 65.578125 108.441406 66.03125 106.785156 67.320312 106.042969 Z M 64.789062 120.398438 C 65.796875 119.351562 67.433594 119.304688 68.507812 120.25 L 68.609375 120.328125 L 68.613281 120.332031 C 69.148438 120.851562 69.421875 121.539062 69.433594 122.230469 C 69.4375 122.40625 69.425781 122.578125 69.394531 122.75 C 69.304688 123.261719 69.066406 123.753906 68.679688 124.15625 L 68.636719 124.195312 C 67.59375 125.230469 65.917969 125.25 64.855469 124.226562 C 63.78125 123.183594 63.753906 121.472656 64.789062 120.398438 Z M 66.15625 112.785156 C 67.289062 112.128906 68.679688 112.359375 69.566406 113.238281 C 69.640625 113.3125 69.714844 113.394531 69.785156 113.476562 C 69.878906 113.589844 69.96875 113.707031 70.042969 113.84375 C 70.136719 114.003906 70.210938 114.171875 70.269531 114.339844 L 70.3125 114.507812 C 70.34375 114.625 70.371094 114.742188 70.390625 114.859375 C 70.398438 114.925781 70.398438 114.992188 70.40625 115.0625 C 70.414062 115.167969 70.417969 115.277344 70.414062 115.382812 C 70.410156 115.453125 70.402344 115.519531 70.394531 115.589844 C 70.382812 115.695312 70.363281 115.796875 70.339844 115.898438 C 70.328125 115.96875 70.304688 116.035156 70.285156 116.101562 C 70.257812 116.199219 70.21875 116.300781 70.175781 116.394531 L 70.089844 116.582031 C 70.039062 116.683594 69.980469 116.773438 69.917969 116.867188 L 69.808594 117.027344 C 69.726562 117.128906 69.636719 117.222656 69.539062 117.3125 L 69.445312 117.410156 L 69.429688 117.425781 C 69.296875 117.542969 69.148438 117.648438 68.988281 117.738281 C 67.621094 118.523438 65.882812 118.050781 65.097656 116.679688 C 64.316406 115.3125 64.785156 113.566406 66.15625 112.785156 Z M 61.144531 123.34375 C 61.144531 169.960938 98.871094 207.75 145.414062 207.75 C 191.957031 207.75 229.683594 169.960938 229.683594 123.34375 C 229.683594 76.726562 191.957031 38.941406 145.414062 38.941406 C 98.871094 38.941406 61.144531 76.726562 61.144531 123.34375 "/>
</g>
</svg>
