<?xml version="1.0" encoding="UTF-8"?>
<svg xmlns="http://www.w3.org/2000/svg" xmlns:xlink="http://www.w3.org/1999/xlink" width="375pt" height="374.999991pt" viewBox="0 0 375 374.999991" version="1.2">
<defs>
<clipPath id="clip1">
  <path d="M 7.265625 0 L 300 0 L 300 375 L 7.265625 375 Z M 7.265625 0 "/>
</clipPath>
<clipPath id="clip2">
  <path d="M 325 101 L 368.015625 101 L 368.015625 347 L 325 347 Z M 325 101 "/>
</clipPath>
</defs>
<g id="surface1">
<g clip-path="url(#clip1)" clip-rule="nonzero">
<path style=" stroke:none;fill-rule:nonzero;fill:rgb(0%,0%,0%);fill-opacity:1;" d="M 284.539062 0.0546875 L 22.667969 0.0546875 C 14.175781 0.0546875 7.265625 6.957031 7.265625 15.4375 L 7.265625 359.5625 C 7.265625 368.042969 14.175781 374.945312 22.667969 374.945312 L 284.539062 374.945312 C 293.03125 374.945312 299.941406 368.042969 299.941406 359.5625 L 299.941406 15.4375 C 299.941406 6.957031 293.03125 0.0546875 284.539062 0.0546875 Z M 292.238281 359.5625 C 292.238281 363.804688 288.785156 367.253906 284.539062 367.253906 L 22.667969 367.253906 C 18.421875 367.253906 14.96875 363.804688 14.96875 359.5625 L 14.96875 15.4375 C 14.96875 11.195312 18.421875 7.746094 22.667969 7.746094 L 284.539062 7.746094 C 288.785156 7.746094 292.238281 11.195312 292.238281 15.4375 Z M 292.238281 359.5625 "/>
</g>
<g clip-path="url(#clip2)" clip-rule="nonzero">
<path style=" stroke:none;fill-rule:nonzero;fill:rgb(0%,0%,0%);fill-opacity:1;" d="M 352.894531 101.949219 L 341.339844 101.949219 C 332.847656 101.949219 325.9375 108.847656 325.9375 117.328125 L 325.9375 303.8125 C 325.9375 303.820312 325.9375 303.828125 325.9375 303.839844 C 325.941406 304.007812 325.964844 304.179688 325.992188 304.347656 C 326.003906 304.433594 326.003906 304.523438 326.019531 304.605469 C 326.042969 304.707031 326.082031 304.800781 326.113281 304.898438 C 326.15625 305.050781 326.195312 305.203125 326.257812 305.34375 C 326.261719 305.351562 326.261719 305.363281 326.265625 305.371094 L 330.078125 313.945312 C 330.105469 314.003906 330.132812 314.0625 330.160156 314.117188 L 343.597656 344.304688 C 344.214844 345.691406 345.59375 346.585938 347.117188 346.585938 C 348.636719 346.585938 350.019531 345.691406 350.636719 344.304688 L 364.078125 314.105469 C 364.101562 314.050781 364.128906 314 364.152344 313.945312 L 367.964844 305.371094 C 367.96875 305.363281 367.972656 305.351562 367.976562 305.34375 C 368.039062 305.203125 368.074219 305.050781 368.121094 304.902344 C 368.152344 304.804688 368.191406 304.707031 368.214844 304.605469 C 368.230469 304.527344 368.230469 304.4375 368.242188 304.355469 C 368.269531 304.183594 368.292969 304.011719 368.296875 303.839844 C 368.296875 303.832031 368.296875 303.820312 368.296875 303.8125 L 368.296875 117.328125 C 368.296875 108.847656 361.386719 101.949219 352.894531 101.949219 Z M 360.59375 302.996094 L 357.179688 310.675781 C 357.152344 310.730469 357.128906 310.78125 357.105469 310.835938 L 347.117188 333.273438 L 337.128906 310.832031 C 337.101562 310.777344 337.074219 310.71875 337.046875 310.664062 L 333.636719 302.992188 L 333.636719 300.496094 C 337.964844 302.675781 342.53125 303.808594 347.117188 303.808594 C 351.703125 303.808594 356.265625 302.675781 360.59375 300.496094 Z M 360.59375 291.550781 C 356.289062 294.574219 351.765625 296.121094 347.117188 296.121094 C 342.46875 296.121094 337.941406 294.589844 333.636719 291.5625 L 333.636719 173.792969 C 337.941406 170.765625 342.46875 169.234375 347.117188 169.234375 C 351.765625 169.234375 356.289062 170.78125 360.59375 173.808594 Z M 360.59375 164.859375 C 356.265625 162.679688 351.699219 161.546875 347.117188 161.546875 C 342.53125 161.546875 337.964844 162.679688 333.636719 164.859375 L 333.636719 143.28125 L 360.59375 143.28125 Z M 360.59375 135.59375 L 333.636719 135.59375 L 333.636719 117.328125 C 333.636719 113.089844 337.09375 109.640625 341.339844 109.640625 L 352.894531 109.640625 C 357.140625 109.640625 360.59375 113.089844 360.59375 117.328125 Z M 360.59375 135.59375 "/>
</g>
<path style=" stroke:none;fill-rule:nonzero;fill:rgb(0%,0%,0%);fill-opacity:1;" d="M 41.925781 40.429688 L 65.992188 40.429688 C 68.121094 40.429688 69.84375 38.707031 69.84375 36.582031 C 69.84375 34.460938 68.121094 32.738281 65.992188 32.738281 L 41.925781 32.738281 C 39.796875 32.738281 38.074219 34.460938 38.074219 36.582031 C 38.074219 38.707031 39.796875 40.429688 41.925781 40.429688 Z M 41.925781 40.429688 "/>
<path style=" stroke:none;fill-rule:nonzero;fill:rgb(0%,0%,0%);fill-opacity:1;" d="M 41.925781 132.707031 C 44.050781 132.707031 45.777344 130.988281 45.777344 128.863281 L 45.777344 104.832031 C 45.777344 102.710938 44.050781 100.988281 41.925781 100.988281 C 39.796875 100.988281 38.074219 102.710938 38.074219 104.832031 L 38.074219 128.863281 C 38.074219 130.988281 39.796875 132.707031 41.925781 132.707031 Z M 41.925781 132.707031 "/>
<path style=" stroke:none;fill-rule:nonzero;fill:rgb(0%,0%,0%);fill-opacity:1;" d="M 41.925781 84.644531 C 44.050781 84.644531 45.777344 82.925781 45.777344 80.800781 L 45.777344 56.769531 C 45.777344 54.648438 44.050781 52.925781 41.925781 52.925781 C 39.796875 52.925781 38.074219 54.648438 38.074219 56.769531 L 38.074219 80.800781 C 38.074219 82.925781 39.796875 84.644531 41.925781 84.644531 Z M 41.925781 84.644531 "/>
<path style=" stroke:none;fill-rule:nonzero;fill:rgb(0%,0%,0%);fill-opacity:1;" d="M 87.175781 127.902344 L 63.105469 127.902344 C 60.976562 127.902344 59.253906 129.625 59.253906 131.746094 C 59.253906 133.871094 60.976562 135.59375 63.105469 135.59375 L 87.175781 135.59375 C 89.300781 135.59375 91.023438 133.871094 91.023438 131.746094 C 91.023438 129.625 89.300781 127.902344 87.175781 127.902344 Z M 87.175781 127.902344 "/>
<path style=" stroke:none;fill-rule:nonzero;fill:rgb(0%,0%,0%);fill-opacity:1;" d="M 137.238281 113.484375 C 139.363281 113.484375 141.089844 111.761719 141.089844 109.640625 L 141.089844 85.609375 C 141.089844 83.484375 139.363281 81.761719 137.238281 81.761719 C 135.109375 81.761719 133.386719 83.484375 133.386719 85.609375 L 133.386719 109.640625 C 133.386719 111.761719 135.109375 113.484375 137.238281 113.484375 Z M 137.238281 113.484375 "/>
<path style=" stroke:none;fill-rule:nonzero;fill:rgb(0%,0%,0%);fill-opacity:1;" d="M 90.0625 40.429688 L 114.132812 40.429688 C 116.257812 40.429688 117.980469 38.707031 117.980469 36.582031 C 117.980469 34.460938 116.257812 32.738281 114.132812 32.738281 L 90.0625 32.738281 C 87.933594 32.738281 86.210938 34.460938 86.210938 36.582031 C 86.210938 38.707031 87.933594 40.429688 90.0625 40.429688 Z M 90.0625 40.429688 "/>
<path style=" stroke:none;fill-rule:nonzero;fill:rgb(0%,0%,0%);fill-opacity:1;" d="M 111.242188 127.902344 C 109.117188 127.902344 107.390625 129.625 107.390625 131.746094 C 107.390625 133.871094 109.117188 135.59375 111.242188 135.59375 L 135.3125 135.59375 C 137.4375 135.59375 139.164062 133.871094 139.164062 131.746094 C 139.164062 129.625 137.4375 127.902344 135.3125 127.902344 Z M 111.242188 127.902344 "/>
<path style=" stroke:none;fill-rule:nonzero;fill:rgb(0%,0%,0%);fill-opacity:1;" d="M 137.238281 65.421875 C 139.363281 65.421875 141.089844 63.699219 141.089844 61.578125 L 141.089844 37.546875 C 141.089844 35.421875 139.363281 33.699219 137.238281 33.699219 C 135.109375 33.699219 133.386719 35.421875 133.386719 37.546875 L 133.386719 61.578125 C 133.386719 63.699219 135.109375 65.421875 137.238281 65.421875 Z M 137.238281 65.421875 "/>
<path style=" stroke:none;fill-rule:nonzero;fill:rgb(0%,0%,0%);fill-opacity:1;" d="M 202.96875 116.367188 L 212.722656 116.367188 C 214.851562 116.367188 216.574219 114.644531 216.574219 112.523438 C 216.574219 110.398438 214.851562 108.675781 212.722656 108.675781 L 202.96875 108.675781 C 194.652344 108.675781 187.886719 101.921875 187.886719 93.617188 L 187.886719 74.710938 C 187.886719 66.410156 194.652344 59.652344 202.96875 59.652344 L 212.722656 59.652344 C 214.851562 59.652344 216.574219 57.929688 216.574219 55.808594 C 216.574219 53.683594 214.851562 51.960938 212.722656 51.960938 L 202.96875 51.960938 C 190.40625 51.960938 180.183594 62.167969 180.183594 74.710938 L 180.183594 93.617188 C 180.183594 106.160156 190.40625 116.367188 202.96875 116.367188 Z M 202.96875 116.367188 "/>
<path style=" stroke:none;fill-rule:nonzero;fill:rgb(0%,0%,0%);fill-opacity:1;" d="M 243.308594 113.605469 C 243.3125 113.621094 243.320312 113.632812 243.328125 113.648438 C 243.347656 113.71875 243.378906 113.785156 243.40625 113.855469 C 243.464844 114.007812 243.523438 114.15625 243.597656 114.296875 C 243.632812 114.367188 243.671875 114.429688 243.714844 114.496094 C 243.792969 114.632812 243.878906 114.757812 243.972656 114.878906 C 244.023438 114.945312 244.078125 115.007812 244.132812 115.066406 C 244.234375 115.183594 244.339844 115.289062 244.453125 115.390625 C 244.515625 115.441406 244.574219 115.5 244.636719 115.546875 C 244.785156 115.660156 244.941406 115.761719 245.101562 115.855469 C 245.140625 115.878906 245.175781 115.90625 245.21875 115.925781 C 245.425781 116.035156 245.644531 116.121094 245.871094 116.191406 C 245.890625 116.199219 245.90625 116.207031 245.921875 116.210938 C 246.015625 116.238281 246.109375 116.253906 246.199219 116.273438 C 246.277344 116.289062 246.351562 116.3125 246.425781 116.324219 C 246.609375 116.351562 246.792969 116.367188 246.976562 116.367188 C 246.984375 116.367188 246.996094 116.367188 247.003906 116.367188 C 247.007812 116.367188 247.007812 116.367188 247.007812 116.367188 C 247.015625 116.367188 247.023438 116.367188 247.03125 116.367188 C 247.214844 116.367188 247.398438 116.351562 247.582031 116.324219 C 247.660156 116.3125 247.734375 116.289062 247.808594 116.273438 C 247.902344 116.253906 247.996094 116.242188 248.089844 116.210938 C 248.105469 116.207031 248.121094 116.199219 248.140625 116.191406 C 248.367188 116.121094 248.585938 116.035156 248.792969 115.925781 C 248.835938 115.90625 248.871094 115.878906 248.910156 115.855469 C 249.070312 115.761719 249.226562 115.660156 249.371094 115.546875 C 249.4375 115.5 249.496094 115.441406 249.554688 115.390625 C 249.667969 115.289062 249.777344 115.183594 249.878906 115.066406 C 249.933594 115.007812 249.988281 114.945312 250.035156 114.878906 C 250.132812 114.757812 250.214844 114.628906 250.296875 114.496094 C 250.335938 114.429688 250.378906 114.367188 250.414062 114.296875 C 250.488281 114.15625 250.550781 114.007812 250.605469 113.855469 C 250.628906 113.785156 250.664062 113.71875 250.683594 113.648438 C 250.6875 113.632812 250.695312 113.621094 250.703125 113.605469 L 267.339844 56.890625 C 267.9375 54.851562 266.769531 52.714844 264.726562 52.121094 C 262.6875 51.523438 260.546875 52.691406 259.949219 54.726562 L 247.007812 98.84375 L 234.0625 54.726562 C 233.464844 52.691406 231.324219 51.523438 229.285156 52.121094 C 227.242188 52.714844 226.074219 54.851562 226.671875 56.890625 Z M 243.308594 113.605469 "/>
<path style=" stroke:none;fill-rule:nonzero;fill:rgb(0%,0%,0%);fill-opacity:1;" d="M 263.644531 161.546875 L 41.925781 161.546875 C 39.796875 161.546875 38.074219 163.269531 38.074219 165.390625 C 38.074219 167.515625 39.796875 169.234375 41.925781 169.234375 L 263.644531 169.234375 C 265.769531 169.234375 267.496094 167.515625 267.496094 165.390625 C 267.496094 163.269531 265.769531 161.546875 263.644531 161.546875 Z M 263.644531 161.546875 "/>
<path style=" stroke:none;fill-rule:nonzero;fill:rgb(0%,0%,0%);fill-opacity:1;" d="M 263.644531 183.65625 L 41.925781 183.65625 C 39.796875 183.65625 38.074219 185.375 38.074219 187.5 C 38.074219 189.625 39.796875 191.34375 41.925781 191.34375 L 263.644531 191.34375 C 265.769531 191.34375 267.496094 189.625 267.496094 187.5 C 267.496094 185.375 265.769531 183.65625 263.644531 183.65625 Z M 263.644531 183.65625 "/>
<path style=" stroke:none;fill-rule:nonzero;fill:rgb(0%,0%,0%);fill-opacity:1;" d="M 263.644531 205.765625 L 41.925781 205.765625 C 39.796875 205.765625 38.074219 207.484375 38.074219 209.609375 C 38.074219 211.730469 39.796875 213.453125 41.925781 213.453125 L 263.644531 213.453125 C 265.769531 213.453125 267.496094 211.730469 267.496094 209.609375 C 267.496094 207.484375 265.769531 205.765625 263.644531 205.765625 Z M 263.644531 205.765625 "/>
<path style=" stroke:none;fill-rule:nonzero;fill:rgb(0%,0%,0%);fill-opacity:1;" d="M 263.644531 227.871094 L 41.925781 227.871094 C 39.796875 227.871094 38.074219 229.59375 38.074219 231.71875 C 38.074219 233.839844 39.796875 235.5625 41.925781 235.5625 L 263.644531 235.5625 C 265.769531 235.5625 267.496094 233.839844 267.496094 231.71875 C 267.496094 229.59375 265.769531 227.871094 263.644531 227.871094 Z M 263.644531 227.871094 "/>
<path style=" stroke:none;fill-rule:nonzero;fill:rgb(0%,0%,0%);fill-opacity:1;" d="M 263.644531 249.980469 L 41.925781 249.980469 C 39.796875 249.980469 38.074219 251.703125 38.074219 253.828125 C 38.074219 255.949219 39.796875 257.671875 41.925781 257.671875 L 263.644531 257.671875 C 265.769531 257.671875 267.496094 255.949219 267.496094 253.828125 C 267.496094 251.703125 265.769531 249.980469 263.644531 249.980469 Z M 263.644531 249.980469 "/>
<path style=" stroke:none;fill-rule:nonzero;fill:rgb(0%,0%,0%);fill-opacity:1;" d="M 263.644531 272.089844 L 41.925781 272.089844 C 39.796875 272.089844 38.074219 273.8125 38.074219 275.933594 C 38.074219 278.058594 39.796875 279.78125 41.925781 279.78125 L 263.644531 279.78125 C 265.769531 279.78125 267.496094 278.058594 267.496094 275.933594 C 267.496094 273.8125 265.769531 272.089844 263.644531 272.089844 Z M 263.644531 272.089844 "/>
<path style=" stroke:none;fill-rule:nonzero;fill:rgb(0%,0%,0%);fill-opacity:1;" d="M 263.644531 294.199219 L 41.925781 294.199219 C 39.796875 294.199219 38.074219 295.921875 38.074219 298.042969 C 38.074219 300.167969 39.796875 301.890625 41.925781 301.890625 L 263.644531 301.890625 C 265.769531 301.890625 267.496094 300.167969 267.496094 298.042969 C 267.496094 295.921875 265.769531 294.199219 263.644531 294.199219 Z M 263.644531 294.199219 "/>
<path style=" stroke:none;fill-rule:nonzero;fill:rgb(0%,0%,0%);fill-opacity:1;" d="M 263.644531 316.308594 L 242.667969 316.308594 C 240.542969 316.308594 238.816406 318.027344 238.816406 320.152344 C 238.816406 322.277344 240.542969 323.996094 242.667969 323.996094 L 263.644531 323.996094 C 265.769531 323.996094 267.496094 322.277344 267.496094 320.152344 C 267.496094 318.027344 265.769531 316.308594 263.644531 316.308594 Z M 263.644531 316.308594 "/>
<path style=" stroke:none;fill-rule:nonzero;fill:rgb(0%,0%,0%);fill-opacity:1;" d="M 220.523438 316.308594 L 198.382812 316.308594 C 196.253906 316.308594 194.53125 318.027344 194.53125 320.152344 C 194.53125 322.277344 196.253906 323.996094 198.382812 323.996094 L 220.523438 323.996094 C 222.652344 323.996094 224.375 322.277344 224.375 320.152344 C 224.375 318.027344 222.652344 316.308594 220.523438 316.308594 Z M 220.523438 316.308594 "/>
</g>
</svg>
