<?xml version="1.0" encoding="UTF-8"?>
<svg xmlns="http://www.w3.org/2000/svg" xmlns:xlink="http://www.w3.org/1999/xlink" width="75pt" height="74.999997pt" viewBox="0 0 75 74.999997" version="1.2">
<g id="surface1">
<path style=" stroke:none;fill-rule:nonzero;fill:rgb(0%,0%,0%);fill-opacity:1;" d="M 62.554688 0 L 12.445312 0 C 11.625 0 10.816406 0.0820312 10.015625 0.242188 C 9.214844 0.402344 8.4375 0.636719 7.683594 0.953125 C 6.929688 1.265625 6.214844 1.648438 5.535156 2.101562 C 4.855469 2.554688 4.226562 3.070312 3.648438 3.648438 C 3.070312 4.226562 2.554688 4.855469 2.101562 5.535156 C 1.648438 6.214844 1.265625 6.929688 0.953125 7.683594 C 0.636719 8.4375 0.402344 9.214844 0.242188 10.015625 C 0.0820312 10.816406 0 11.625 0 12.445312 L 0 62.558594 C 0 63.375 0.0820312 64.183594 0.242188 64.984375 C 0.402344 65.785156 0.640625 66.5625 0.953125 67.316406 C 1.265625 68.074219 1.648438 68.789062 2.101562 69.46875 C 2.558594 70.144531 3.074219 70.773438 3.652344 71.351562 C 4.226562 71.929688 4.855469 72.445312 5.535156 72.898438 C 6.214844 73.351562 6.929688 73.734375 7.683594 74.046875 C 8.4375 74.363281 9.214844 74.597656 10.015625 74.757812 C 10.816406 74.917969 11.625 75 12.445312 75 L 62.554688 75 C 63.375 75 64.183594 74.917969 64.984375 74.757812 C 65.785156 74.597656 66.5625 74.363281 67.316406 74.046875 C 68.070312 73.734375 68.785156 73.351562 69.464844 72.898438 C 70.144531 72.445312 70.773438 71.929688 71.347656 71.351562 C 71.925781 70.773438 72.441406 70.144531 72.898438 69.46875 C 73.351562 68.789062 73.734375 68.074219 74.046875 67.316406 C 74.359375 66.5625 74.597656 65.785156 74.757812 64.984375 C 74.917969 64.183594 75 63.375 75 62.558594 L 75 12.445312 C 75 11.625 74.917969 10.816406 74.757812 10.015625 C 74.597656 9.214844 74.363281 8.4375 74.046875 7.683594 C 73.734375 6.929688 73.351562 6.214844 72.898438 5.535156 C 72.445312 4.855469 71.929688 4.226562 71.351562 3.648438 C 70.773438 3.070312 70.144531 2.554688 69.464844 2.101562 C 68.785156 1.648438 68.070312 1.265625 67.316406 0.953125 C 66.5625 0.636719 65.785156 0.402344 64.984375 0.242188 C 64.183594 0.0820312 63.375 0 62.554688 0 Z M 36.09375 42.488281 C 36.097656 43.757812 35.96875 45.011719 35.707031 46.253906 C 35.445312 47.492188 35.054688 48.691406 34.539062 49.851562 C 34.023438 51.007812 33.394531 52.101562 32.644531 53.125 C 31.898438 54.148438 31.050781 55.085938 30.109375 55.929688 L 29.585938 56.4375 C 27.570312 58.074219 25.316406 59.25 22.824219 59.976562 C 21.800781 60.238281 20.761719 60.4375 19.714844 60.582031 C 19.640625 60.582031 19.328125 60.609375 19.253906 60.609375 C 18.949219 60.609375 18.652344 60.558594 18.363281 60.464844 C 18.074219 60.371094 17.804688 60.234375 17.558594 60.054688 C 17.308594 59.878906 17.09375 59.667969 16.914062 59.421875 C 16.730469 59.175781 16.589844 58.910156 16.492188 58.621094 C 16.410156 58.425781 16.371094 58.21875 16.371094 58.007812 L 16.371094 51.671875 C 16.378906 51.535156 16.378906 51.394531 16.371094 51.257812 C 16.234375 50.328125 16.464844 49.5 17.066406 48.78125 C 17.523438 48.261719 18.082031 47.917969 18.75 47.75 L 19.203125 47.636719 C 20.03125 47.484375 20.820312 47.210938 21.566406 46.824219 C 22.726562 46.15625 23.550781 45.203125 24.046875 43.960938 L 12.792969 43.960938 C 12.246094 43.976562 11.710938 43.910156 11.183594 43.761719 C 10.746094 43.636719 10.335938 43.445312 9.957031 43.191406 C 9.578125 42.933594 9.25 42.625 8.96875 42.265625 C 8.6875 41.902344 8.472656 41.507812 8.320312 41.074219 C 8.167969 40.644531 8.085938 40.199219 8.074219 39.742188 C 8.074219 32.984375 8.074219 26.230469 8.074219 19.488281 C 7.957031 18.734375 8.027344 17.996094 8.289062 17.277344 C 8.546875 16.558594 8.960938 15.945312 9.535156 15.4375 C 10.300781 14.75 11.203125 14.402344 12.230469 14.398438 L 31.820312 14.398438 C 35.664062 14.398438 36.101562 17.308594 36.101562 19.492188 L 36.101562 20.28125 C 36.109375 23.546875 36.148438 36.03125 36.09375 42.488281 Z M 66.933594 42.488281 C 66.9375 43.757812 66.808594 45.011719 66.546875 46.25 C 66.285156 47.492188 65.898438 48.691406 65.382812 49.847656 C 64.867188 51.007812 64.234375 52.097656 63.488281 53.121094 C 62.738281 54.144531 61.894531 55.078125 60.949219 55.925781 L 60.425781 56.4375 C 58.410156 58.078125 56.148438 59.257812 53.652344 59.976562 C 52.625 60.238281 51.585938 60.4375 50.535156 60.582031 C 50.460938 60.582031 50.148438 60.609375 50.074219 60.609375 C 49.769531 60.609375 49.472656 60.558594 49.183594 60.464844 C 48.894531 60.371094 48.625 60.234375 48.378906 60.054688 C 48.128906 59.878906 47.914062 59.664062 47.734375 59.421875 C 47.554688 59.175781 47.414062 58.910156 47.316406 58.621094 C 47.238281 58.425781 47.199219 58.222656 47.199219 58.015625 L 47.199219 51.671875 C 47.207031 51.535156 47.207031 51.394531 47.199219 51.257812 C 47.054688 50.328125 47.285156 49.5 47.890625 48.78125 C 48.34375 48.261719 48.902344 47.921875 49.570312 47.753906 L 50.023438 47.636719 C 50.855469 47.484375 51.640625 47.210938 52.390625 46.824219 C 53.546875 46.15625 54.375 45.203125 54.871094 43.960938 L 43.613281 43.960938 C 43.066406 43.980469 42.53125 43.910156 42.007812 43.757812 C 41.566406 43.632812 41.15625 43.441406 40.78125 43.1875 C 40.402344 42.929688 40.070312 42.621094 39.792969 42.261719 C 39.511719 41.902344 39.296875 41.503906 39.140625 41.074219 C 38.988281 40.644531 38.90625 40.199219 38.894531 39.742188 L 38.894531 19.492188 C 38.777344 18.738281 38.847656 18 39.105469 17.28125 C 39.367188 16.5625 39.78125 15.949219 40.351562 15.441406 C 41.121094 14.75 42.019531 14.402344 43.050781 14.398438 L 62.640625 14.398438 C 66.484375 14.398438 66.917969 17.308594 66.917969 19.492188 L 66.917969 20.28125 C 66.945312 23.546875 66.980469 36.03125 66.933594 42.488281 Z M 66.933594 42.488281 "/>
</g>
</svg>
