<?xml version="1.0" encoding="UTF-8"?>
<svg xmlns="http://www.w3.org/2000/svg" xmlns:xlink="http://www.w3.org/1999/xlink" width="375pt" height="374.999991pt" viewBox="0 0 375 374.999991" version="1.2">
<defs>
<clipPath id="clip1">
  <path d="M 243 291 L 283 291 L 283 332.15625 L 243 332.15625 Z M 243 291 "/>
</clipPath>
</defs>
<g id="surface1">
<path style=" stroke:none;fill-rule:nonzero;fill:rgb(13.729858%,12.159729%,12.548828%);fill-opacity:1;" d="M 338.019531 1.378906 L 338.019531 221.816406 C 338.019531 222.601562 338.652344 223.234375 339.433594 223.234375 C 340.214844 223.234375 340.851562 222.601562 340.851562 221.816406 L 340.851562 1.378906 C 340.851562 0.597656 340.214844 -0.0351562 339.433594 -0.0351562 C 338.652344 -0.0351562 338.019531 0.597656 338.019531 1.378906 "/>
<path style=" stroke:none;fill-rule:nonzero;fill:rgb(13.729858%,12.159729%,12.548828%);fill-opacity:1;" d="M 295.953125 1.378906 L 295.953125 102.957031 C 295.953125 103.738281 296.585938 104.375 297.367188 104.375 C 298.152344 104.375 298.785156 103.738281 298.785156 102.957031 L 298.785156 1.378906 C 298.785156 0.597656 298.152344 -0.0351562 297.367188 -0.0351562 C 296.585938 -0.0351562 295.953125 0.597656 295.953125 1.378906 "/>
<path style=" stroke:none;fill-rule:nonzero;fill:rgb(13.729858%,12.159729%,12.548828%);fill-opacity:1;" d="M 200.933594 1.378906 L 200.933594 135.671875 C 200.933594 136.453125 201.566406 137.085938 202.347656 137.085938 C 203.132812 137.085938 203.765625 136.453125 203.765625 135.671875 L 203.765625 1.378906 C 203.765625 0.597656 203.132812 -0.0351562 202.347656 -0.0351562 C 201.566406 -0.0351562 200.933594 0.597656 200.933594 1.378906 "/>
<path style=" stroke:none;fill-rule:nonzero;fill:rgb(13.729858%,12.159729%,12.548828%);fill-opacity:1;" d="M 156.980469 1.378906 L 156.980469 52.167969 C 156.980469 52.949219 157.613281 53.582031 158.394531 53.582031 C 159.175781 53.582031 159.8125 52.949219 159.8125 52.167969 L 159.8125 1.378906 C 159.8125 0.597656 159.175781 -0.0351562 158.394531 -0.0351562 C 157.613281 -0.0351562 156.980469 0.597656 156.980469 1.378906 "/>
<path style=" stroke:none;fill-rule:nonzero;fill:rgb(13.729858%,12.159729%,12.548828%);fill-opacity:1;" d="M 73.195312 1.378906 L 73.195312 111.449219 C 73.195312 112.230469 73.828125 112.863281 74.609375 112.863281 C 75.390625 112.863281 76.027344 112.230469 76.027344 111.449219 L 76.027344 1.378906 C 76.027344 0.597656 75.390625 -0.0351562 74.609375 -0.0351562 C 73.828125 -0.0351562 73.195312 0.597656 73.195312 1.378906 "/>
<path style=" stroke:none;fill-rule:nonzero;fill:rgb(13.729858%,12.159729%,12.548828%);fill-opacity:1;" d="M 31.035156 1.378906 L 31.035156 218.46875 C 31.035156 219.25 31.667969 219.882812 32.449219 219.882812 C 33.230469 219.882812 33.863281 219.25 33.863281 218.46875 L 33.863281 1.378906 C 33.863281 0.597656 33.230469 -0.0351562 32.449219 -0.0351562 C 31.667969 -0.0351562 31.035156 0.597656 31.035156 1.378906 "/>
<path style=" stroke:none;fill-rule:nonzero;fill:rgb(13.729858%,12.159729%,12.548828%);fill-opacity:1;" d="M 112.761719 1.378906 L 112.761719 246.664062 C 112.761719 247.445312 113.394531 248.078125 114.175781 248.078125 C 114.957031 248.078125 115.59375 247.445312 115.59375 246.664062 L 115.59375 1.378906 C 115.59375 0.597656 114.957031 -0.0351562 114.175781 -0.0351562 C 113.394531 -0.0351562 112.761719 0.597656 112.761719 1.378906 "/>
<path style=" stroke:none;fill-rule:nonzero;fill:rgb(13.729858%,12.159729%,12.548828%);fill-opacity:1;" d="M 248.21875 1.378906 L 248.21875 286.144531 C 248.21875 286.925781 248.855469 287.558594 249.636719 287.558594 C 250.417969 287.558594 251.050781 286.925781 251.050781 286.144531 L 251.050781 1.378906 C 251.050781 0.597656 250.417969 -0.0351562 249.636719 -0.0351562 C 248.855469 -0.0351562 248.21875 0.597656 248.21875 1.378906 "/>
<path style=" stroke:none;fill-rule:nonzero;fill:rgb(100%,100%,100%);fill-opacity:1;" d="M 41.089844 212.832031 L 37.996094 232.527344 L 56.324219 227.667969 Z M 41.089844 212.832031 "/>
<path style=" stroke:none;fill-rule:nonzero;fill:rgb(13.729858%,12.159729%,12.548828%);fill-opacity:1;" d="M 41.089844 212.832031 L 39.695312 212.613281 L 36.59375 232.304688 C 36.519531 232.777344 36.6875 233.257812 37.046875 233.578125 C 37.402344 233.898438 37.894531 234.015625 38.355469 233.894531 L 56.683594 229.035156 C 57.179688 228.902344 57.5625 228.519531 57.691406 228.027344 C 57.824219 227.535156 57.675781 227.011719 57.3125 226.65625 L 42.078125 211.816406 C 41.703125 211.449219 41.148438 211.324219 40.644531 211.488281 C 40.144531 211.65625 39.773438 212.089844 39.695312 212.613281 L 41.089844 212.832031 L 40.101562 213.84375 L 53.546875 226.941406 L 39.726562 230.597656 L 42.492188 213.050781 L 41.089844 212.832031 L 40.101562 213.84375 L 41.089844 212.832031 "/>
<path style=" stroke:none;fill-rule:nonzero;fill:rgb(100%,100%,100%);fill-opacity:1;" d="M 36.324219 210.953125 L 2.289062 245.851562 C 1.691406 246.464844 1.574219 247.367188 1.921875 248.09375 L 24.628906 243.945312 L 27.675781 243.390625 L 33.585938 242.308594 L 34.515625 236.378906 L 34.996094 233.320312 L 38.585938 210.546875 C 37.839844 210.195312 36.929688 210.335938 36.324219 210.953125 "/>
<path style=" stroke:none;fill-rule:nonzero;fill:rgb(13.729858%,12.159729%,12.548828%);fill-opacity:1;" d="M 36.324219 210.953125 L 35.308594 209.96875 L 1.273438 244.863281 C 0.632812 245.519531 0.308594 246.382812 0.3125 247.230469 C 0.3125 247.734375 0.421875 248.238281 0.648438 248.710938 C 0.925781 249.28125 1.550781 249.601562 2.179688 249.484375 L 24.882812 245.339844 L 27.929688 244.777344 L 33.839844 243.703125 C 34.429688 243.59375 34.886719 243.125 34.980469 242.527344 L 35.914062 236.597656 L 36.398438 233.539062 L 39.980469 210.761719 C 40.082031 210.140625 39.757812 209.527344 39.183594 209.257812 C 38.722656 209.050781 38.234375 208.941406 37.738281 208.941406 C 36.863281 208.9375 35.96875 209.285156 35.304688 209.96875 L 35.308594 209.96875 L 36.324219 210.953125 L 37.34375 211.9375 C 37.449219 211.828125 37.585938 211.773438 37.738281 211.773438 L 37.988281 211.828125 L 38.585938 210.546875 L 37.1875 210.324219 L 33.597656 233.101562 L 33.117188 236.160156 L 32.34375 241.097656 L 27.417969 241.996094 L 24.375 242.554688 L 1.667969 246.703125 L 1.921875 248.09375 L 3.199219 247.480469 C 3.164062 247.402344 3.140625 247.316406 3.140625 247.230469 C 3.144531 247.082031 3.191406 246.949219 3.304688 246.839844 L 37.339844 211.941406 L 37.34375 211.9375 L 36.324219 210.953125 "/>
<path style=" stroke:none;fill-rule:nonzero;fill:rgb(100%,100%,100%);fill-opacity:1;" d="M 24.007812 267.011719 L 58.042969 232.113281 C 58.601562 231.546875 58.742188 230.726562 58.476562 230.027344 L 37.511719 235.585938 L 36.226562 243.742188 C 36.179688 244.039062 36.042969 244.308594 35.839844 244.511719 C 35.640625 244.714844 35.375 244.863281 35.082031 244.914062 L 26.960938 246.402344 L 21.933594 267.496094 C 22.636719 267.742188 23.453125 267.582031 24.007812 267.011719 "/>
<path style=" stroke:none;fill-rule:nonzero;fill:rgb(13.729858%,12.159729%,12.548828%);fill-opacity:1;" d="M 24.007812 267.011719 L 25.023438 268 L 59.058594 233.101562 C 59.699219 232.445312 60.019531 231.582031 60.019531 230.734375 C 60.019531 230.324219 59.945312 229.917969 59.804688 229.53125 C 59.550781 228.851562 58.816406 228.472656 58.113281 228.660156 L 37.148438 234.21875 C 36.609375 234.363281 36.199219 234.8125 36.113281 235.363281 L 34.828125 243.523438 L 34.832031 243.519531 L 34.828125 243.523438 L 34.828125 243.527344 L 34.828125 243.523438 L 34.828125 243.527344 L 34.828125 243.523438 L 26.699219 245.007812 C 26.152344 245.105469 25.710938 245.527344 25.578125 246.074219 L 20.554688 267.167969 C 20.386719 267.875 20.78125 268.589844 21.464844 268.832031 C 21.832031 268.960938 22.210938 269.023438 22.589844 269.023438 C 23.46875 269.027344 24.359375 268.679688 25.019531 268.003906 L 25.023438 268 L 22.996094 266.023438 C 22.882812 266.136719 22.742188 266.191406 22.589844 266.191406 L 22.398438 266.160156 L 21.933594 267.496094 L 23.308594 267.824219 L 28.121094 247.625 L 35.335938 246.308594 C 35.925781 246.203125 36.457031 245.910156 36.855469 245.496094 C 37.257812 245.089844 37.535156 244.554688 37.625 243.964844 L 38.769531 236.714844 L 58.839844 231.394531 L 58.476562 230.027344 L 57.152344 230.523438 L 57.1875 230.734375 C 57.1875 230.882812 57.136719 231.015625 57.03125 231.125 L 22.996094 266.023438 L 24.007812 267.011719 "/>
<path style=" stroke:none;fill-rule:nonzero;fill:rgb(100%,100%,100%);fill-opacity:1;" d="M 19.519531 265.402344 L 23.910156 246.957031 L 4.265625 250.546875 Z M 19.519531 265.402344 "/>
<path style=" stroke:none;fill-rule:nonzero;fill:rgb(13.729858%,12.159729%,12.548828%);fill-opacity:1;" d="M 19.519531 265.402344 L 20.894531 265.730469 L 25.289062 247.285156 C 25.398438 246.820312 25.265625 246.332031 24.9375 245.984375 C 24.605469 245.636719 24.128906 245.480469 23.65625 245.5625 L 4.011719 249.152344 C 3.492188 249.25 3.066406 249.628906 2.910156 250.132812 C 2.757812 250.636719 2.898438 251.191406 3.277344 251.558594 L 18.53125 266.417969 C 18.890625 266.773438 19.421875 266.90625 19.910156 266.765625 C 20.402344 266.621094 20.777344 266.230469 20.894531 265.730469 L 19.519531 265.402344 L 20.507812 264.390625 L 7.21875 251.445312 L 22.03125 248.742188 L 18.140625 265.074219 L 19.519531 265.402344 L 20.507812 264.390625 L 19.519531 265.402344 "/>
<path style=" stroke:none;fill-rule:nonzero;fill:rgb(100%,100%,100%);fill-opacity:1;" d="M 123.503906 241.457031 L 120.402344 261.152344 L 138.734375 256.292969 Z M 123.503906 241.457031 "/>
<path style=" stroke:none;fill-rule:nonzero;fill:rgb(13.729858%,12.159729%,12.548828%);fill-opacity:1;" d="M 123.503906 241.457031 L 122.105469 241.238281 L 119.003906 260.929688 C 118.929688 261.402344 119.097656 261.882812 119.457031 262.203125 C 119.808594 262.523438 120.304688 262.640625 120.765625 262.519531 L 139.09375 257.660156 C 139.589844 257.527344 139.972656 257.144531 140.101562 256.652344 C 140.230469 256.160156 140.085938 255.636719 139.722656 255.28125 L 124.492188 240.441406 C 124.113281 240.074219 123.554688 239.949219 123.054688 240.113281 C 122.554688 240.28125 122.183594 240.714844 122.105469 241.238281 L 123.503906 241.457031 L 122.511719 242.46875 L 135.957031 255.566406 L 122.136719 259.226562 L 124.902344 241.675781 L 123.503906 241.457031 L 122.511719 242.46875 L 123.503906 241.457031 "/>
<path style=" stroke:none;fill-rule:nonzero;fill:rgb(100%,100%,100%);fill-opacity:1;" d="M 118.734375 239.578125 L 84.699219 274.476562 C 84.101562 275.089844 83.984375 275.992188 84.332031 276.71875 L 107.039062 272.570312 L 110.085938 272.015625 L 115.996094 270.933594 L 116.925781 265.003906 L 117.40625 261.945312 L 120.992188 239.171875 C 120.25 238.820312 119.339844 238.960938 118.734375 239.578125 "/>
<path style=" stroke:none;fill-rule:nonzero;fill:rgb(13.729858%,12.159729%,12.548828%);fill-opacity:1;" d="M 118.734375 239.578125 L 117.71875 238.59375 L 83.683594 273.488281 C 83.042969 274.144531 82.71875 275.007812 82.722656 275.859375 C 82.722656 276.359375 82.832031 276.867188 83.058594 277.335938 C 83.335938 277.90625 83.960938 278.226562 84.589844 278.113281 L 107.292969 273.964844 L 110.339844 273.40625 L 116.25 272.328125 C 116.839844 272.21875 117.300781 271.75 117.390625 271.15625 L 118.324219 265.222656 L 118.808594 262.164062 L 122.390625 239.386719 C 122.492188 238.765625 122.167969 238.152344 121.589844 237.886719 C 121.132812 237.675781 120.644531 237.566406 120.148438 237.566406 C 119.273438 237.5625 118.378906 237.910156 117.71875 238.59375 L 119.746094 240.566406 C 119.859375 240.453125 120 240.402344 120.148438 240.398438 L 120.398438 240.453125 L 120.992188 239.171875 L 119.597656 238.949219 L 116.007812 261.726562 L 115.527344 264.785156 L 114.75 269.722656 L 109.828125 270.621094 L 106.785156 271.183594 L 84.078125 275.328125 L 84.332031 276.71875 L 85.609375 276.105469 C 85.574219 276.027344 85.554688 275.941406 85.554688 275.859375 C 85.554688 275.707031 85.601562 275.574219 85.710938 275.464844 L 119.746094 240.566406 L 118.734375 239.578125 "/>
<path style=" stroke:none;fill-rule:nonzero;fill:rgb(100%,100%,100%);fill-opacity:1;" d="M 106.417969 295.636719 L 140.453125 260.738281 C 141.011719 260.171875 141.152344 259.351562 140.886719 258.652344 L 119.921875 264.210938 L 118.636719 272.367188 C 118.589844 272.664062 118.453125 272.933594 118.25 273.140625 C 118.050781 273.339844 117.785156 273.488281 117.492188 273.539062 L 109.363281 275.027344 L 104.34375 296.121094 C 105.046875 296.367188 105.863281 296.207031 106.417969 295.636719 "/>
<path style=" stroke:none;fill-rule:nonzero;fill:rgb(13.729858%,12.159729%,12.548828%);fill-opacity:1;" d="M 106.417969 295.636719 L 107.433594 296.625 L 141.46875 261.726562 C 142.109375 261.070312 142.433594 260.207031 142.429688 259.359375 C 142.429688 258.949219 142.355469 258.542969 142.214844 258.160156 C 141.957031 257.476562 141.226562 257.097656 140.523438 257.285156 L 119.558594 262.84375 C 119.019531 262.988281 118.609375 263.4375 118.523438 263.988281 L 117.238281 272.148438 L 117.242188 272.144531 L 117.238281 272.148438 L 117.238281 272.152344 L 117.238281 272.148438 L 117.238281 272.152344 L 117.238281 272.148438 L 109.109375 273.632812 C 108.5625 273.734375 108.117188 274.152344 107.988281 274.699219 L 102.964844 295.792969 C 102.792969 296.5 103.1875 297.21875 103.875 297.460938 C 104.238281 297.585938 104.621094 297.648438 105 297.648438 C 105.878906 297.652344 106.769531 297.304688 107.429688 296.628906 L 106.417969 295.636719 L 105.40625 294.648438 C 105.289062 294.765625 105.15625 294.816406 105 294.816406 L 104.808594 294.785156 L 104.34375 296.121094 L 105.71875 296.449219 L 110.53125 276.253906 L 117.746094 274.933594 C 118.335938 274.828125 118.867188 274.535156 119.265625 274.125 C 119.667969 273.714844 119.941406 273.183594 120.035156 272.59375 L 120.035156 272.589844 L 121.179688 265.339844 L 141.25 260.019531 L 140.886719 258.652344 L 139.5625 259.152344 L 139.597656 259.359375 C 139.597656 259.507812 139.546875 259.640625 139.441406 259.75 L 105.40625 294.648438 L 106.417969 295.636719 "/>
<path style=" stroke:none;fill-rule:nonzero;fill:rgb(100%,100%,100%);fill-opacity:1;" d="M 101.929688 294.027344 L 106.320312 275.582031 L 86.675781 279.171875 Z M 101.929688 294.027344 "/>
<path style=" stroke:none;fill-rule:nonzero;fill:rgb(13.729858%,12.159729%,12.548828%);fill-opacity:1;" d="M 101.929688 294.027344 L 103.304688 294.355469 L 107.699219 275.910156 C 107.808594 275.445312 107.675781 274.957031 107.347656 274.609375 C 107.015625 274.261719 106.535156 274.105469 106.066406 274.1875 L 86.421875 277.78125 C 85.902344 277.875 85.476562 278.253906 85.320312 278.757812 C 85.167969 279.261719 85.3125 279.816406 85.6875 280.183594 L 100.941406 295.042969 C 101.300781 295.398438 101.832031 295.53125 102.320312 295.390625 C 102.8125 295.25 103.183594 294.855469 103.304688 294.355469 L 101.929688 294.027344 L 102.917969 293.015625 L 89.628906 280.070312 L 104.4375 277.367188 L 100.550781 293.699219 L 101.929688 294.027344 L 102.917969 293.015625 L 101.929688 294.027344 "/>
<path style=" stroke:none;fill-rule:nonzero;fill:rgb(100%,100%,100%);fill-opacity:1;" d="M 263.671875 275.886719 L 260.570312 295.585938 L 278.898438 290.726562 Z M 263.671875 275.886719 "/>
<path style=" stroke:none;fill-rule:nonzero;fill:rgb(13.729858%,12.159729%,12.548828%);fill-opacity:1;" d="M 263.671875 275.886719 L 262.273438 275.671875 L 259.171875 295.363281 C 259.097656 295.835938 259.265625 296.3125 259.625 296.632812 C 259.976562 296.953125 260.472656 297.074219 260.933594 296.953125 L 279.261719 292.09375 C 279.753906 291.960938 280.140625 291.578125 280.269531 291.085938 C 280.398438 290.589844 280.253906 290.066406 279.886719 289.714844 L 264.660156 274.875 C 264.28125 274.507812 263.722656 274.378906 263.222656 274.546875 C 262.722656 274.710938 262.351562 275.148438 262.273438 275.671875 L 263.671875 275.886719 L 262.679688 276.902344 L 276.125 289.996094 L 262.304688 293.660156 L 265.070312 276.109375 L 263.671875 275.886719 L 262.679688 276.902344 L 263.671875 275.886719 "/>
<path style=" stroke:none;fill-rule:nonzero;fill:rgb(100%,100%,100%);fill-opacity:1;" d="M 258.902344 274.011719 L 224.867188 308.910156 C 224.269531 309.519531 224.152344 310.421875 224.5 311.152344 L 247.207031 307.003906 L 250.25 306.449219 L 256.160156 305.367188 L 257.09375 299.433594 L 257.574219 296.375 L 261.160156 273.601562 C 260.417969 273.253906 259.507812 273.394531 258.902344 274.011719 "/>
<path style=" stroke:none;fill-rule:nonzero;fill:rgb(13.729858%,12.159729%,12.548828%);fill-opacity:1;" d="M 258.902344 274.011719 L 257.886719 273.023438 L 223.851562 307.921875 C 223.210938 308.578125 222.886719 309.441406 222.890625 310.289062 C 222.890625 310.792969 223 311.300781 223.226562 311.769531 C 223.503906 312.339844 224.128906 312.660156 224.753906 312.546875 L 247.460938 308.398438 L 250.507812 307.839844 L 256.417969 306.761719 C 257.007812 306.648438 257.46875 306.183594 257.558594 305.589844 L 258.492188 299.65625 L 258.976562 296.597656 L 262.558594 273.820312 C 262.660156 273.199219 262.335938 272.585938 261.757812 272.320312 C 261.300781 272.105469 260.8125 272 260.316406 272 C 259.441406 271.996094 258.546875 272.34375 257.886719 273.023438 L 259.914062 275 C 260.027344 274.886719 260.167969 274.835938 260.316406 274.832031 L 260.566406 274.886719 L 261.160156 273.601562 L 259.765625 273.382812 L 256.175781 296.160156 L 255.695312 299.21875 L 254.917969 304.15625 L 249.996094 305.054688 L 246.953125 305.613281 L 224.246094 309.761719 L 224.5 311.152344 L 225.777344 310.539062 C 225.738281 310.460938 225.722656 310.375 225.722656 310.289062 C 225.722656 310.140625 225.769531 310.007812 225.878906 309.898438 L 259.914062 275 L 258.902344 274.011719 "/>
<path style=" stroke:none;fill-rule:nonzero;fill:rgb(100%,100%,100%);fill-opacity:1;" d="M 246.585938 330.066406 L 280.621094 295.171875 C 281.179688 294.605469 281.320312 293.78125 281.054688 293.085938 L 260.089844 298.644531 L 258.804688 306.800781 C 258.757812 307.097656 258.621094 307.363281 258.417969 307.570312 C 258.21875 307.773438 257.953125 307.921875 257.660156 307.972656 L 249.53125 309.457031 L 244.511719 330.554688 C 245.214844 330.800781 246.03125 330.640625 246.585938 330.066406 "/>
<g clip-path="url(#clip1)" clip-rule="nonzero">
<path style=" stroke:none;fill-rule:nonzero;fill:rgb(13.729858%,12.159729%,12.548828%);fill-opacity:1;" d="M 246.585938 330.066406 L 247.601562 331.054688 L 281.636719 296.160156 C 282.277344 295.503906 282.601562 294.640625 282.597656 293.792969 C 282.597656 293.378906 282.523438 292.976562 282.378906 292.59375 C 282.125 291.910156 281.394531 291.53125 280.691406 291.71875 L 259.726562 297.277344 C 259.183594 297.417969 258.777344 297.867188 258.691406 298.421875 L 257.40625 306.582031 L 257.410156 306.578125 L 257.40625 306.582031 L 249.277344 308.066406 C 248.730469 308.164062 248.285156 308.585938 248.15625 309.128906 L 243.132812 330.226562 C 242.960938 330.933594 243.355469 331.652344 244.042969 331.890625 C 244.40625 332.019531 244.789062 332.082031 245.167969 332.082031 C 246.042969 332.085938 246.9375 331.738281 247.597656 331.058594 L 246.585938 330.066406 L 245.574219 329.082031 C 245.457031 329.199219 245.320312 329.25 245.167969 329.25 L 244.976562 329.21875 L 244.511719 330.554688 L 245.886719 330.882812 L 250.699219 310.683594 L 257.914062 309.367188 C 258.503906 309.257812 259.035156 308.96875 259.433594 308.558594 C 259.835938 308.144531 260.105469 307.617188 260.203125 307.027344 L 260.203125 307.023438 L 261.347656 299.773438 L 281.417969 294.453125 L 281.054688 293.085938 L 279.730469 293.582031 L 279.765625 293.792969 C 279.765625 293.941406 279.714844 294.074219 279.609375 294.183594 L 245.574219 329.082031 L 246.585938 330.066406 "/>
</g>
<path style=" stroke:none;fill-rule:nonzero;fill:rgb(100%,100%,100%);fill-opacity:1;" d="M 242.097656 328.460938 L 246.488281 310.015625 L 226.84375 313.605469 Z M 242.097656 328.460938 "/>
<path style=" stroke:none;fill-rule:nonzero;fill:rgb(13.729858%,12.159729%,12.548828%);fill-opacity:1;" d="M 242.097656 328.460938 L 243.472656 328.789062 L 247.867188 310.34375 C 247.976562 309.878906 247.84375 309.386719 247.515625 309.042969 C 247.183594 308.695312 246.699219 308.535156 246.234375 308.621094 L 226.589844 312.214844 C 226.066406 312.308594 225.644531 312.6875 225.488281 313.191406 C 225.335938 313.695312 225.476562 314.25 225.855469 314.617188 L 241.109375 329.476562 C 241.46875 329.832031 242 329.964844 242.488281 329.820312 C 242.980469 329.679688 243.351562 329.285156 243.472656 328.789062 L 242.097656 328.460938 L 243.085938 327.449219 L 229.796875 314.503906 L 244.605469 311.796875 L 240.71875 328.132812 L 242.097656 328.460938 L 243.085938 327.449219 L 242.097656 328.460938 "/>
<path style=" stroke:none;fill-rule:nonzero;fill:rgb(100%,100%,100%);fill-opacity:1;" d="M 171.644531 42.371094 L 168.542969 62.066406 L 186.871094 57.210938 Z M 171.644531 42.371094 "/>
<path style=" stroke:none;fill-rule:nonzero;fill:rgb(13.729858%,12.159729%,12.548828%);fill-opacity:1;" d="M 171.644531 42.371094 L 170.242188 42.152344 L 167.140625 61.84375 C 167.066406 62.316406 167.238281 62.796875 167.59375 63.117188 C 167.949219 63.4375 168.441406 63.554688 168.902344 63.433594 L 187.230469 58.578125 C 187.726562 58.445312 188.109375 58.0625 188.238281 57.566406 C 188.367188 57.074219 188.222656 56.550781 187.859375 56.195312 L 172.632812 41.355469 C 172.25 40.988281 171.695312 40.863281 171.195312 41.027344 C 170.691406 41.195312 170.324219 41.628906 170.242188 42.152344 L 171.644531 42.371094 L 170.652344 43.382812 L 184.09375 56.480469 L 170.277344 60.144531 L 173.039062 42.589844 L 171.644531 42.371094 L 170.652344 43.382812 L 171.644531 42.371094 "/>
<path style=" stroke:none;fill-rule:nonzero;fill:rgb(100%,100%,100%);fill-opacity:1;" d="M 166.871094 40.496094 L 132.835938 75.390625 C 132.238281 76.003906 132.121094 76.90625 132.472656 77.636719 L 155.175781 73.484375 L 158.222656 72.929688 L 164.132812 71.851562 L 165.066406 65.921875 L 165.546875 62.859375 L 169.132812 40.085938 C 168.386719 39.734375 167.476562 39.875 166.871094 40.496094 "/>
<path style=" stroke:none;fill-rule:nonzero;fill:rgb(13.729858%,12.159729%,12.548828%);fill-opacity:1;" d="M 166.871094 40.496094 L 165.859375 39.507812 L 131.824219 74.402344 C 131.179688 75.058594 130.855469 75.921875 130.859375 76.773438 C 130.859375 77.273438 130.972656 77.777344 131.195312 78.25 C 131.472656 78.820312 132.097656 79.140625 132.726562 79.023438 L 155.429688 74.878906 L 158.476562 74.324219 L 164.386719 73.242188 C 164.976562 73.132812 165.4375 72.664062 165.53125 72.070312 L 166.464844 66.136719 L 166.945312 63.078125 L 170.53125 40.304688 C 170.628906 39.679688 170.304688 39.066406 169.730469 38.804688 C 169.273438 38.589844 168.78125 38.480469 168.289062 38.480469 C 167.410156 38.480469 166.519531 38.824219 165.859375 39.507812 L 167.886719 41.480469 C 167.996094 41.367188 168.136719 41.316406 168.289062 41.3125 L 168.535156 41.367188 L 169.132812 40.085938 L 167.734375 39.863281 L 164.148438 62.640625 L 163.664062 65.699219 L 162.890625 70.636719 L 157.96875 71.535156 L 154.921875 72.09375 L 132.21875 76.242188 L 132.472656 77.636719 L 133.746094 77.019531 C 133.710938 76.941406 133.691406 76.859375 133.691406 76.773438 C 133.691406 76.621094 133.742188 76.492188 133.851562 76.378906 L 167.886719 41.480469 L 166.871094 40.496094 "/>
<path style=" stroke:none;fill-rule:nonzero;fill:rgb(100%,100%,100%);fill-opacity:1;" d="M 154.558594 96.550781 L 188.59375 61.652344 C 189.148438 61.085938 189.289062 60.269531 189.023438 59.566406 L 168.058594 65.125 L 166.777344 73.285156 C 166.726562 73.578125 166.59375 73.847656 166.390625 74.054688 C 166.191406 74.257812 165.925781 74.402344 165.628906 74.457031 L 157.503906 75.941406 L 152.480469 97.035156 C 153.1875 97.285156 154 97.121094 154.558594 96.550781 "/>
<path style=" stroke:none;fill-rule:nonzero;fill:rgb(13.729858%,12.159729%,12.548828%);fill-opacity:1;" d="M 154.558594 96.550781 L 155.570312 97.539062 L 189.605469 62.640625 C 190.25 61.984375 190.574219 61.121094 190.570312 60.277344 C 190.570312 59.863281 190.496094 59.457031 190.351562 59.074219 C 190.097656 58.390625 189.363281 58.011719 188.664062 58.199219 L 167.699219 63.757812 C 167.15625 63.902344 166.746094 64.351562 166.664062 64.902344 L 165.375 73.0625 L 165.378906 73.058594 L 165.375 73.0625 L 165.375 73.066406 L 165.375 73.0625 L 165.375 73.066406 L 165.375 73.0625 L 157.25 74.546875 C 156.699219 74.652344 156.257812 75.066406 156.128906 75.613281 L 151.101562 96.707031 C 150.933594 97.417969 151.328125 98.136719 152.011719 98.371094 C 152.378906 98.5 152.757812 98.5625 153.136719 98.5625 C 154.015625 98.566406 154.90625 98.21875 155.566406 97.542969 L 155.570312 97.539062 L 153.542969 95.5625 C 153.429688 95.679688 153.289062 95.730469 153.136719 95.730469 L 152.945312 95.699219 L 152.480469 97.035156 L 153.855469 97.363281 L 158.667969 77.167969 L 165.882812 75.847656 C 166.472656 75.742188 167.003906 75.449219 167.402344 75.042969 C 167.804688 74.628906 168.078125 74.09375 168.175781 73.507812 L 168.175781 73.503906 L 169.316406 66.257812 L 189.390625 60.933594 L 189.023438 59.566406 L 187.699219 60.0625 L 187.738281 60.277344 C 187.738281 60.421875 187.6875 60.554688 187.578125 60.664062 L 153.542969 95.5625 L 154.558594 96.550781 "/>
<path style=" stroke:none;fill-rule:nonzero;fill:rgb(100%,100%,100%);fill-opacity:1;" d="M 150.066406 94.945312 L 154.457031 76.496094 L 134.8125 80.085938 Z M 150.066406 94.945312 "/>
<path style=" stroke:none;fill-rule:nonzero;fill:rgb(13.729858%,12.159729%,12.548828%);fill-opacity:1;" d="M 150.066406 94.945312 L 151.441406 95.273438 L 155.835938 76.824219 C 155.949219 76.359375 155.816406 75.871094 155.488281 75.523438 C 155.15625 75.175781 154.671875 75.019531 154.203125 75.105469 L 134.558594 78.695312 C 134.039062 78.789062 133.613281 79.167969 133.460938 79.671875 C 133.304688 80.179688 133.449219 80.730469 133.824219 81.097656 L 149.078125 95.957031 C 149.441406 96.316406 149.972656 96.445312 150.457031 96.304688 C 150.953125 96.164062 151.324219 95.769531 151.441406 95.273438 L 150.066406 94.945312 L 151.054688 93.929688 L 137.765625 80.984375 L 152.578125 78.28125 L 148.6875 94.617188 L 150.066406 94.945312 L 151.054688 93.929688 L 150.066406 94.945312 "/>
<path style=" stroke:none;fill-rule:nonzero;fill:rgb(100%,100%,100%);fill-opacity:1;" d="M 355.722656 212.59375 L 352.625 232.285156 L 370.953125 227.429688 Z M 355.722656 212.59375 "/>
<path style=" stroke:none;fill-rule:nonzero;fill:rgb(13.729858%,12.159729%,12.548828%);fill-opacity:1;" d="M 355.722656 212.59375 L 354.328125 212.375 L 351.226562 232.070312 C 351.152344 232.542969 351.320312 233.019531 351.675781 233.339844 C 352.03125 233.65625 352.523438 233.78125 352.988281 233.65625 L 371.316406 228.796875 C 371.808594 228.667969 372.195312 228.285156 372.324219 227.792969 C 372.453125 227.296875 372.304688 226.773438 371.941406 226.417969 L 356.710938 211.582031 C 356.332031 211.210938 355.78125 211.082031 355.277344 211.253906 C 354.777344 211.417969 354.40625 211.855469 354.328125 212.375 L 355.722656 212.59375 L 354.734375 213.609375 L 368.175781 226.703125 L 354.359375 230.363281 L 357.121094 212.816406 L 355.722656 212.59375 L 354.734375 213.609375 L 355.722656 212.59375 "/>
<path style=" stroke:none;fill-rule:nonzero;fill:rgb(100%,100%,100%);fill-opacity:1;" d="M 350.953125 210.714844 L 316.917969 245.613281 C 316.320312 246.226562 316.203125 247.125 316.550781 247.855469 L 339.257812 243.710938 L 342.304688 243.152344 L 348.214844 242.070312 L 349.144531 236.140625 L 349.628906 233.082031 L 353.214844 210.304688 C 352.472656 209.960938 351.558594 210.101562 350.953125 210.714844 "/>
<path style=" stroke:none;fill-rule:nonzero;fill:rgb(13.729858%,12.159729%,12.548828%);fill-opacity:1;" d="M 350.953125 210.714844 L 349.9375 209.726562 L 315.902344 244.625 C 315.261719 245.28125 314.9375 246.144531 314.941406 246.992188 C 314.941406 247.5 315.050781 248.003906 315.28125 248.472656 C 315.558594 249.046875 316.179688 249.363281 316.808594 249.25 L 339.511719 245.101562 L 342.5625 244.542969 L 348.46875 243.464844 C 349.0625 243.355469 349.519531 242.890625 349.609375 242.292969 L 350.542969 236.363281 L 351.027344 233.304688 L 354.613281 210.527344 C 354.710938 209.90625 354.386719 209.292969 353.8125 209.023438 C 353.351562 208.808594 352.863281 208.707031 352.371094 208.707031 C 351.496094 208.703125 350.601562 209.050781 349.9375 209.730469 L 349.9375 209.726562 L 351.96875 211.703125 C 352.082031 211.59375 352.21875 211.535156 352.371094 211.535156 L 352.617188 211.589844 L 353.214844 210.304688 L 351.816406 210.085938 L 348.226562 232.863281 L 347.75 235.925781 L 346.972656 240.863281 L 342.046875 241.761719 L 339.003906 242.316406 L 316.296875 246.46875 L 316.550781 247.855469 L 317.828125 247.246094 C 317.792969 247.167969 317.773438 247.082031 317.773438 246.992188 C 317.773438 246.847656 317.824219 246.714844 317.929688 246.601562 L 351.96875 211.703125 L 350.953125 210.714844 "/>
<path style=" stroke:none;fill-rule:nonzero;fill:rgb(100%,100%,100%);fill-opacity:1;" d="M 338.636719 266.773438 L 372.671875 231.878906 C 373.230469 231.3125 373.371094 230.488281 373.109375 229.792969 L 352.144531 235.347656 L 350.855469 243.507812 C 350.808594 243.800781 350.671875 244.070312 350.472656 244.273438 C 350.269531 244.480469 350.007812 244.625 349.710938 244.679688 L 341.585938 246.164062 L 336.5625 267.261719 C 337.265625 267.503906 338.085938 267.34375 338.636719 266.773438 "/>
<path style=" stroke:none;fill-rule:nonzero;fill:rgb(13.729858%,12.159729%,12.548828%);fill-opacity:1;" d="M 338.636719 266.773438 L 339.652344 267.761719 L 373.6875 232.867188 C 374.328125 232.210938 374.652344 231.34375 374.648438 230.496094 C 374.648438 230.082031 374.574219 229.679688 374.433594 229.292969 C 374.179688 228.617188 373.449219 228.238281 372.742188 228.425781 L 351.777344 233.976562 C 351.238281 234.121094 350.832031 234.574219 350.742188 235.128906 L 349.460938 243.285156 L 349.460938 243.28125 L 349.460938 243.285156 L 349.457031 243.285156 L 349.460938 243.289062 L 349.460938 243.285156 L 349.457031 243.285156 L 349.460938 243.289062 L 349.460938 243.285156 L 341.332031 244.773438 C 340.78125 244.871094 340.339844 245.292969 340.207031 245.835938 L 335.183594 266.933594 C 335.015625 267.636719 335.410156 268.355469 336.09375 268.59375 C 336.460938 268.722656 336.839844 268.785156 337.21875 268.785156 C 338.097656 268.785156 338.988281 268.441406 339.652344 267.761719 L 338.636719 266.773438 L 337.628906 265.785156 C 337.511719 265.902344 337.375 265.953125 337.21875 265.957031 L 337.03125 265.921875 L 336.5625 267.261719 L 337.941406 267.585938 L 342.75 247.386719 L 349.964844 246.074219 C 350.554688 245.964844 351.085938 245.675781 351.488281 245.261719 C 351.886719 244.851562 352.164062 244.320312 352.253906 243.730469 L 352.253906 243.726562 L 353.398438 236.480469 L 373.46875 231.160156 L 373.109375 229.792969 L 371.78125 230.285156 L 371.820312 230.496094 C 371.816406 230.648438 371.769531 230.78125 371.660156 230.890625 L 337.625 265.789062 L 337.628906 265.785156 L 338.636719 266.773438 "/>
<path style=" stroke:none;fill-rule:nonzero;fill:rgb(100%,100%,100%);fill-opacity:1;" d="M 334.148438 265.167969 L 338.539062 246.722656 L 318.898438 250.308594 Z M 334.148438 265.167969 "/>
<path style=" stroke:none;fill-rule:nonzero;fill:rgb(13.729858%,12.159729%,12.548828%);fill-opacity:1;" d="M 334.148438 265.167969 L 335.527344 265.496094 L 339.917969 247.050781 C 340.027344 246.585938 339.894531 246.09375 339.566406 245.75 C 339.238281 245.402344 338.757812 245.242188 338.285156 245.328125 L 318.644531 248.917969 C 318.125 249.011719 317.695312 249.394531 317.539062 249.898438 C 317.390625 250.402344 317.53125 250.957031 317.910156 251.324219 L 333.160156 266.179688 C 333.523438 266.535156 334.050781 266.667969 334.542969 266.527344 C 335.03125 266.382812 335.40625 265.992188 335.527344 265.496094 L 334.148438 265.167969 L 335.136719 264.15625 L 321.847656 251.210938 L 336.660156 248.5 L 332.769531 264.839844 L 334.148438 265.167969 L 335.136719 264.15625 L 334.148438 265.167969 "/>
<path style=" stroke:none;fill-rule:nonzero;fill:rgb(100%,100%,100%);fill-opacity:1;" d="M 66.953125 100.984375 L 70.054688 120.679688 L 51.726562 115.824219 Z M 66.953125 100.984375 "/>
<path style=" stroke:none;fill-rule:nonzero;fill:rgb(13.729858%,12.159729%,12.548828%);fill-opacity:1;" d="M 66.953125 100.984375 L 65.554688 101.203125 L 68.316406 118.757812 L 54.5 115.09375 L 67.941406 101.996094 L 66.953125 100.984375 L 65.554688 101.203125 L 66.953125 100.984375 L 65.964844 99.96875 L 50.738281 114.808594 C 50.371094 115.164062 50.222656 115.6875 50.351562 116.179688 C 50.484375 116.675781 50.867188 117.0625 51.359375 117.191406 L 69.691406 122.046875 C 70.152344 122.167969 70.648438 122.050781 71 121.730469 C 71.355469 121.410156 71.523438 120.929688 71.449219 120.457031 L 68.355469 100.765625 C 68.269531 100.242188 67.902344 99.808594 67.398438 99.640625 C 66.902344 99.476562 66.34375 99.601562 65.964844 99.96875 L 66.953125 100.984375 "/>
<path style=" stroke:none;fill-rule:nonzero;fill:rgb(100%,100%,100%);fill-opacity:1;" d="M 71.722656 99.109375 L 105.757812 134.003906 C 106.355469 134.617188 106.472656 135.519531 106.125 136.25 L 83.417969 132.097656 L 80.375 131.542969 L 74.464844 130.464844 L 73.53125 124.535156 L 73.046875 121.476562 L 69.464844 98.699219 C 70.207031 98.351562 71.117188 98.488281 71.722656 99.109375 "/>
<path style=" stroke:none;fill-rule:nonzero;fill:rgb(13.729858%,12.159729%,12.548828%);fill-opacity:1;" d="M 71.722656 99.109375 L 70.710938 100.09375 L 104.746094 134.992188 C 104.851562 135.101562 104.898438 135.234375 104.902344 135.386719 L 104.84375 135.640625 L 106.125 136.25 L 106.378906 134.855469 L 83.671875 130.710938 L 80.628906 130.148438 L 75.707031 129.25 L 74.929688 124.3125 L 74.449219 121.253906 L 70.859375 98.476562 L 69.464844 98.699219 L 70.0625 99.980469 L 70.304688 99.925781 C 70.460938 99.929688 70.59375 99.980469 70.710938 100.09375 L 71.722656 99.109375 L 72.734375 98.121094 C 72.074219 97.4375 71.183594 97.097656 70.304688 97.097656 C 69.8125 97.097656 69.320312 97.203125 68.863281 97.417969 C 68.292969 97.683594 67.964844 98.296875 68.066406 98.917969 L 71.648438 121.691406 L 72.132812 124.75 L 73.066406 130.683594 C 73.15625 131.277344 73.613281 131.746094 74.207031 131.855469 L 80.121094 132.9375 L 83.164062 133.492188 L 105.871094 137.640625 C 106.5 137.757812 107.128906 137.433594 107.402344 136.851562 C 107.621094 136.390625 107.734375 135.890625 107.734375 135.386719 C 107.734375 134.539062 107.414062 133.671875 106.773438 133.015625 L 72.738281 98.121094 L 72.734375 98.121094 L 71.722656 99.109375 "/>
<path style=" stroke:none;fill-rule:nonzero;fill:rgb(100%,100%,100%);fill-opacity:1;" d="M 84.039062 155.164062 L 50.003906 120.265625 C 49.445312 119.699219 49.304688 118.882812 49.570312 118.179688 L 70.53125 123.738281 L 71.820312 131.898438 C 71.867188 132.195312 72.003906 132.460938 72.207031 132.667969 C 72.40625 132.875 72.667969 133.015625 72.964844 133.070312 L 81.089844 134.554688 L 86.113281 155.648438 C 85.410156 155.898438 84.59375 155.734375 84.039062 155.164062 "/>
<path style=" stroke:none;fill-rule:nonzero;fill:rgb(13.729858%,12.159729%,12.548828%);fill-opacity:1;" d="M 84.039062 155.164062 L 85.050781 154.175781 L 51.015625 119.28125 C 50.90625 119.167969 50.859375 119.035156 50.855469 118.890625 L 50.890625 118.691406 L 49.570312 118.179688 L 49.207031 119.546875 L 69.277344 124.871094 L 70.421875 132.117188 L 70.421875 132.121094 C 70.515625 132.710938 70.789062 133.242188 71.191406 133.65625 L 71.1875 133.65625 C 71.589844 134.0625 72.121094 134.355469 72.710938 134.460938 L 79.925781 135.78125 L 84.734375 155.976562 L 86.113281 155.648438 L 85.648438 154.3125 L 85.453125 154.347656 C 85.304688 154.347656 85.164062 154.289062 85.050781 154.179688 L 85.050781 154.175781 L 84.039062 155.164062 L 83.019531 156.152344 C 83.683594 156.832031 84.578125 157.179688 85.453125 157.175781 C 85.835938 157.175781 86.214844 157.113281 86.578125 156.988281 C 87.265625 156.75 87.660156 156.03125 87.492188 155.324219 L 82.46875 134.226562 C 82.339844 133.683594 81.894531 133.265625 81.34375 133.160156 L 73.21875 131.679688 L 73.21875 131.671875 L 73.21875 131.679688 L 71.933594 123.515625 C 71.84375 122.96875 71.441406 122.515625 70.898438 122.371094 L 49.933594 116.8125 C 49.234375 116.628906 48.507812 117.003906 48.25 117.675781 C 48.097656 118.066406 48.023438 118.480469 48.023438 118.890625 C 48.023438 119.738281 48.347656 120.601562 48.988281 121.257812 L 48.988281 121.253906 L 83.023438 156.152344 L 83.019531 156.152344 L 84.039062 155.164062 "/>
<path style=" stroke:none;fill-rule:nonzero;fill:rgb(100%,100%,100%);fill-opacity:1;" d="M 88.53125 153.558594 L 84.136719 135.109375 L 103.777344 138.699219 Z M 88.53125 153.558594 "/>
<path style=" stroke:none;fill-rule:nonzero;fill:rgb(13.729858%,12.159729%,12.548828%);fill-opacity:1;" d="M 88.53125 153.558594 L 89.910156 153.230469 L 86.019531 136.894531 L 100.828125 139.597656 L 87.542969 152.542969 L 88.53125 153.558594 L 89.910156 153.230469 L 88.53125 153.558594 L 89.515625 154.570312 L 104.765625 139.710938 C 105.148438 139.34375 105.289062 138.796875 105.136719 138.285156 C 104.980469 137.78125 104.554688 137.402344 104.039062 137.308594 L 84.390625 133.722656 C 83.921875 133.632812 83.4375 133.789062 83.109375 134.136719 C 82.78125 134.484375 82.648438 134.972656 82.757812 135.4375 L 87.152344 153.886719 C 87.273438 154.382812 87.644531 154.777344 88.136719 154.917969 C 88.625 155.0625 89.152344 154.929688 89.515625 154.570312 L 88.53125 153.558594 "/>
<path style=" stroke:none;fill-rule:nonzero;fill:rgb(100%,100%,100%);fill-opacity:1;" d="M 191.425781 124.003906 L 194.523438 143.699219 L 176.191406 138.84375 Z M 191.425781 124.003906 "/>
<path style=" stroke:none;fill-rule:nonzero;fill:rgb(13.729858%,12.159729%,12.548828%);fill-opacity:1;" d="M 191.425781 124.003906 L 190.023438 124.226562 L 192.785156 141.777344 L 178.96875 138.113281 L 192.414062 125.015625 L 191.425781 124.003906 L 190.023438 124.226562 L 191.425781 124.003906 L 190.4375 122.992188 L 175.207031 137.828125 C 174.839844 138.183594 174.695312 138.707031 174.824219 139.199219 C 174.953125 139.695312 175.335938 140.078125 175.832031 140.210938 L 194.160156 145.066406 C 194.621094 145.1875 195.117188 145.070312 195.472656 144.75 C 195.828125 144.429688 195.996094 143.949219 195.921875 143.480469 L 192.820312 123.785156 C 192.742188 123.261719 192.371094 122.828125 191.871094 122.664062 C 191.371094 122.496094 190.8125 122.621094 190.4375 122.992188 L 191.425781 124.003906 "/>
<path style=" stroke:none;fill-rule:nonzero;fill:rgb(100%,100%,100%);fill-opacity:1;" d="M 196.191406 122.128906 L 230.226562 157.023438 C 230.824219 157.636719 230.941406 158.539062 230.59375 159.269531 L 207.886719 155.121094 L 204.839844 154.5625 L 198.933594 153.484375 L 198.003906 147.550781 L 197.519531 144.492188 L 193.933594 121.71875 C 194.675781 121.367188 195.585938 121.507812 196.191406 122.128906 "/>
<path style=" stroke:none;fill-rule:nonzero;fill:rgb(13.729858%,12.159729%,12.548828%);fill-opacity:1;" d="M 196.191406 122.128906 L 195.179688 123.117188 L 229.214844 158.011719 C 229.320312 158.121094 229.371094 158.253906 229.371094 158.402344 L 229.3125 158.660156 L 230.59375 159.269531 L 230.847656 157.875 L 208.144531 153.730469 L 200.175781 152.269531 L 199.398438 147.332031 L 198.917969 144.273438 L 195.328125 121.496094 L 193.933594 121.71875 L 194.53125 123 L 194.777344 122.945312 C 194.925781 122.945312 195.0625 123 195.179688 123.117188 L 196.191406 122.128906 L 197.207031 121.136719 C 196.542969 120.457031 195.648438 120.113281 194.777344 120.117188 C 194.28125 120.117188 193.792969 120.222656 193.332031 120.4375 C 192.761719 120.703125 192.433594 121.316406 192.535156 121.9375 L 196.117188 144.714844 L 196.601562 147.773438 L 197.535156 153.703125 C 197.625 154.296875 198.082031 154.765625 198.675781 154.875 L 204.585938 155.957031 L 207.632812 156.511719 L 230.335938 160.660156 C 230.96875 160.777344 231.59375 160.453125 231.871094 159.875 C 232.09375 159.414062 232.203125 158.910156 232.203125 158.402344 C 232.207031 157.558594 231.882812 156.691406 231.242188 156.039062 L 197.207031 121.140625 L 197.207031 121.136719 L 196.191406 122.128906 "/>
<path style=" stroke:none;fill-rule:nonzero;fill:rgb(100%,100%,100%);fill-opacity:1;" d="M 208.507812 178.183594 L 174.472656 143.289062 C 173.917969 142.71875 173.773438 141.902344 174.039062 141.203125 L 195.003906 146.757812 L 196.289062 154.917969 C 196.335938 155.210938 196.476562 155.480469 196.675781 155.6875 C 196.875 155.894531 197.140625 156.039062 197.433594 156.089844 L 205.5625 157.574219 L 210.585938 178.671875 C 209.878906 178.917969 209.0625 178.753906 208.507812 178.183594 "/>
<path style=" stroke:none;fill-rule:nonzero;fill:rgb(13.729858%,12.159729%,12.548828%);fill-opacity:1;" d="M 208.507812 178.183594 L 209.519531 177.195312 L 175.484375 142.300781 C 175.378906 142.1875 175.328125 142.054688 175.328125 141.910156 L 175.359375 141.710938 L 174.039062 141.203125 L 173.675781 142.570312 L 193.75 147.890625 L 194.890625 155.136719 L 194.890625 155.140625 C 194.984375 155.726562 195.257812 156.261719 195.660156 156.675781 L 195.660156 156.671875 C 196.0625 157.082031 196.589844 157.375 197.183594 157.480469 L 204.398438 158.800781 L 209.207031 179 L 210.585938 178.671875 L 210.117188 177.332031 L 209.925781 177.367188 C 209.769531 177.367188 209.636719 177.3125 209.523438 177.199219 L 209.519531 177.195312 L 207.492188 179.171875 C 208.15625 179.851562 209.046875 180.199219 209.925781 180.195312 C 210.304688 180.195312 210.6875 180.132812 211.050781 180.007812 C 211.738281 179.769531 212.128906 179.050781 211.960938 178.34375 L 206.9375 157.246094 C 206.808594 156.699219 206.363281 156.28125 205.816406 156.179688 L 197.6875 154.695312 L 197.6875 154.699219 L 197.6875 154.695312 L 197.6875 154.699219 L 197.6875 154.691406 L 197.6875 154.695312 L 196.402344 146.539062 C 196.3125 145.988281 195.90625 145.535156 195.367188 145.390625 L 174.402344 139.835938 C 173.703125 139.648438 172.976562 140.023438 172.714844 140.691406 C 172.566406 141.085938 172.496094 141.5 172.496094 141.910156 C 172.492188 142.757812 172.816406 143.621094 173.457031 144.277344 L 173.457031 144.273438 L 207.492188 179.171875 L 208.507812 178.183594 "/>
<path style=" stroke:none;fill-rule:nonzero;fill:rgb(100%,100%,100%);fill-opacity:1;" d="M 213 176.578125 L 208.605469 158.128906 L 228.25 161.71875 Z M 213 176.578125 "/>
<path style=" stroke:none;fill-rule:nonzero;fill:rgb(13.729858%,12.159729%,12.548828%);fill-opacity:1;" d="M 213 176.578125 L 214.375 176.25 L 210.488281 159.914062 L 225.296875 162.617188 L 212.007812 175.5625 L 213 176.578125 L 214.375 176.25 L 213 176.578125 L 213.988281 177.589844 L 229.238281 162.734375 C 229.617188 162.363281 229.757812 161.8125 229.605469 161.308594 C 229.449219 160.800781 229.023438 160.421875 228.503906 160.328125 L 208.859375 156.738281 C 208.390625 156.652344 207.910156 156.8125 207.578125 157.15625 C 207.25 157.503906 207.117188 157.992188 207.230469 158.457031 L 211.621094 176.90625 C 211.742188 177.402344 212.117188 177.796875 212.605469 177.9375 C 213.097656 178.082031 213.621094 177.949219 213.988281 177.589844 L 213 176.578125 "/>
<path style=" stroke:none;fill-rule:nonzero;fill:rgb(100%,100%,100%);fill-opacity:1;" d="M 286.441406 97.855469 L 289.542969 117.546875 L 271.210938 112.691406 Z M 286.441406 97.855469 "/>
<path style=" stroke:none;fill-rule:nonzero;fill:rgb(13.729858%,12.159729%,12.548828%);fill-opacity:1;" d="M 286.441406 97.855469 L 285.042969 98.074219 L 287.804688 115.625 L 273.988281 111.960938 L 287.429688 98.867188 L 286.441406 97.855469 L 285.042969 98.074219 L 286.441406 97.855469 L 285.453125 96.835938 L 270.222656 111.675781 C 269.859375 112.035156 269.710938 112.554688 269.839844 113.046875 C 269.96875 113.542969 270.355469 113.929688 270.847656 114.058594 L 289.175781 118.914062 C 289.640625 119.035156 290.136719 118.917969 290.488281 118.597656 C 290.84375 118.277344 291.011719 117.796875 290.9375 117.328125 L 287.835938 97.632812 C 287.757812 97.109375 287.386719 96.675781 286.886719 96.511719 C 286.386719 96.34375 285.832031 96.46875 285.453125 96.835938 L 286.441406 97.855469 "/>
<path style=" stroke:none;fill-rule:nonzero;fill:rgb(100%,100%,100%);fill-opacity:1;" d="M 291.210938 95.976562 L 325.246094 130.871094 C 325.84375 131.484375 325.960938 132.386719 325.613281 133.117188 L 302.90625 128.96875 L 299.859375 128.410156 L 293.949219 127.332031 L 293.019531 121.402344 L 292.535156 118.34375 L 288.953125 95.566406 C 289.691406 95.21875 290.605469 95.355469 291.210938 95.976562 "/>
<path style=" stroke:none;fill-rule:nonzero;fill:rgb(13.729858%,12.159729%,12.548828%);fill-opacity:1;" d="M 291.210938 95.976562 L 290.199219 96.964844 L 324.234375 131.859375 C 324.339844 131.96875 324.386719 132.101562 324.390625 132.253906 L 324.332031 132.511719 L 325.613281 133.117188 L 325.867188 131.722656 L 303.160156 127.578125 L 300.117188 127.019531 L 295.195312 126.117188 L 294.414062 121.179688 L 293.9375 118.121094 L 290.347656 95.34375 L 288.953125 95.566406 L 289.546875 96.847656 L 289.792969 96.792969 C 289.941406 96.796875 290.082031 96.847656 290.199219 96.964844 L 292.222656 94.988281 C 291.5625 94.308594 290.667969 93.964844 289.792969 93.964844 C 289.300781 93.964844 288.808594 94.070312 288.351562 94.285156 C 287.78125 94.550781 287.453125 95.164062 287.550781 95.785156 L 291.136719 118.5625 L 291.621094 121.625 L 292.554688 127.550781 C 292.644531 128.144531 293.101562 128.617188 293.695312 128.722656 L 299.605469 129.804688 L 302.652344 130.359375 L 325.355469 134.507812 C 325.988281 134.625 326.613281 134.304688 326.890625 133.726562 C 327.109375 133.261719 327.222656 132.757812 327.222656 132.253906 C 327.222656 131.40625 326.902344 130.542969 326.261719 129.886719 L 292.226562 94.988281 L 292.222656 94.988281 L 291.210938 95.976562 "/>
<path style=" stroke:none;fill-rule:nonzero;fill:rgb(100%,100%,100%);fill-opacity:1;" d="M 303.527344 152.03125 L 269.492188 117.136719 C 268.933594 116.566406 268.792969 115.75 269.058594 115.050781 L 290.019531 120.605469 L 291.308594 128.765625 C 291.355469 129.0625 291.492188 129.328125 291.691406 129.535156 C 291.894531 129.742188 292.15625 129.886719 292.453125 129.9375 L 300.578125 131.421875 L 305.601562 152.519531 C 304.898438 152.765625 304.078125 152.601562 303.527344 152.03125 "/>
<path style=" stroke:none;fill-rule:nonzero;fill:rgb(13.729858%,12.159729%,12.548828%);fill-opacity:1;" d="M 303.527344 152.03125 L 304.539062 151.042969 L 270.503906 116.148438 L 270.5 116.148438 C 270.394531 116.035156 270.347656 115.902344 270.34375 115.757812 L 270.378906 115.558594 L 269.058594 115.050781 L 268.695312 116.417969 L 288.765625 121.738281 L 289.910156 128.984375 L 289.910156 128.988281 C 290.003906 129.578125 290.277344 130.113281 290.679688 130.523438 L 290.675781 130.523438 C 291.078125 130.933594 291.609375 131.222656 292.199219 131.328125 L 299.414062 132.648438 L 304.222656 152.847656 L 305.601562 152.519531 L 305.136719 151.183594 L 304.941406 151.21875 C 304.789062 151.214844 304.652344 151.160156 304.539062 151.046875 L 304.539062 151.042969 L 303.527344 152.03125 L 302.507812 153.019531 C 303.171875 153.699219 304.066406 154.046875 304.941406 154.046875 C 305.320312 154.046875 305.703125 153.980469 306.066406 153.855469 C 306.753906 153.617188 307.148438 152.898438 306.980469 152.191406 L 301.957031 131.09375 C 301.828125 130.550781 301.382812 130.132812 300.832031 130.03125 L 292.707031 128.546875 L 292.703125 128.546875 L 292.707031 128.546875 L 292.703125 128.546875 L 292.707031 128.546875 L 292.703125 128.546875 L 292.703125 128.542969 L 292.703125 128.546875 L 291.421875 120.386719 C 291.332031 119.835938 290.921875 119.382812 290.386719 119.238281 L 269.421875 113.683594 C 268.71875 113.496094 267.992188 113.871094 267.734375 114.542969 C 267.585938 114.9375 267.511719 115.347656 267.511719 115.757812 C 267.511719 116.609375 267.835938 117.46875 268.476562 118.125 L 302.511719 153.023438 L 302.507812 153.019531 L 303.527344 152.03125 "/>
<path style=" stroke:none;fill-rule:nonzero;fill:rgb(100%,100%,100%);fill-opacity:1;" d="M 308.015625 150.429688 L 303.625 131.976562 L 323.265625 135.570312 Z M 308.015625 150.429688 "/>
<path style=" stroke:none;fill-rule:nonzero;fill:rgb(13.729858%,12.159729%,12.548828%);fill-opacity:1;" d="M 308.015625 150.429688 L 309.394531 150.101562 L 305.503906 133.761719 L 320.316406 136.464844 L 307.027344 149.414062 L 308.015625 150.429688 L 309.394531 150.101562 L 308.015625 150.429688 L 309.003906 151.4375 L 324.253906 136.582031 C 324.632812 136.210938 324.773438 135.664062 324.625 135.15625 C 324.46875 134.648438 324.042969 134.273438 323.519531 134.179688 L 303.878906 130.589844 C 303.410156 130.503906 302.925781 130.660156 302.597656 131.003906 C 302.269531 131.351562 302.136719 131.839844 302.246094 132.308594 L 306.636719 150.753906 C 306.757812 151.25 307.132812 151.644531 307.621094 151.785156 C 308.113281 151.929688 308.640625 151.796875 309.003906 151.4375 L 308.015625 150.429688 "/>
</g>
</svg>
