<?xml version="1.0" encoding="UTF-8"?>
<svg xmlns="http://www.w3.org/2000/svg" xmlns:xlink="http://www.w3.org/1999/xlink" width="375pt" height="374.999991pt" viewBox="0 0 375 374.999991" version="1.2">
<defs>
<clipPath id="clip1">
  <path d="M 15.46875 0 L 359.71875 0 L 359.71875 375 L 15.46875 375 Z M 15.46875 0 "/>
</clipPath>
</defs>
<g id="surface1">
<g clip-path="url(#clip1)" clip-rule="nonzero">
<path style=" stroke:none;fill-rule:nonzero;fill:rgb(0%,0%,0%);fill-opacity:1;" d="M 357.730469 2.578125 C 356.246094 0.9375 354.132812 0 351.929688 0 L 23.445312 0 C 21.226562 0 19.128906 0.9375 17.644531 2.578125 C 16.15625 4.203125 15.4375 6.390625 15.65625 8.59375 L 46.941406 321.09375 C 47.238281 324.140625 49.316406 326.75 52.242188 327.71875 L 193.019531 374.59375 C 193.820312 374.875 194.664062 375 195.492188 375 C 196.429688 375 197.355469 374.828125 198.261719 374.5 L 323.398438 327.625 C 326.183594 326.59375 328.136719 324.046875 328.433594 321.09375 L 359.71875 8.59375 C 359.9375 6.40625 359.21875 4.203125 357.730469 2.578125 Z M 313.324219 314.703125 L 195.335938 358.90625 L 61.988281 314.5 L 32.066406 15.625 L 343.261719 15.625 Z M 313.324219 314.703125 "/>
</g>
<path style=" stroke:none;fill-rule:nonzero;fill:rgb(0%,0%,0%);fill-opacity:1;" d="M 101.640625 93.765625 L 280.039062 93.765625 L 269.167969 156.25 L 109.460938 156.25 C 105.144531 156.25 101.640625 159.75 101.640625 164.0625 C 101.640625 168.375 105.144531 171.875 109.460938 171.875 L 266.445312 171.875 L 251.117188 259.890625 L 195.335938 280.78125 L 131.875 259.640625 L 124.949219 225.03125 C 124.117188 220.8125 120.035156 218.046875 115.75 218.90625 C 111.527344 219.75 108.773438 223.859375 109.617188 228.09375 L 117.4375 267.15625 C 117.988281 269.90625 119.972656 272.140625 122.632812 273.03125 L 193.019531 296.46875 C 193.820312 296.75 194.664062 296.875 195.492188 296.875 C 196.429688 296.875 197.355469 296.703125 198.246094 296.390625 L 260.8125 272.953125 C 263.410156 271.96875 265.304688 269.703125 265.773438 266.96875 L 297.054688 87.28125 C 297.449219 85.015625 296.820312 82.6875 295.335938 80.921875 C 293.851562 79.15625 291.644531 78.140625 289.34375 78.140625 L 101.640625 78.140625 C 97.324219 78.140625 93.820312 81.640625 93.820312 85.953125 C 93.820312 90.265625 97.324219 93.765625 101.640625 93.765625 Z M 101.640625 93.765625 "/>
</g>
</svg>
