<?xml version="1.0" encoding="UTF-8"?>
<svg xmlns="http://www.w3.org/2000/svg" xmlns:xlink="http://www.w3.org/1999/xlink" width="600pt" height="599.999999pt" viewBox="0 0 600 599.999999" version="1.2">
<defs>
<clipPath id="clip1">
  <path d="M 22.703125 34 L 576.953125 34 L 576.953125 566.539062 L 22.703125 566.539062 Z M 22.703125 34 "/>
</clipPath>
</defs>
<g id="surface1">
<g clip-path="url(#clip1)" clip-rule="nonzero">
<path style=" stroke:none;fill-rule:nonzero;fill:rgb(92.158508%,92.549133%,0%);fill-opacity:1;" d="M 574.355469 264.542969 C 573.257812 272.472656 575.574219 280.398438 573.257812 288.207031 C 574.964844 294.304688 571.550781 300.28125 572.285156 306.011719 C 573.015625 311.378906 572.039062 316.378906 571.1875 321.382812 C 569.601562 330.039062 570.699219 338.824219 569.113281 347.480469 C 568.503906 351.261719 568.261719 355.410156 568.503906 359.433594 C 568.992188 373.097656 566.308594 386.511719 563.992188 399.683594 C 562.40625 408.953125 560.578125 418.589844 555.945312 427.007812 C 553.140625 432.007812 552.773438 440.179688 551.3125 445.667969 C 549.96875 450.425781 546.191406 453.472656 545.335938 458.71875 C 541.921875 460.792969 538.628906 461.644531 536.4375 464.574219 C 534.117188 467.742188 535.582031 472.988281 533.144531 475.914062 C 530.582031 479.085938 523.632812 479.941406 520.828125 482.988281 C 518.144531 486.039062 515.828125 491.648438 514.121094 495.796875 C 506.929688 498.359375 501.199219 501.285156 494.734375 505.066406 C 488.394531 508.605469 492.417969 513.726562 485.589844 516.410156 C 484.25 516.898438 474.859375 518.117188 474.007812 518.847656 C 472.175781 520.679688 470.714844 523.117188 467.542969 522.386719 C 466.933594 522.265625 466.445312 522.140625 466.445312 522.753906 C 466.691406 526.65625 463.519531 525.558594 461.449219 526.167969 C 456.9375 527.507812 452.789062 529.703125 448.523438 531.777344 C 442.914062 534.460938 436.328125 535.804688 431.207031 539.21875 C 425.84375 542.753906 419.625 543.609375 414.136719 546.535156 C 408.652344 549.464844 402.308594 550.804688 396.335938 552.757812 C 394.628906 553.367188 393.042969 556.171875 390.972656 553.246094 C 388.777344 554.34375 386.582031 555.5625 384.386719 556.539062 C 383.53125 556.902344 382.558594 556.78125 381.703125 557.027344 C 373.167969 558.367188 364.753906 559.953125 356.464844 562.269531 C 355 562.636719 353.78125 562.515625 352.316406 562.515625 C 348.78125 562.515625 345.246094 562.148438 341.832031 562.757812 C 338.660156 563.367188 335.371094 562.148438 332.808594 562.878906 C 325.371094 565.074219 317.566406 562.515625 310.25 564.953125 C 308.058594 565.683594 306.105469 563.613281 303.667969 563.855469 C 297.449219 564.464844 291.230469 563.003906 285.132812 565.199219 C 284.160156 565.5625 282.328125 565.683594 281.71875 565.199219 C 278.304688 562.148438 274.527344 564.222656 270.988281 563.976562 C 267.332031 563.734375 263.917969 562.515625 260.136719 562.515625 C 252.332031 562.636719 244.53125 560.683594 236.847656 560.195312 C 227.824219 559.707031 219.414062 556.660156 210.632812 555.441406 C 207.339844 554.953125 204.535156 552.632812 201 552.269531 C 199.414062 552.148438 197.585938 551.171875 195.757812 551.171875 C 195.148438 551.171875 193.929688 551.050781 193.929688 550.683594 C 192.585938 545.925781 187.832031 547.511719 184.785156 545.804688 C 178.929688 542.265625 172.222656 540.316406 166.859375 535.679688 C 165.03125 534.09375 162.714844 532.753906 160.273438 531.777344 C 159.179688 531.289062 158.082031 531.046875 157.347656 530.191406 C 153.324219 526.046875 147.839844 524.09375 143.328125 520.679688 C 138.9375 517.386719 134.425781 514.335938 129.914062 511.164062 C 125.035156 507.75 119.550781 505.066406 115.769531 500.1875 C 108.210938 498.96875 106.015625 490.917969 99.796875 487.867188 C 97.722656 486.894531 97.480469 484.089844 95.527344 482.625 C 92.847656 480.671875 90.894531 477.867188 88.214844 475.792969 C 85.53125 473.597656 83.824219 470.425781 81.996094 467.5 C 80.164062 464.816406 77.847656 462.621094 76.140625 459.570312 C 74.679688 457.011719 72.238281 454.816406 70.65625 452.011719 C 69.191406 449.328125 66.875 447.007812 65.898438 444.203125 C 64.4375 439.933594 60.902344 436.640625 60.046875 432.128906 C 59.925781 431.640625 59.804688 431.03125 59.558594 430.910156 C 56.511719 428.957031 57 425.296875 55.292969 422.738281 C 53.21875 419.808594 51.511719 417.003906 51.511719 413.347656 C 47.367188 409.566406 46.878906 403.832031 44.804688 399.074219 C 42.734375 394.320312 40.78125 389.5625 38.832031 384.804688 C 36.027344 378.097656 34.441406 371.023438 31.757812 364.4375 C 29.5625 359.191406 27.125 354.070312 26.636719 348.335938 C 26.515625 346.628906 25.417969 345.898438 24.320312 345.042969 C 23.957031 344.675781 23.101562 344.921875 22.980469 344.1875 C 23.710938 344.066406 24.320312 343.945312 25.050781 343.824219 C 25.664062 343.703125 26.636719 343.457031 26.148438 342.726562 C 23.957031 339.1875 26.273438 335.042969 24.078125 331.382812 C 22.859375 329.308594 23.957031 325.894531 23.832031 323.089844 C 23.589844 319.183594 24.929688 315.160156 23.222656 311.378906 C 22.980469 310.890625 22.859375 310.769531 23.222656 310.28125 C 24.808594 307.964844 25.664062 305.523438 24.199219 302.71875 C 28.101562 293.449219 28.101562 283.328125 30.785156 273.691406 C 33.710938 263.324219 36.148438 252.835938 39.5625 242.464844 C 42.976562 232.222656 46.269531 221.855469 51.023438 212.21875 C 53.949219 206.363281 57.121094 200.507812 60.167969 194.65625 C 61.386719 192.214844 62.242188 191.972656 64.070312 193.558594 C 64.4375 193.800781 64.925781 193.679688 65.410156 193.800781 C 66.265625 194.042969 68.703125 193.070312 68.949219 192.460938 C 69.070312 192.09375 69.3125 191.605469 69.558594 191.238281 C 69.800781 191.605469 70.167969 191.972656 70.167969 192.335938 C 70.289062 193.3125 70.046875 194.289062 70.167969 195.140625 C 70.53125 196.605469 71.753906 197.09375 72.605469 195.875 C 74.558594 193.558594 78.457031 192.945312 79.433594 190.75 C 80.652344 188.066406 83.824219 186.847656 84.066406 183.800781 C 84.3125 181.359375 87.96875 183.3125 87.96875 180.871094 C 87.96875 179.042969 88.945312 177.945312 90.164062 176.726562 C 96.015625 170.992188 100.527344 164.285156 105.039062 157.574219 C 106.746094 155.015625 106.746094 155.015625 103.578125 154.527344 C 102.722656 154.40625 101.382812 154.769531 101.261719 153.796875 C 101.136719 153.183594 102.480469 151.84375 102.96875 151.84375 C 106.015625 152.085938 106.382812 149.28125 107.964844 147.941406 C 109.429688 146.722656 109.308594 143.792969 112.355469 144.402344 C 113.332031 144.523438 114.792969 143.0625 114.792969 141.476562 C 114.792969 139.769531 115.527344 138.914062 117.355469 139.035156 C 121.136719 139.402344 122.230469 135.011719 125.402344 134.28125 C 126.378906 134.035156 125.890625 132.570312 126.011719 131.71875 C 126.132812 130.742188 126.132812 129.765625 127.109375 129.402344 C 133.570312 126.960938 137.472656 121.472656 141.742188 116.714844 C 144.910156 113.058594 149.421875 110.738281 151.617188 106.226562 C 152.105469 105.25 153.203125 105.496094 154.058594 105.375 C 155.277344 105.375 156.617188 105.375 157.226562 104.273438 C 161.25 97.445312 169.054688 96.46875 174.785156 92.199219 C 177.832031 90.003906 181.492188 88.785156 183.929688 85.492188 C 185.148438 83.785156 188.199219 82.566406 190.269531 82.078125 C 199.414062 79.757812 206.976562 74.148438 215.386719 70.367188 C 220.144531 68.292969 224.777344 66.222656 229.167969 63.292969 C 231.363281 61.828125 234.167969 64.027344 236.359375 61.707031 C 238.191406 59.878906 240.75 59.511719 243.1875 58.660156 C 245.75 57.804688 248.433594 56.953125 250.75 55.976562 C 256.234375 53.65625 261.722656 51.707031 267.453125 50.363281 C 274.769531 48.65625 281.597656 45.363281 288.914062 44.023438 C 296.109375 42.679688 303.546875 41.828125 310.738281 39.996094 C 312.691406 42.925781 312.324219 36.460938 314.761719 39.144531 C 315.859375 40.242188 318.910156 40.242188 320.617188 38.898438 C 322.199219 37.679688 324.273438 38.65625 325.859375 37.3125 C 327.199219 36.214844 329.515625 37.4375 331.101562 35.972656 C 331.46875 35.730469 332.078125 35.363281 332.320312 35.605469 C 337.5625 38.777344 342.6875 34.753906 347.808594 35.484375 C 350.976562 35.972656 354.269531 33.777344 357.074219 34.875 C 360.242188 36.09375 363.78125 33.898438 366.460938 36.582031 C 370.242188 33.289062 375.484375 38.289062 379.265625 34.386719 C 379.753906 33.898438 381.214844 34.019531 381.824219 34.386719 C 384.628906 36.339844 387.558594 36.09375 390.605469 35.484375 C 393.652344 34.875 396.335938 36.703125 399.382812 36.949219 C 401.824219 37.070312 404.261719 35.117188 406.820312 37.558594 C 408.894531 39.507812 412.1875 38.167969 414.871094 38.898438 C 423.40625 41.09375 432.183594 42.558594 440.71875 45.121094 C 444.253906 46.21875 446.9375 48.535156 450.472656 49.390625 C 453.035156 50 454.742188 53.171875 458.035156 51.828125 C 459.007812 54.878906 462.910156 54.269531 464.375 56.585938 C 466.203125 59.390625 469.496094 59.269531 472.054688 60.976562 C 480.589844 66.953125 488.761719 73.417969 496.320312 80.613281 C 499.246094 83.417969 502.292969 86.222656 505.464844 88.90625 C 507.292969 90.613281 511.316406 90.613281 510.34375 94.640625 C 512.292969 96.226562 514 98.175781 516.195312 99.398438 C 517.902344 100.371094 519 101.714844 519.609375 103.421875 C 520.707031 106.347656 522.535156 108.542969 525.339844 109.886719 C 526.316406 110.375 526.804688 110.738281 527.046875 111.714844 C 528.386719 117.449219 533.996094 120.496094 535.824219 125.863281 C 536.800781 128.546875 537.046875 122.082031 538.019531 125.496094 C 538.507812 127.207031 538.996094 129.035156 539.605469 130.742188 C 540.214844 132.328125 541.800781 132.695312 542.777344 134.15625 C 544.605469 137.085938 545.214844 140.5 546.921875 143.425781 C 548.628906 146.355469 550.703125 149.160156 552.410156 152.085938 C 554.238281 155.257812 555.824219 158.671875 556.921875 161.84375 C 559.480469 169.773438 562.652344 177.457031 565.210938 185.386719 C 567.40625 192.582031 567.894531 200.019531 570.089844 207.21875 C 571.1875 210.753906 571.796875 214.78125 571.796875 218.683594 C 571.796875 224.902344 572.527344 231.125 573.625 237.101562 C 574.722656 246.371094 573.503906 255.515625 574.355469 264.542969 Z M 68.214844 330.164062 C 68.339844 330.164062 68.339844 330.164062 68.214844 330.164062 C 68.339844 336.261719 66.875 342.726562 68.582031 348.214844 C 71.875 358.824219 72.726562 370.167969 77.238281 380.414062 C 79.433594 385.414062 79.3125 391.148438 81.996094 396.148438 C 83.214844 398.585938 85.285156 400.539062 86.019531 403.222656 C 87.726562 409.199219 91.871094 414.078125 95.285156 418.957031 C 101.746094 427.980469 108.574219 436.640625 115.648438 445.179688 C 122.476562 453.351562 129.304688 461.523438 136.621094 469.207031 C 141.742188 474.574219 147.960938 478.476562 153.082031 483.722656 C 157.347656 488.113281 162.957031 491.164062 168.445312 493.359375 C 180.394531 497.992188 191.976562 503.847656 204.414062 507.507812 C 212.828125 509.945312 220.996094 513.238281 229.65625 515.191406 C 240.019531 517.628906 250.503906 519.582031 260.992188 521.65625 C 271.722656 523.851562 282.695312 524.214844 293.546875 525.800781 C 301.714844 527.019531 310.007812 528.117188 318.421875 527.632812 C 323.785156 527.265625 329.273438 528.242188 334.636719 527.996094 C 339.636719 527.753906 344.636719 526.535156 349.636719 525.921875 C 355.246094 525.3125 360.851562 524.214844 366.21875 522.628906 C 372.558594 520.800781 378.65625 518.605469 384.753906 516.164062 C 390.117188 513.96875 395.847656 511.773438 400.601562 508.726562 C 404.140625 506.410156 407.917969 504.457031 411.578125 502.382812 C 412.308594 502.015625 413.285156 502.140625 414.136719 501.53125 C 420.113281 496.894531 426.695312 493.113281 432.671875 488.355469 C 436.695312 485.0625 441.449219 482.257812 444.988281 478.84375 C 449.984375 474.085938 456.691406 471.039062 460.105469 464.695312 C 469.375 457.5 476.445312 448.105469 483.152344 438.714844 C 490.46875 428.59375 496.078125 417.492188 501.683594 406.394531 C 505.222656 399.320312 508.390625 392.121094 512.171875 385.046875 C 515.464844 378.949219 515.828125 371.386719 520.460938 365.777344 C 520.707031 361.019531 524.242188 357.484375 524.972656 352.972656 C 525.949219 347.605469 527.65625 342.359375 529.730469 337.601562 C 531.925781 332.601562 532.289062 327.113281 534.484375 322.113281 C 535.949219 318.941406 535.949219 315.039062 536.3125 311.378906 C 536.558594 307.230469 536.4375 302.964844 536.4375 298.816406 C 536.3125 294.914062 536.558594 290.886719 536.679688 286.984375 C 536.800781 280.644531 534.605469 274.789062 533.753906 268.8125 C 532.289062 259.175781 528.511719 250.152344 525.339844 240.882812 C 522.78125 233.074219 519.851562 225.511719 517.046875 217.828125 C 513.511719 208.316406 510.34375 198.558594 505.34375 189.652344 C 504.125 187.457031 502.171875 185.507812 501.5625 183.191406 C 499.734375 176.117188 494.980469 170.871094 490.222656 166.359375 C 480.710938 157.332031 472.175781 147.085938 460.960938 140.011719 C 457.667969 137.9375 454.496094 135.621094 451.449219 133.304688 C 445.839844 128.914062 439.132812 126.597656 433.160156 122.691406 C 431.695312 121.71875 430.476562 120.007812 428.648438 119.765625 C 420.964844 118.425781 414.503906 114.03125 407.308594 111.472656 C 400.601562 109.152344 393.652344 108.300781 387.070312 105.984375 C 380.972656 103.910156 374.144531 103.421875 367.558594 103.175781 C 363.046875 103.054688 359.023438 101.226562 354.511719 101.46875 C 350.125 101.59375 345.613281 101.105469 341.222656 101.46875 C 337.199219 101.835938 333.296875 100.738281 329.273438 101.226562 C 324.882812 101.714844 320.371094 101.46875 315.984375 101.226562 C 305.496094 100.738281 295.253906 103.175781 285.132812 104.761719 C 277.453125 105.984375 269.527344 107.324219 261.964844 109.640625 C 259.285156 110.496094 257.089844 112.203125 254.40625 112.570312 C 243.796875 113.910156 234.167969 118.789062 224.167969 121.839844 C 216.851562 124.035156 210.023438 128.058594 202.828125 130.863281 C 197.953125 132.695312 193.683594 135.867188 188.808594 137.816406 C 183.808594 139.769531 179.054688 142.328125 174.296875 144.769531 C 169.421875 147.207031 165.152344 150.867188 160.152344 152.941406 C 153.691406 155.625 148.9375 160.136719 144.425781 165.136719 C 141.863281 167.945312 139.546875 170.992188 136.863281 173.796875 C 135.890625 174.894531 134.914062 176.359375 134.058594 177.089844 C 130.15625 180.75 128.207031 185.871094 124.304688 189.53125 C 119.183594 194.289062 115.28125 200.265625 111.136719 205.875 C 106.625 211.972656 101.992188 218.074219 97.601562 224.414062 C 94.066406 229.539062 92.726562 235.878906 88.089844 240.148438 C 86.382812 247.957031 82.117188 254.785156 79.679688 262.347656 C 77.726562 268.566406 75.042969 274.789062 74.070312 281.132812 C 72.851562 288.816406 70.777344 296.378906 70.046875 304.183594 C 69.558594 309.671875 67.730469 314.917969 68.214844 320.648438 C 68.460938 323.578125 68.214844 326.871094 68.214844 330.164062 Z M 463.15625 97.933594 C 463.03125 97.6875 463.03125 97.445312 462.789062 97.324219 C 460.59375 95.980469 459.496094 93.785156 456.9375 92.566406 C 451.082031 89.640625 445.351562 85.980469 439.988281 82.320312 C 433.160156 77.808594 425.476562 77.078125 418.160156 74.878906 C 415.84375 74.148438 413.164062 74.394531 410.96875 73.296875 C 406.820312 71.222656 402.433594 72.074219 398.042969 71.953125 C 396.945312 71.953125 396.214844 72.199219 396.214844 73.417969 C 396.214844 74.269531 396.824219 74.515625 397.554688 74.636719 C 409.136719 75.367188 419.382812 80.492188 430.109375 84.152344 C 439.5 87.445312 448.886719 91.46875 457.058594 97.203125 C 458.519531 98.175781 459.984375 98.421875 461.570312 98.664062 C 462.421875 98.785156 462.910156 98.664062 463.15625 97.933594 Z M 73.214844 190.019531 C 73.09375 190.019531 72.851562 190.265625 72.726562 190.386719 C 72.851562 190.507812 72.972656 190.875 73.214844 190.875 C 73.335938 190.875 73.582031 190.628906 73.703125 190.507812 C 73.460938 190.265625 73.335938 190.019531 73.214844 190.019531 Z M 576.308594 264.300781 C 576.1875 264.300781 575.941406 264.542969 575.820312 264.664062 C 575.941406 264.785156 576.0625 265.152344 576.308594 265.152344 C 576.429688 265.152344 576.671875 264.910156 576.796875 264.785156 C 576.550781 264.542969 576.429688 264.300781 576.308594 264.300781 Z M 273.183594 566.050781 C 273.183594 566.171875 273.429688 566.296875 273.550781 566.539062 C 273.671875 566.417969 273.914062 566.296875 273.914062 566.171875 C 273.914062 566.050781 273.671875 565.929688 273.550781 565.808594 C 273.429688 565.808594 273.183594 565.929688 273.183594 566.050781 Z M 283.304688 421.03125 C 274.527344 421.394531 265.746094 421.03125 257.089844 419.566406 C 252.699219 418.835938 248.066406 417.738281 243.921875 416.152344 C 237.214844 413.710938 230.875 410.175781 224.535156 406.636719 C 220.996094 404.6875 217.582031 402.367188 214.535156 399.808594 C 206.121094 392.734375 199.050781 384.4375 192.585938 375.414062 C 191.488281 373.828125 192.097656 371.632812 190.269531 370.65625 C 186.734375 368.703125 185.027344 365.410156 183.199219 362.117188 C 179.539062 355.65625 175.027344 349.800781 171.738281 343.089844 C 169.664062 338.945312 169.175781 334.308594 166.492188 330.285156 C 165.273438 328.457031 166.007812 325.40625 165.152344 322.964844 C 164.421875 320.648438 163.324219 318.085938 164.785156 315.28125 C 166.007812 312.84375 163.566406 310.527344 163.566406 307.84375 C 163.445312 301.988281 165.273438 296.5 165.273438 290.644531 C 165.273438 288.082031 166.492188 285.15625 166.371094 282.472656 C 166.25 279.789062 167.835938 277.59375 167.589844 275.15625 C 167.46875 272.226562 169.296875 269.910156 169.421875 267.226562 C 173.6875 265.640625 169.296875 262.714844 170.515625 260.640625 C 170.761719 260.273438 170.882812 259.785156 171.128906 259.421875 C 173.566406 256.25 173.199219 252.46875 172.957031 248.808594 C 172.835938 246.492188 172.835938 246.492188 169.421875 245.761719 C 168.933594 245.636719 168.566406 245.636719 168.078125 245.394531 C 163.8125 243.441406 160.398438 239.296875 154.667969 241.003906 C 153.324219 241.492188 151.253906 239.050781 150.640625 236.855469 C 150.398438 235.878906 149.421875 235.390625 148.449219 236.125 C 146.375 237.832031 143.8125 239.171875 142.472656 241.367188 C 140.15625 245.515625 137.472656 249.90625 136.863281 254.417969 C 135.523438 263.445312 131.378906 271.617188 130.644531 280.886719 C 130.15625 286.863281 131.253906 293.328125 129.183594 298.695312 C 126.867188 304.792969 131.621094 310.527344 128.449219 316.136719 C 131.132812 322.964844 128.816406 330.285156 130.644531 337.359375 C 131.742188 341.261719 132.839844 345.285156 133.816406 349.191406 C 134.914062 353.214844 133.9375 358.09375 137.71875 361.265625 C 136.984375 365.167969 141.253906 366.632812 141.863281 369.800781 C 142.59375 373.339844 144.300781 376.144531 146.132812 378.949219 C 148.570312 382.730469 151.738281 386.148438 154.058594 390.050781 C 156.738281 394.320312 160.273438 397.976562 163.324219 401.878906 C 165.640625 404.808594 168.6875 407.003906 171.128906 409.808594 C 173.445312 412.371094 176.003906 414.566406 178.441406 417.003906 C 180.273438 418.835938 182.589844 420.421875 184.539062 422.128906 C 193.074219 429.566406 203.4375 434.445312 212.585938 441.15625 C 216.363281 443.960938 220.753906 446.398438 225.144531 448.105469 C 235.875 452.253906 246.480469 456.890625 257.699219 459.570312 C 265.625 461.523438 273.671875 463.476562 281.71875 463.839844 C 299.765625 464.574219 317.8125 464.9375 335.371094 459.9375 C 342.929688 457.742188 350 454.449219 356.953125 450.789062 C 364.390625 446.886719 370.484375 441.398438 377.070312 436.640625 C 383.167969 432.25 389.019531 427.128906 394.386719 421.640625 C 396.703125 419.199219 398.410156 415.664062 400.96875 414.199219 C 406.578125 410.90625 409.625 405.785156 413.164062 401.027344 C 418.527344 393.953125 423.039062 386.390625 428.039062 379.195312 C 429.5 377 430.964844 374.679688 431.695312 372.363281 C 432.304688 370.289062 433.769531 368.828125 434.378906 366.996094 C 435.109375 364.679688 436.816406 363.339844 437.792969 361.019531 C 440.964844 352.847656 444.378906 344.675781 446.085938 335.894531 C 446.695312 333.210938 448.886719 331.136719 448.765625 328.210938 C 448.523438 320.40625 451.207031 312.722656 450.230469 304.792969 C 449.621094 299.671875 451.816406 294.546875 450.59375 289.179688 C 449.984375 286.375 454.007812 282.839844 450.351562 279.546875 C 450.230469 279.421875 450.472656 278.570312 450.71875 278.324219 C 451.9375 276.617188 451.449219 274.910156 450.71875 273.082031 C 449.621094 270.519531 450.839844 267.46875 448.765625 265.152344 C 448.15625 264.421875 452.179688 262.347656 447.914062 262.46875 C 445.109375 262.589844 444.5 258.199219 441.9375 258.445312 C 439.621094 258.6875 438.035156 261.492188 435.230469 261.371094 C 434.867188 261.371094 434.257812 262.105469 434.132812 262.105469 C 430.355469 258.8125 426.574219 262.957031 422.917969 262.347656 C 419.746094 261.738281 418.40625 264.421875 416.332031 265.519531 C 414.257812 266.617188 415.480469 268.933594 415.355469 270.640625 C 415.234375 274.542969 415.722656 278.691406 415.113281 282.472656 C 414.503906 286.253906 417.429688 290.765625 413.039062 293.695312 C 413.285156 293.9375 413.40625 294.425781 413.648438 294.425781 C 415.234375 294.792969 415.601562 295.890625 414.746094 296.863281 C 413.527344 298.574219 414.015625 300.402344 414.015625 302.230469 C 414.015625 304.550781 414.257812 306.988281 413.894531 309.183594 C 413.527344 310.890625 415.234375 313.574219 412.066406 314.308594 C 412.1875 316.378906 412.308594 318.453125 412.429688 320.527344 C 412.429688 321.015625 412.308594 321.503906 412.1875 321.867188 C 410.359375 327.96875 409.015625 334.1875 406.578125 339.921875 C 404.261719 345.285156 402.554688 350.898438 399.507812 356.140625 C 396.578125 361.265625 393.652344 366.386719 389.875 370.535156 C 385.605469 375.167969 381.460938 380.046875 376.949219 384.5625 C 365.121094 396.269531 351.832031 405.296875 336.222656 411.148438 C 330.25 413.347656 324.640625 415.664062 318.300781 416.882812 C 306.960938 419.078125 295.742188 421.394531 285.253906 420.542969 C 284.28125 421.03125 283.792969 421.03125 283.304688 421.03125 Z M 325.980469 253.808594 C 326.957031 261.128906 330.859375 266.859375 337.808594 269.179688 C 340.367188 266.617188 340.246094 271.738281 342.074219 270.640625 C 343.171875 270.03125 344.148438 268.933594 345.367188 268.445312 C 346.222656 268.203125 345.367188 271.859375 347.683594 269.789062 C 349.757812 271.375 351.464844 270.886719 352.441406 268.566406 C 353.050781 267.105469 353.78125 266.128906 355.488281 266.496094 C 357.316406 266.859375 358.414062 265.640625 359.757812 264.789062 C 365.121094 261.25 366.585938 255.273438 367.804688 249.90625 C 369.023438 244.664062 369.265625 238.929688 369.265625 233.441406 C 369.265625 227.832031 369.511719 222.21875 369.753906 216.609375 C 369.875 212.460938 369.023438 208.191406 370 204.167969 C 372.191406 195.628906 370.484375 190.628906 363.535156 185.261719 C 362.804688 184.652344 361.828125 184.164062 361.585938 183.3125 C 360.367188 178.921875 356.097656 180.019531 353.292969 178.433594 C 351.832031 181.96875 345.855469 175.503906 345.367188 181.96875 C 345.246094 183.191406 343.539062 182.335938 342.5625 181.605469 C 338.785156 178.921875 338.660156 178.921875 336.222656 182.457031 C 335.125 184.042969 334.152344 185.386719 332.078125 185.628906 C 330.613281 185.871094 329.515625 186.847656 329.152344 188.3125 C 327.6875 194.65625 325.613281 200.996094 325.25 207.339844 C 325.003906 210.753906 324.519531 214.292969 324.882812 217.828125 C 325.25 221.488281 325.003906 225.269531 325.003906 228.929688 C 324.519531 237.222656 324.882812 245.515625 325.980469 253.808594 Z M 252.332031 265.886719 C 255.503906 261.859375 258.066406 257.957031 259.164062 252.710938 C 259.894531 249.054688 260.746094 245.027344 261.964844 241.613281 C 263.796875 236.367188 261.234375 231.246094 262.941406 226.367188 C 263.429688 225.148438 263.429688 223.5625 262.578125 222.339844 C 260.992188 220.144531 261.234375 217.339844 261.964844 215.632812 C 263.917969 211.121094 260.746094 207.21875 261.601562 202.949219 C 261.84375 201.851562 261.113281 201.117188 260.382812 200.507812 C 258.066406 198.800781 257.457031 195.875 255.503906 193.800781 C 253.796875 191.972656 253.308594 188.3125 249.40625 190.875 C 248.675781 191.363281 248.066406 190.140625 247.578125 189.289062 C 246.601562 187.703125 245.382812 186.117188 243.554688 185.628906 C 242.089844 185.261719 241.359375 187.214844 240.261719 187.824219 C 239.652344 188.070312 238.800781 188.3125 238.3125 188.070312 C 235.628906 186.605469 233.679688 187.824219 231.726562 189.53125 C 230.75 190.386719 230.140625 190.75 228.921875 189.898438 C 226.605469 188.433594 224.65625 190.875 222.460938 191.117188 C 220.507812 191.363281 221.605469 193.921875 221.121094 195.265625 C 220.265625 197.339844 218.316406 198.800781 217.21875 200.507812 C 216.242188 202.21875 217.582031 205.144531 216.484375 207.21875 C 215.023438 209.777344 214.046875 212.21875 215.511719 215.265625 C 216 216.121094 215.875 217.585938 215.144531 218.5625 C 213.558594 220.878906 213.558594 224.050781 214.65625 225.878906 C 216.242188 228.804688 213.070312 231.734375 215.511719 234.171875 C 212.097656 239.296875 216.484375 244.417969 215.875 249.664062 C 215.632812 251.738281 218.070312 254.175781 216.242188 256.738281 C 215.632812 257.589844 216.363281 258.078125 216.851562 258.324219 C 219.046875 259.910156 219.535156 262.46875 220.507812 264.664062 C 220.996094 265.640625 220.875 267.347656 222.703125 267.835938 C 227.703125 269.179688 232.09375 272.714844 236.726562 272.105469 C 243.3125 272.105469 248.308594 270.886719 252.332031 265.886719 Z M 427.304688 121.839844 C 427.429688 122.082031 427.671875 122.328125 427.671875 122.328125 C 428.28125 122.082031 428.28125 121.71875 427.917969 121.472656 C 427.792969 121.351562 427.671875 121.472656 427.429688 121.472656 C 427.429688 121.472656 427.304688 121.71875 427.304688 121.839844 Z M 265.136719 216.609375 C 265.015625 216.609375 264.769531 216.851562 264.648438 216.976562 C 264.769531 217.097656 264.894531 217.339844 265.136719 217.339844 C 265.257812 217.339844 265.503906 217.097656 265.625 216.976562 C 265.378906 216.851562 265.257812 216.609375 265.136719 216.609375 Z M 91.019531 148.183594 C 88.335938 146.722656 87.238281 148.671875 86.140625 150.625 C 84.921875 152.820312 82.726562 155.015625 86.261719 157.332031 C 88.578125 158.917969 89.921875 159.039062 90.53125 156.84375 C 91.871094 153.550781 96.015625 150.988281 91.019531 148.183594 Z M 71.628906 163.066406 C 72.238281 163.917969 72.726562 165.015625 73.460938 165.382812 C 76.019531 166.722656 78.824219 170.382812 81.261719 165.382812 C 81.628906 164.527344 81.261719 163.308594 81.261719 162.453125 C 78.09375 162.699219 74.800781 162.820312 71.628906 163.066406 Z M 63.582031 174.285156 C 62.363281 174.53125 59.925781 174.164062 60.167969 176.117188 C 60.289062 177.214844 62.121094 179.042969 63.339844 179.164062 C 65.777344 179.410156 66.875 177.457031 67.242188 174.652344 C 66.507812 172.210938 64.679688 174.042969 63.582031 174.285156 Z M 76.386719 148.550781 C 76.628906 150.988281 76.996094 153.429688 77.238281 155.746094 C 78.214844 155.257812 79.433594 155.136719 79.921875 154.40625 C 81.261719 152.574219 82.117188 150.625 79.433594 149.160156 C 78.335938 148.917969 77.363281 148.792969 76.386719 148.550781 Z M 88.945312 172.699219 C 88.457031 171.722656 88.214844 170.382812 87.605469 170.015625 C 86.261719 169.40625 84.675781 169.40625 83.09375 169.164062 C 83.578125 170.140625 83.945312 170.992188 84.3125 171.722656 C 85.773438 173.1875 87.359375 173.308594 88.945312 172.699219 Z M 89.1875 158.917969 C 89.066406 159.894531 88.699219 160.746094 88.699219 161.722656 C 88.699219 162.820312 89.675781 163.066406 90.773438 162.210938 C 91.140625 161.84375 90.652344 160.625 90.53125 159.773438 C 90.042969 159.527344 89.675781 159.285156 89.1875 158.917969 Z M 557.164062 474.085938 C 557.40625 473.964844 558.019531 473.84375 558.019531 473.71875 C 558.140625 472.867188 558.503906 471.648438 558.019531 471.160156 C 555.214844 467.011719 553.628906 467.011719 551.800781 471.039062 C 551.3125 472.257812 550.703125 473.355469 550.214844 474.574219 C 549.96875 475.0625 549.96875 475.550781 549.96875 476.160156 C 550.578125 476.160156 551.191406 476.28125 551.675781 476.160156 C 552.652344 475.914062 553.507812 475.550781 554.359375 475.183594 C 555.335938 474.695312 556.1875 474.332031 557.164062 474.085938 Z M 567.40625 466.523438 C 568.625 466.160156 569.601562 465.546875 568.992188 463.839844 C 568.625 462.742188 567.894531 462.378906 566.917969 462.621094 C 565.578125 462.988281 564.601562 463.597656 565.332031 465.304688 C 565.578125 466.523438 566.429688 466.769531 567.40625 466.523438 Z M 557.773438 455.667969 C 557.285156 454.816406 556.554688 454.449219 555.457031 454.9375 C 553.75 455.546875 553.871094 456.644531 554.480469 457.863281 C 554.96875 458.71875 555.699219 459.207031 556.675781 458.597656 C 558.382812 457.988281 558.382812 456.765625 557.773438 455.667969 Z M 567.773438 447.621094 C 569.480469 447.007812 569.355469 445.910156 568.746094 444.691406 C 568.261719 443.839844 567.527344 443.472656 566.429688 443.960938 C 564.722656 444.570312 564.96875 445.667969 565.332031 446.765625 C 566.066406 447.621094 566.675781 447.984375 567.773438 447.621094 Z M 547.289062 495.1875 C 546.066406 495.917969 546.066406 497.015625 545.824219 497.992188 C 545.582031 499.210938 544.484375 500.917969 545.945312 501.652344 C 547.652344 502.503906 548.019531 500.917969 548.507812 499.578125 C 548.75 498.847656 549.96875 498.601562 550.578125 497.992188 C 551.554688 497.140625 550.945312 496.40625 550.457031 495.675781 C 549.726562 493.96875 548.628906 494.457031 547.289062 495.1875 Z M 521.925781 516.289062 C 522.046875 516.53125 522.902344 516.53125 523.144531 516.410156 C 523.632812 516.042969 524.363281 515.066406 524.242188 514.945312 C 522.65625 513.117188 522.902344 511.410156 524.488281 509.824219 C 524.609375 509.703125 524.121094 508.847656 523.753906 508.726562 C 521.925781 508.117188 520.828125 509.703125 519.609375 510.433594 C 518.144531 511.410156 519.730469 512.386719 520.097656 513.238281 C 520.707031 514.335938 521.195312 515.3125 521.925781 516.289062 Z M 538.753906 495.554688 C 537.289062 497.015625 537.289062 498.96875 537.167969 500.675781 C 537.046875 502.382812 539.238281 502.140625 540.460938 502.503906 C 540.824219 502.628906 541.921875 501.652344 541.800781 501.40625 C 541.433594 499.457031 540.945312 497.625 540.460938 495.675781 C 540.335938 495.429688 539.726562 495.308594 539.363281 495.1875 C 539.117188 495.308594 538.996094 495.429688 538.753906 495.554688 Z M 569.480469 489.332031 C 569.234375 489.089844 568.625 489.210938 568.261719 489.210938 C 567.894531 489.210938 566.308594 494.820312 566.554688 495.1875 C 567.164062 496.40625 567.894531 496.039062 569.234375 495.1875 C 570.210938 494.699219 570.820312 490.796875 569.480469 489.332031 Z M 554.96875 486.160156 C 554.480469 486.285156 555.214844 487.257812 555.457031 487.867188 C 555.945312 488.964844 556.675781 489.820312 558.019531 488.84375 C 558.628906 488.355469 558.871094 487.867188 557.894531 486.527344 C 557.285156 486.40625 556.066406 485.917969 554.96875 486.160156 Z M 524.730469 499.089844 C 524 497.992188 523.265625 498.238281 522.535156 498.847656 C 521.925781 499.335938 521.804688 499.820312 522.292969 500.554688 C 523.023438 501.652344 523.753906 501.40625 524.488281 500.917969 C 524.972656 500.308594 525.097656 499.820312 524.730469 499.089844 Z M 533.753906 511.53125 C 532.65625 512.261719 532.898438 512.996094 533.507812 513.726562 C 533.996094 514.335938 534.484375 514.457031 535.214844 513.96875 C 536.3125 513.238281 536.070312 512.507812 535.582031 511.773438 C 534.972656 511.289062 534.484375 511.164062 533.753906 511.53125 Z M 533.753906 511.53125 "/>
</g>
</g>
</svg>
