<?xml version="1.0" encoding="UTF-8"?>
<svg xmlns="http://www.w3.org/2000/svg" xmlns:xlink="http://www.w3.org/1999/xlink" width="75pt" height="74.999997pt" viewBox="0 0 75 74.999997" version="1.2">
<g id="surface1">
<path style=" stroke:none;fill-rule:nonzero;fill:rgb(0%,0%,0%);fill-opacity:1;" d="M 62.554688 0 L 12.445312 0 C 11.625 0 10.816406 0.0820312 10.015625 0.242188 C 9.214844 0.402344 8.4375 0.636719 7.683594 0.953125 C 6.929688 1.265625 6.214844 1.648438 5.535156 2.101562 C 4.855469 2.554688 4.226562 3.070312 3.648438 3.648438 C 3.070312 4.226562 2.554688 4.855469 2.101562 5.535156 C 1.648438 6.214844 1.265625 6.929688 0.953125 7.683594 C 0.636719 8.4375 0.402344 9.214844 0.242188 10.015625 C 0.0820312 10.816406 0 11.625 0 12.445312 L 0 62.558594 C 0 63.375 0.0820312 64.183594 0.242188 64.984375 C 0.402344 65.785156 0.640625 66.5625 0.953125 67.316406 C 1.265625 68.074219 1.648438 68.789062 2.101562 69.46875 C 2.558594 70.144531 3.074219 70.773438 3.652344 71.351562 C 4.226562 71.929688 4.855469 72.445312 5.535156 72.898438 C 6.214844 73.351562 6.929688 73.734375 7.683594 74.046875 C 8.4375 74.363281 9.214844 74.597656 10.015625 74.757812 C 10.816406 74.917969 11.625 75 12.445312 75 L 62.554688 75 C 63.375 75 64.183594 74.917969 64.984375 74.757812 C 65.785156 74.597656 66.5625 74.363281 67.316406 74.046875 C 68.070312 73.734375 68.785156 73.351562 69.464844 72.898438 C 70.144531 72.445312 70.773438 71.929688 71.347656 71.351562 C 71.925781 70.773438 72.441406 70.144531 72.898438 69.46875 C 73.351562 68.789062 73.734375 68.074219 74.046875 67.316406 C 74.359375 66.5625 74.597656 65.785156 74.757812 64.984375 C 74.917969 64.183594 75 63.375 75 62.558594 L 75 12.445312 C 75 11.625 74.917969 10.816406 74.757812 10.015625 C 74.597656 9.214844 74.363281 8.4375 74.046875 7.683594 C 73.734375 6.929688 73.351562 6.214844 72.898438 5.535156 C 72.445312 4.855469 71.929688 4.226562 71.351562 3.648438 C 70.773438 3.070312 70.144531 2.554688 69.464844 2.101562 C 68.785156 1.648438 68.070312 1.265625 67.316406 0.953125 C 66.5625 0.636719 65.785156 0.402344 64.984375 0.242188 C 64.183594 0.0820312 63.375 0 62.554688 0 Z M 46.667969 65.75 C 46.167969 65.894531 45.65625 65.925781 45.140625 65.832031 C 44.625 65.742188 44.15625 65.542969 43.734375 65.230469 C 43.039062 64.625 42.699219 63.859375 42.71875 62.933594 L 42.71875 61.394531 C 42.71875 59.984375 42.738281 57.847656 42.738281 55.394531 C 42.8125 54.683594 42.734375 53.988281 42.507812 53.308594 C 42.28125 52.628906 41.921875 52.027344 41.4375 51.503906 C 41.199219 51.296875 41.039062 51.042969 40.949219 50.742188 C 40.863281 50.441406 40.867188 50.140625 40.960938 49.839844 C 41.054688 49.542969 41.222656 49.292969 41.464844 49.09375 C 41.707031 48.890625 41.980469 48.773438 42.292969 48.738281 C 48.054688 48.089844 53.378906 46.203125 53.378906 36.75 C 53.402344 35.582031 53.207031 34.453125 52.789062 33.363281 C 52.375 32.273438 51.773438 31.296875 50.984375 30.441406 C 50.78125 30.214844 50.652344 29.957031 50.597656 29.660156 C 50.542969 29.359375 50.570312 29.070312 50.679688 28.789062 C 51.28125 27.085938 51.300781 25.371094 50.738281 23.65625 C 48.71875 24.109375 46.886719 24.96875 45.242188 26.226562 C 44.839844 26.5 44.40625 26.570312 43.9375 26.441406 C 41.828125 25.871094 39.683594 25.578125 37.5 25.5625 C 35.324219 25.570312 33.183594 25.863281 31.085938 26.4375 C 30.617188 26.566406 30.183594 26.496094 29.78125 26.21875 C 28.136719 24.957031 26.300781 24.101562 24.273438 23.65625 C 23.71875 25.371094 23.738281 27.078125 24.339844 28.777344 C 24.453125 29.058594 24.484375 29.351562 24.429688 29.648438 C 24.375 29.949219 24.246094 30.210938 24.039062 30.433594 C 23.246094 31.292969 22.644531 32.265625 22.230469 33.355469 C 21.816406 34.449219 21.617188 35.578125 21.640625 36.742188 C 21.640625 46.199219 27.234375 48.125 32.707031 48.761719 C 32.914062 48.785156 33.109375 48.847656 33.292969 48.949219 C 33.476562 49.050781 33.632812 49.183594 33.765625 49.347656 C 33.894531 49.511719 33.988281 49.695312 34.046875 49.894531 C 34.101562 50.097656 34.121094 50.300781 34.09375 50.511719 C 34.066406 50.714844 34 50.910156 33.894531 51.089844 C 33.792969 51.269531 33.660156 51.421875 33.496094 51.550781 C 33.332031 51.683594 33.152344 51.777344 32.953125 51.835938 C 32.753906 51.894531 32.550781 51.917969 32.34375 51.898438 C 26.394531 51.207031 18.484375 48.890625 18.484375 36.742188 C 18.464844 35.34375 18.683594 33.984375 19.128906 32.660156 C 19.578125 31.335938 20.230469 30.121094 21.089844 29.019531 C 20.78125 27.769531 20.675781 26.507812 20.769531 25.226562 C 20.867188 23.945312 21.160156 22.710938 21.652344 21.523438 C 21.832031 21.058594 22.160156 20.75 22.628906 20.59375 C 23.121094 20.433594 25.746094 19.859375 30.925781 23.203125 C 35.304688 22.121094 39.683594 22.121094 44.0625 23.203125 C 49.238281 19.855469 51.863281 20.429688 52.351562 20.59375 C 52.820312 20.75 53.144531 21.058594 53.328125 21.519531 C 53.828125 22.703125 54.128906 23.9375 54.230469 25.222656 C 54.328125 26.503906 54.222656 27.769531 53.910156 29.019531 C 54.769531 30.121094 55.421875 31.332031 55.871094 32.65625 C 56.316406 33.980469 56.53125 35.34375 56.515625 36.738281 C 56.515625 47.253906 50.605469 50.398438 45.148438 51.484375 C 45.65625 52.738281 45.898438 54.042969 45.878906 55.394531 C 45.878906 57.855469 45.863281 59.992188 45.855469 61.417969 L 45.855469 62.644531 C 46.804688 62.3125 47.734375 61.929688 48.640625 61.492188 C 49.546875 61.050781 50.421875 60.558594 51.273438 60.019531 C 52.121094 59.476562 52.933594 58.886719 53.714844 58.25 C 54.492188 57.609375 55.230469 56.929688 55.929688 56.203125 C 56.628906 55.480469 57.285156 54.71875 57.894531 53.917969 C 58.503906 53.113281 59.0625 52.28125 59.574219 51.414062 C 60.085938 50.546875 60.546875 49.652344 60.953125 48.730469 C 61.359375 47.808594 61.710938 46.867188 62.007812 45.90625 C 62.300781 44.941406 62.539062 43.96875 62.722656 42.976562 C 62.902344 41.984375 63.027344 40.988281 63.089844 39.984375 C 63.15625 38.980469 63.160156 37.972656 63.105469 36.96875 C 63.054688 35.964844 62.941406 34.964844 62.769531 33.972656 C 62.597656 32.980469 62.371094 32 62.082031 31.035156 C 61.796875 30.070312 61.457031 29.125 61.058594 28.199219 C 60.664062 27.273438 60.210938 26.375 59.710938 25.503906 C 59.207031 24.628906 58.65625 23.789062 58.054688 22.984375 C 57.453125 22.175781 56.808594 21.40625 56.117188 20.671875 C 55.425781 19.941406 54.691406 19.253906 53.917969 18.605469 C 53.148438 17.960938 52.339844 17.363281 51.496094 16.8125 C 50.652344 16.261719 49.78125 15.761719 48.878906 15.3125 C 47.980469 14.863281 47.054688 14.46875 46.105469 14.128906 C 45.160156 13.789062 44.195312 13.503906 43.214844 13.277344 C 42.234375 13.050781 41.242188 12.882812 40.242188 12.773438 C 39.242188 12.660156 38.238281 12.609375 37.230469 12.617188 C 36.222656 12.625 35.21875 12.691406 34.222656 12.816406 C 33.222656 12.941406 32.234375 13.125 31.257812 13.367188 C 30.277344 13.605469 29.320312 13.90625 28.375 14.257812 C 27.433594 14.613281 26.515625 15.019531 25.621094 15.480469 C 24.726562 15.945312 23.859375 16.457031 23.027344 17.019531 C 22.191406 17.582031 21.394531 18.191406 20.628906 18.851562 C 19.867188 19.507812 19.144531 20.207031 18.464844 20.949219 C 17.785156 21.691406 17.148438 22.46875 16.558594 23.285156 C 15.96875 24.101562 15.429688 24.949219 14.941406 25.828125 C 14.453125 26.710938 14.015625 27.613281 13.632812 28.546875 C 13.246094 29.476562 12.921875 30.425781 12.648438 31.398438 C 12.375 32.367188 12.164062 33.347656 12.007812 34.34375 C 11.847656 35.335938 11.75 36.335938 11.710938 37.34375 C 11.671875 38.351562 11.695312 39.355469 11.773438 40.359375 C 11.851562 41.363281 11.988281 42.359375 12.183594 43.34375 C 12.378906 44.332031 12.632812 45.304688 12.941406 46.265625 C 13.253906 47.222656 13.617188 48.160156 14.039062 49.074219 C 14.457031 49.988281 14.929688 50.875 15.453125 51.734375 C 15.980469 52.59375 16.550781 53.421875 17.171875 54.214844 C 17.792969 55.007812 18.460938 55.757812 19.167969 56.472656 C 19.878906 57.1875 20.628906 57.859375 21.417969 58.484375 C 22.203125 59.109375 23.027344 59.6875 23.882812 60.21875 C 24.738281 60.75 25.625 61.226562 26.535156 61.652344 C 27.449219 62.078125 28.382812 62.449219 29.339844 62.765625 C 29.125 60.824219 29.042969 58.882812 29.09375 56.929688 C 28.695312 56.96875 28.308594 56.996094 27.9375 56.996094 C 27.082031 57.058594 26.238281 56.984375 25.410156 56.773438 C 24.578125 56.566406 23.804688 56.230469 23.082031 55.765625 C 22.359375 55.304688 21.730469 54.742188 21.191406 54.074219 C 20.652344 53.410156 20.234375 52.675781 19.933594 51.875 C 19.867188 51.671875 19.84375 51.464844 19.863281 51.253906 C 19.882812 51.042969 19.941406 50.84375 20.039062 50.65625 C 20.136719 50.46875 20.269531 50.304688 20.433594 50.171875 C 20.59375 50.035156 20.777344 49.9375 20.980469 49.878906 C 21.183594 49.816406 21.390625 49.796875 21.601562 49.820312 C 21.8125 49.84375 22.011719 49.90625 22.199219 50.007812 C 22.382812 50.109375 22.542969 50.246094 22.675781 50.410156 C 22.804688 50.578125 22.898438 50.761719 22.957031 50.96875 C 23.082031 51.347656 24.425781 54.835938 30.328125 53.574219 C 30.535156 53.53125 30.738281 53.527344 30.945312 53.5625 C 31.152344 53.601562 31.34375 53.675781 31.519531 53.789062 C 31.695312 53.902344 31.84375 54.046875 31.960938 54.21875 C 32.078125 54.390625 32.160156 54.582031 32.203125 54.785156 C 32.253906 55.039062 32.242188 55.289062 32.164062 55.535156 C 32.203125 55.648438 32.230469 55.761719 32.242188 55.882812 C 32.261719 58.183594 32.28125 62.289062 32.28125 62.949219 C 32.300781 63.871094 31.957031 64.632812 31.253906 65.230469 C 30.6875 65.695312 30.035156 65.917969 29.300781 65.902344 C 29.046875 65.902344 28.800781 65.882812 28.550781 65.835938 C 28.011719 65.660156 27.480469 65.46875 26.949219 65.261719 C 26.421875 65.054688 25.902344 64.832031 25.386719 64.597656 C 24.871094 64.359375 24.363281 64.105469 23.863281 63.839844 C 23.363281 63.570312 22.871094 63.289062 22.386719 62.992188 C 21.90625 62.695312 21.429688 62.386719 20.964844 62.058594 C 20.5 61.734375 20.042969 61.398438 19.597656 61.046875 C 19.152344 60.695312 18.71875 60.332031 18.296875 59.953125 C 17.871094 59.578125 17.457031 59.1875 17.058594 58.789062 C 16.65625 58.386719 16.269531 57.972656 15.890625 57.550781 C 15.515625 57.125 15.148438 56.691406 14.796875 56.246094 C 14.449219 55.800781 14.109375 55.347656 13.785156 54.878906 C 13.460938 54.414062 13.148438 53.941406 12.855469 53.457031 C 12.558594 52.972656 12.273438 52.480469 12.007812 51.980469 C 11.738281 51.480469 11.488281 50.972656 11.25 50.460938 C 11.011719 49.945312 10.789062 49.421875 10.582031 48.894531 C 10.375 48.367188 10.183594 47.832031 10.007812 47.292969 C 9.832031 46.753906 9.671875 46.210938 9.527344 45.660156 C 9.386719 45.113281 9.257812 44.5625 9.148438 44.003906 C 9.035156 43.449219 8.941406 42.890625 8.863281 42.328125 C 8.785156 41.765625 8.722656 41.203125 8.679688 40.636719 C 8.632812 40.070312 8.605469 39.503906 8.59375 38.9375 C 8.582031 38.371094 8.585938 37.804688 8.605469 37.238281 C 8.628906 36.671875 8.667969 36.105469 8.722656 35.539062 C 8.777344 34.976562 8.847656 34.414062 8.9375 33.851562 C 9.023438 33.292969 9.128906 32.734375 9.25 32.179688 C 9.371094 31.628906 9.507812 31.078125 9.660156 30.53125 C 9.8125 29.984375 9.980469 29.445312 10.167969 28.90625 C 10.351562 28.371094 10.550781 27.839844 10.769531 27.316406 C 10.984375 26.792969 11.214844 26.273438 11.464844 25.761719 C 11.710938 25.253906 11.972656 24.75 12.246094 24.253906 C 12.523438 23.757812 12.8125 23.273438 13.117188 22.792969 C 13.421875 22.316406 13.742188 21.847656 14.074219 21.386719 C 14.40625 20.925781 14.753906 20.476562 15.113281 20.039062 C 15.46875 19.597656 15.84375 19.171875 16.226562 18.753906 C 16.609375 18.335938 17.007812 17.929688 17.414062 17.535156 C 17.820312 17.140625 18.242188 16.761719 18.671875 16.390625 C 19.101562 16.023438 19.542969 15.664062 19.996094 15.320312 C 20.445312 14.980469 20.90625 14.648438 21.378906 14.332031 C 21.847656 14.015625 22.328125 13.714844 22.816406 13.425781 C 23.304688 13.136719 23.800781 12.863281 24.308594 12.605469 C 24.8125 12.347656 25.324219 12.101562 25.84375 11.875 C 26.359375 11.644531 26.886719 11.433594 27.417969 11.234375 C 27.949219 11.035156 28.488281 10.855469 29.027344 10.6875 C 29.570312 10.519531 30.117188 10.371094 30.667969 10.238281 C 31.21875 10.101562 31.773438 9.984375 32.332031 9.882812 C 32.890625 9.78125 33.453125 9.695312 34.015625 9.628906 C 34.578125 9.558594 35.140625 9.507812 35.707031 9.472656 C 36.273438 9.4375 36.839844 9.417969 37.40625 9.417969 C 37.976562 9.414062 38.542969 9.429688 39.109375 9.460938 C 39.675781 9.492188 40.238281 9.539062 40.804688 9.605469 C 41.367188 9.671875 41.925781 9.75 42.488281 9.847656 C 43.046875 9.945312 43.601562 10.058594 44.152344 10.191406 C 44.703125 10.320312 45.253906 10.46875 45.796875 10.628906 C 46.339844 10.792969 46.878906 10.972656 47.410156 11.164062 C 47.941406 11.359375 48.46875 11.570312 48.992188 11.792969 C 49.511719 12.019531 50.023438 12.261719 50.53125 12.515625 C 51.039062 12.769531 51.535156 13.039062 52.027344 13.324219 C 52.515625 13.609375 53 13.910156 53.472656 14.222656 C 53.945312 14.535156 54.40625 14.863281 54.863281 15.203125 C 55.316406 15.542969 55.757812 15.898438 56.191406 16.261719 C 56.625 16.628906 57.046875 17.007812 57.457031 17.398438 C 57.867188 17.789062 58.265625 18.195312 58.652344 18.609375 C 59.039062 19.023438 59.414062 19.449219 59.777344 19.886719 C 60.136719 20.324219 60.488281 20.769531 60.824219 21.226562 C 61.160156 21.683594 61.480469 22.152344 61.789062 22.628906 C 62.097656 23.101562 62.390625 23.589844 62.671875 24.082031 C 62.949219 24.574219 63.214844 25.078125 63.464844 25.585938 C 63.714844 26.09375 63.949219 26.609375 64.167969 27.132812 C 64.390625 27.65625 64.59375 28.183594 64.78125 28.71875 C 64.96875 29.253906 65.144531 29.796875 65.300781 30.339844 C 65.457031 30.886719 65.597656 31.433594 65.722656 31.988281 C 65.847656 32.542969 65.953125 33.097656 66.046875 33.65625 C 66.136719 34.21875 66.214844 34.777344 66.273438 35.34375 C 66.332031 35.90625 66.375 36.472656 66.398438 37.039062 C 66.425781 37.605469 66.433594 38.171875 66.425781 38.738281 C 66.417969 39.308594 66.390625 39.875 66.351562 40.4375 C 66.308594 41.003906 66.253906 41.570312 66.179688 42.132812 C 66.101562 42.695312 66.011719 43.253906 65.90625 43.808594 C 65.796875 44.367188 65.675781 44.921875 65.535156 45.46875 C 65.394531 46.019531 65.238281 46.566406 65.066406 47.105469 C 64.894531 47.644531 64.707031 48.179688 64.503906 48.710938 C 64.300781 49.238281 64.082031 49.761719 63.847656 50.28125 C 63.613281 50.796875 63.363281 51.304688 63.097656 51.808594 C 62.835938 52.308594 62.554688 52.804688 62.261719 53.289062 C 61.96875 53.773438 61.664062 54.25 61.339844 54.71875 C 61.019531 55.183594 60.6875 55.644531 60.335938 56.089844 C 59.988281 56.539062 59.628906 56.976562 59.253906 57.402344 C 58.878906 57.828125 58.496094 58.242188 58.097656 58.648438 C 57.699219 59.050781 57.289062 59.441406 56.867188 59.824219 C 56.445312 60.203125 56.011719 60.570312 55.570312 60.921875 C 55.128906 61.277344 54.675781 61.617188 54.210938 61.945312 C 53.746094 62.273438 53.277344 62.589844 52.792969 62.886719 C 52.3125 63.1875 51.824219 63.472656 51.324219 63.742188 C 50.828125 64.015625 50.320312 64.269531 49.808594 64.511719 C 49.292969 64.753906 48.773438 64.980469 48.246094 65.191406 C 47.71875 65.402344 47.1875 65.59375 46.648438 65.773438 Z M 46.667969 65.75 "/>
</g>
</svg>
