<?xml version="1.0" encoding="UTF-8"?>
<svg xmlns="http://www.w3.org/2000/svg" xmlns:xlink="http://www.w3.org/1999/xlink" width="75pt" height="74.999997pt" viewBox="0 0 75 74.999997" version="1.2">
<defs>
<clipPath id="clip1">
  <path d="M 1.492188 1.492188 L 73.480469 1.492188 L 73.480469 73.480469 L 1.492188 73.480469 Z M 1.492188 1.492188 "/>
</clipPath>
</defs>
<g id="surface1">
<g clip-path="url(#clip1)" clip-rule="nonzero">
<path style=" stroke:none;fill-rule:nonzero;fill:rgb(0%,0%,0%);fill-opacity:1;" d="M 11.226562 1.492188 C 5.882812 1.492188 1.492188 5.882812 1.492188 11.226562 L 1.492188 63.769531 C 1.492188 69.089844 5.882812 73.480469 11.226562 73.480469 L 63.769531 73.480469 C 69.089844 73.480469 73.480469 69.089844 73.480469 63.769531 L 73.480469 11.226562 C 73.480469 5.882812 69.089844 1.492188 63.769531 1.492188 Z M 11.226562 7.03125 L 63.769531 7.03125 C 66.105469 7.03125 67.945312 8.871094 67.945312 11.226562 L 67.945312 63.769531 C 67.945312 66.105469 66.105469 67.945312 63.769531 67.945312 L 11.226562 67.945312 C 8.871094 67.945312 7.03125 66.105469 7.03125 63.769531 L 7.03125 11.226562 C 7.03125 8.871094 8.871094 7.03125 11.226562 7.03125 Z M 18.105469 12.570312 C 15.054688 12.570312 12.570312 15.054688 12.570312 18.105469 C 12.570312 21.15625 15.054688 23.644531 18.105469 23.644531 C 21.15625 23.644531 23.644531 21.15625 23.644531 18.105469 C 23.644531 15.054688 21.15625 12.570312 18.105469 12.570312 Z M 12.570312 29.179688 L 12.570312 62.40625 L 23.644531 62.40625 L 23.644531 29.179688 Z M 29.179688 29.179688 L 29.179688 62.40625 L 40.257812 62.40625 L 40.257812 47.566406 C 40.257812 42.960938 40.6875 38.828125 46.226562 38.828125 C 51.675781 38.828125 51.332031 43.78125 51.332031 47.871094 L 51.332031 62.40625 L 62.40625 62.40625 L 62.40625 46.011719 C 62.40625 36.492188 60.417969 29.179688 49.621094 29.179688 C 44.429688 29.179688 41.8125 31.257812 40.386719 34.027344 L 40.257812 34.027344 L 40.257812 29.179688 Z M 29.179688 29.179688 "/>
</g>
</g>
</svg>
