<?xml version="1.0" encoding="UTF-8"?>
<svg xmlns="http://www.w3.org/2000/svg" xmlns:xlink="http://www.w3.org/1999/xlink" width="75pt" height="74.999997pt" viewBox="0 0 75 74.999997" version="1.2">
<defs>
<clipPath id="clip1">
  <path d="M 0 2.8125 L 75 2.8125 L 75 72.5625 L 0 72.5625 Z M 0 2.8125 "/>
</clipPath>
</defs>
<g id="surface1">
<path style=" stroke:none;fill-rule:nonzero;fill:rgb(22.749329%,70.199585%,48.629761%);fill-opacity:1;" d="M 34.167969 43.996094 C 33.578125 43.058594 32.253906 42.726562 31.230469 42.59375 C 30.210938 42.460938 28.917969 42.425781 28.0625 43.117188 C 28.050781 43.128906 28.035156 43.136719 28.019531 43.148438 C 28.101562 43.839844 28.386719 44.546875 28.507812 45.210938 C 28.695312 46.25 28.976562 47.269531 29.125 48.320312 C 29.140625 48.320312 29.160156 48.320312 29.175781 48.328125 C 29.820312 48.5 30.550781 48.316406 31.191406 48.210938 C 31.898438 48.09375 32.613281 47.96875 33.226562 47.566406 C 34.464844 46.746094 35.023438 45.351562 34.167969 43.996094 Z M 34.167969 43.996094 "/>
<path style=" stroke:none;fill-rule:nonzero;fill:rgb(99.609375%,74.899292%,6.269836%);fill-opacity:1;" d="M 71.933594 60.167969 C 71.75 56.582031 72.207031 53.03125 72.617188 49.472656 C 73.050781 45.703125 73.097656 42.007812 72.953125 38.226562 C 72.882812 36.351562 72.832031 34.480469 72.824219 32.605469 C 72.824219 31.664062 72.816406 30.71875 72.746094 29.78125 C 72.71875 29.441406 72.675781 29.117188 72.636719 28.785156 C 70.605469 28.8125 68.574219 28.898438 66.542969 29.023438 C 61.183594 29.363281 55.851562 29.855469 50.476562 29.917969 C 45.101562 29.980469 39.6875 29.800781 34.308594 29.410156 C 28.929688 29.015625 23.5625 28.453125 18.152344 28.402344 C 12.816406 28.351562 7.476562 28.507812 2.140625 28.515625 C 2.140625 41.996094 1.898438 55.472656 1.890625 68.953125 C 6.0625 69.40625 10.242188 69.75 14.429688 69.984375 C 25.34375 70.597656 36.292969 70.601562 47.222656 70.53125 C 52.660156 70.492188 58.097656 70.441406 63.53125 70.441406 C 65.210938 70.441406 66.855469 70.722656 68.519531 70.878906 C 69.617188 70.984375 71.230469 71.261719 72.402344 70.871094 C 72.335938 70.65625 72.34375 70.445312 72.417969 70.238281 C 72.496094 70.027344 72.628906 69.863281 72.8125 69.742188 C 72.785156 68.28125 72.707031 66.816406 72.554688 65.363281 C 72.378906 63.632812 72.019531 61.910156 71.933594 60.167969 Z M 69.765625 67.804688 C 68.960938 67.804688 68.15625 67.824219 67.351562 67.859375 C 64.882812 67.964844 62.417969 68.148438 59.949219 68.222656 C 57.34375 68.300781 54.734375 68.238281 52.128906 68.160156 C 49.425781 68.085938 46.722656 67.933594 44.019531 67.917969 C 41.320312 67.902344 38.671875 67.539062 35.988281 67.578125 C 33.304688 67.617188 30.601562 67.800781 27.902344 67.800781 L 19.507812 67.800781 C 16.8125 67.800781 14.136719 67.738281 11.449219 67.617188 C 10.132812 67.558594 8.8125 67.574219 7.496094 67.574219 C 7.148438 67.578125 6.800781 67.550781 6.457031 67.5 C 6.328125 67.480469 6.199219 67.460938 6.070312 67.445312 C 5.871094 67.554688 5.660156 67.582031 5.4375 67.53125 C 5.214844 67.476562 5.039062 67.355469 4.90625 67.164062 C 4.863281 67.105469 4.824219 67.039062 4.796875 66.96875 C 4.3125 66.605469 4.316406 65.722656 4.882812 65.386719 C 4.917969 65.242188 4.945312 65.09375 4.96875 64.949219 C 5.023438 64.554688 5.054688 64.15625 5.0625 63.757812 C 5.085938 62.820312 5.0625 61.882812 5.023438 60.945312 C 4.917969 58.289062 5.023438 55.628906 5.085938 52.96875 C 5.175781 49.480469 5.121094 45.988281 5.28125 42.503906 C 5.359375 40.832031 5.507812 39.164062 5.558594 37.492188 C 5.585938 36.667969 5.558594 35.855469 5.535156 35.035156 C 5.515625 34.46875 5.355469 33.910156 5.316406 33.351562 C 5.316406 33.308594 5.316406 33.265625 5.316406 33.222656 L 5.316406 33.128906 C 5.3125 32.902344 5.382812 32.703125 5.519531 32.527344 C 5.65625 32.347656 5.835938 32.234375 6.054688 32.1875 C 6.210938 32.058594 6.390625 32 6.59375 32.003906 L 23.308594 32.003906 C 28.648438 32.003906 33.933594 32.003906 39.257812 32.527344 C 44.582031 33.046875 49.921875 33.269531 55.289062 33.277344 C 57.5 33.277344 59.6875 33.375 61.890625 33.488281 C 63.359375 33.5625 64.953125 33.683594 66.433594 33.410156 C 66.59375 33.132812 66.828125 33.003906 67.144531 33.023438 L 67.703125 33.023438 C 68.246094 32.703125 69.222656 33.132812 69.160156 34.011719 C 69.109375 34.699219 69.265625 35.390625 69.339844 36.074219 C 69.410156 36.757812 69.386719 37.464844 69.441406 38.164062 C 69.550781 39.496094 69.867188 40.785156 69.832031 42.132812 C 69.796875 43.429688 69.957031 44.65625 70.089844 45.945312 C 70.203125 47.289062 70.238281 48.632812 70.1875 49.976562 C 70.136719 52.75 69.941406 55.523438 70.019531 58.292969 C 70.09375 61.019531 70.5 63.722656 70.523438 66.453125 L 70.523438 66.515625 C 70.730469 67.074219 70.511719 67.804688 69.765625 67.804688 Z M 69.765625 67.804688 "/>
<path style=" stroke:none;fill-rule:nonzero;fill:rgb(96.469116%,52.159119%,12.159729%);fill-opacity:1;" d="M 40 5.167969 C 39.246094 4.878906 38.242188 4.605469 37.464844 4.953125 C 36.757812 5.273438 36.355469 5.824219 36.476562 6.609375 C 36.511719 6.773438 36.496094 6.933594 36.429688 7.085938 C 36.363281 7.238281 36.257812 7.359375 36.113281 7.441406 C 36.28125 8.675781 36.734375 9.949219 38.070312 10.273438 C 39.316406 10.574219 41.394531 10.34375 41.878906 8.898438 C 42.394531 7.351562 41.4375 5.726562 40 5.167969 Z M 40 5.167969 "/>
<path style=" stroke:none;fill-rule:nonzero;fill:rgb(22.749329%,70.199585%,48.629761%);fill-opacity:1;" d="M 68.15625 58.132812 C 68.117188 55.246094 68.324219 52.371094 68.339844 49.488281 C 68.367188 48.0625 68.296875 46.644531 68.125 45.226562 C 67.957031 43.933594 68.050781 42.683594 67.972656 41.386719 C 67.894531 40.042969 67.558594 38.742188 67.546875 37.386719 C 67.546875 36.621094 67.425781 35.871094 67.363281 35.117188 C 65.964844 35.457031 64.472656 35.457031 63.054688 35.398438 C 60.941406 35.320312 58.835938 35.144531 56.71875 35.144531 C 54.03125 35.144531 51.363281 35.144531 48.683594 35.050781 C 43.378906 34.878906 38.117188 34.066406 32.816406 33.898438 C 27.46875 33.730469 22.101562 33.871094 16.753906 33.871094 L 7.226562 33.871094 C 7.292969 34.316406 7.375 34.761719 7.394531 35.207031 C 7.441406 36.121094 7.394531 37.027344 7.378906 37.941406 C 7.339844 39.839844 7.125 41.738281 7.070312 43.636719 C 6.964844 47.472656 6.949219 51.3125 6.867188 55.144531 C 6.8125 57.617188 6.890625 60.066406 6.90625 62.527344 C 6.90625 63.253906 7.015625 64.609375 6.75 65.664062 L 6.957031 65.695312 C 7.902344 65.824219 9.269531 65.695312 10.367188 65.726562 C 11.605469 65.761719 12.839844 65.867188 14.078125 65.914062 C 16.84375 66.019531 19.617188 65.945312 22.382812 65.945312 C 25.148438 65.945312 27.925781 66 30.683594 65.902344 C 33.371094 65.804688 36.050781 65.644531 38.734375 65.792969 C 44.109375 66.09375 49.488281 66.285156 54.871094 66.371094 C 59.460938 66.445312 64.019531 66.03125 68.597656 65.953125 L 68.644531 65.886719 C 68.570312 63.296875 68.191406 60.726562 68.15625 58.132812 Z M 23.960938 52.765625 C 22.476562 56.089844 18.265625 57.765625 15.195312 55.558594 C 12.507812 53.617188 11.304688 49.789062 11.867188 46.582031 C 11.910156 46.222656 12.105469 45.992188 12.449219 45.890625 C 12.675781 44.988281 13.085938 44.183594 13.675781 43.46875 C 14.265625 42.753906 14.980469 42.203125 15.820312 41.820312 C 17.640625 41.011719 19.679688 41.351562 21.328125 42.417969 C 22.980469 43.488281 24.257812 45.023438 24.648438 47 C 25 48.785156 24.707031 51.097656 23.960938 52.765625 Z M 34.4375 48.992188 C 33.539062 49.585938 32.589844 49.863281 31.542969 50.039062 C 30.871094 50.148438 30.144531 50.296875 29.445312 50.253906 C 29.535156 50.726562 29.628906 51.195312 29.71875 51.675781 C 29.839844 52.351562 29.738281 53.125 29.839844 53.820312 C 29.976562 53.980469 30.039062 54.167969 30.03125 54.378906 L 30.03125 54.605469 C 30.03125 55.65625 28.636719 55.996094 28.238281 54.984375 C 27.839844 53.976562 28.09375 52.871094 27.875 51.816406 C 27.632812 50.640625 27.441406 49.484375 27.257812 48.296875 C 27.074219 47.148438 26.824219 45.988281 26.542969 44.863281 C 26.328125 43.996094 26.125 43.171875 26.1875 42.277344 C 26.191406 42.167969 26.214844 42.0625 26.261719 41.964844 C 26.304688 41.863281 26.371094 41.78125 26.453125 41.710938 C 26.539062 41.640625 26.632812 41.589844 26.738281 41.5625 C 26.84375 41.53125 26.949219 41.527344 27.058594 41.546875 C 28.371094 40.515625 30.414062 40.511719 31.972656 40.828125 C 33.671875 41.167969 35.332031 41.929688 36.042969 43.621094 C 36.25 44.09375 36.367188 44.585938 36.398438 45.097656 C 36.429688 45.613281 36.371094 46.117188 36.226562 46.609375 C 36.078125 47.101562 35.851562 47.554688 35.542969 47.964844 C 35.234375 48.375 34.867188 48.714844 34.4375 48.992188 Z M 47.53125 42.480469 C 44.886719 42.480469 42.242188 42.390625 39.597656 42.375 C 39.9375 43.769531 40.160156 45.183594 40.269531 46.617188 L 40.335938 46.617188 C 42.546875 46.707031 44.734375 46.300781 46.941406 46.277344 C 48.128906 46.265625 48.273438 48.128906 47.082031 48.144531 C 44.878906 48.164062 42.691406 48.574219 40.480469 48.484375 L 40.410156 48.484375 C 40.476562 49.285156 40.554688 50.097656 40.546875 50.898438 C 40.539062 51.535156 40.515625 52.179688 40.554688 52.816406 C 40.597656 53.457031 40.507812 53.820312 41.117188 53.902344 C 41.722656 53.980469 42.386719 53.917969 43.019531 53.886719 C 43.625 53.871094 44.226562 53.898438 44.824219 53.960938 C 45.199219 53.988281 46.03125 54.101562 46.273438 53.914062 C 47.214844 53.175781 48.242188 54.726562 47.304688 55.460938 C 46.214844 56.308594 44.425781 55.671875 43.164062 55.746094 C 41.792969 55.828125 39.738281 56.085938 39.027344 54.558594 C 38.691406 53.828125 38.691406 52.90625 38.691406 52.117188 C 38.691406 51.210938 38.660156 50.328125 38.605469 49.421875 C 38.457031 47 38.347656 44.546875 37.632812 42.207031 C 37.5625 41.992188 37.566406 41.78125 37.65625 41.570312 C 37.742188 41.359375 37.886719 41.203125 38.089844 41.105469 C 38.132812 40.921875 38.230469 40.777344 38.378906 40.664062 C 38.53125 40.554688 38.695312 40.503906 38.882812 40.515625 C 41.71875 40.515625 44.550781 40.628906 47.386719 40.628906 C 48.585938 40.625 48.730469 42.492188 47.542969 42.480469 Z M 61.984375 55.042969 C 61.984375 55.773438 61.296875 56.113281 60.761719 55.992188 C 60.371094 56.367188 59.730469 56.457031 59.402344 55.859375 C 58.0625 53.382812 56.5 51.003906 55.0625 48.574219 C 54.472656 47.582031 53.886719 46.585938 53.316406 45.578125 C 53.371094 47.191406 53.460938 48.804688 53.589844 50.402344 C 53.71875 51.929688 53.488281 53.484375 53.648438 55.015625 C 53.691406 55.132812 53.710938 55.253906 53.703125 55.378906 L 53.703125 55.425781 C 53.683594 56.054688 53.03125 56.753906 52.371094 56.335938 C 52.097656 56.152344 51.929688 55.894531 51.867188 55.570312 C 51.800781 55.183594 51.769531 54.792969 51.769531 54.398438 C 51.714844 53.308594 51.855469 52.214844 51.796875 51.121094 C 51.644531 48.257812 51.433594 45.386719 51.421875 42.515625 C 51.421875 42.375 51.453125 42.238281 51.507812 42.109375 C 51.566406 41.980469 51.648438 41.871094 51.753906 41.777344 C 51.855469 41.6875 51.976562 41.617188 52.109375 41.578125 C 52.242188 41.535156 52.378906 41.523438 52.515625 41.542969 C 53.058594 41.371094 53.652344 41.832031 53.710938 42.390625 C 53.71875 42.410156 53.730469 42.4375 53.746094 42.46875 C 53.828125 42.65625 53.878906 42.757812 53.898438 42.792969 C 54.144531 43.269531 54.402344 43.742188 54.667969 44.210938 C 55.445312 45.585938 56.246094 46.945312 57.054688 48.296875 C 58.0625 50.003906 59.140625 51.691406 60.140625 53.40625 C 60.09375 49.589844 59.933594 45.769531 59.929688 41.957031 C 59.929688 40.757812 61.777344 40.609375 61.777344 41.8125 C 61.777344 46.09375 61.980469 50.375 61.996094 54.65625 L 61.996094 54.710938 Z M 61.984375 55.042969 "/>
<path style=" stroke:none;fill-rule:nonzero;fill:rgb(22.749329%,70.199585%,48.629761%);fill-opacity:1;" d="M 20.304688 43.960938 C 19.039062 43.257812 17.570312 42.855469 16.25 43.671875 C 15.625 44.035156 15.125 44.527344 14.75 45.144531 C 14.371094 45.761719 14.160156 46.4375 14.121094 47.160156 C 14.121094 47.328125 14.074219 47.480469 13.972656 47.613281 C 13.867188 47.746094 13.738281 47.832031 13.574219 47.871094 C 13.484375 50.046875 14.320312 52.445312 15.976562 53.8125 C 18.121094 55.585938 21.277344 54.457031 22.300781 51.929688 C 23.441406 49.125 23.171875 45.546875 20.304688 43.960938 Z M 20.304688 43.960938 "/>
<path style=" stroke:none;fill-rule:nonzero;fill:rgb(0.389099%,0.389099%,0.389099%);fill-opacity:1;" d="M 70.5 66.527344 L 70.5 66.464844 C 70.484375 63.738281 70.078125 61.03125 70 58.304688 C 69.921875 55.53125 70.117188 52.753906 70.167969 49.988281 C 70.214844 48.644531 70.179688 47.300781 70.066406 45.957031 C 69.933594 44.667969 69.773438 43.441406 69.808594 42.144531 C 69.84375 40.796875 69.527344 39.507812 69.421875 38.175781 C 69.363281 37.476562 69.390625 36.78125 69.316406 36.085938 C 69.242188 35.390625 69.089844 34.710938 69.136719 34.023438 C 69.199219 33.144531 68.226562 32.714844 67.679688 33.035156 L 67.121094 33.035156 C 66.808594 33.015625 66.570312 33.144531 66.414062 33.421875 C 64.929688 33.695312 63.335938 33.574219 61.871094 33.5 C 59.664062 33.386719 57.480469 33.292969 55.269531 33.289062 C 49.894531 33.289062 44.578125 33.0625 39.234375 32.539062 C 33.894531 32.015625 28.632812 32.015625 23.285156 32.015625 L 6.585938 32.015625 C 6.382812 32.011719 6.203125 32.070312 6.042969 32.199219 C 5.824219 32.246094 5.648438 32.359375 5.507812 32.539062 C 5.371094 32.714844 5.304688 32.914062 5.308594 33.140625 L 5.308594 33.234375 C 5.304688 33.277344 5.304688 33.320312 5.308594 33.363281 C 5.347656 33.921875 5.503906 34.480469 5.523438 35.046875 C 5.550781 35.867188 5.574219 36.679688 5.550781 37.503906 C 5.496094 39.175781 5.347656 40.84375 5.273438 42.515625 C 5.113281 46 5.164062 49.492188 5.074219 52.980469 C 5.007812 55.636719 4.90625 58.296875 5.011719 60.957031 C 5.050781 61.894531 5.074219 62.832031 5.054688 63.769531 C 5.046875 64.167969 5.011719 64.566406 4.957031 64.960938 C 4.9375 65.105469 4.90625 65.253906 4.871094 65.398438 C 4.308594 65.738281 4.304688 66.621094 4.785156 66.984375 C 4.816406 67.050781 4.851562 67.117188 4.894531 67.175781 C 5.027344 67.367188 5.203125 67.488281 5.425781 67.542969 C 5.648438 67.59375 5.859375 67.566406 6.0625 67.457031 C 6.191406 67.472656 6.316406 67.492188 6.445312 67.511719 C 6.789062 67.5625 7.136719 67.589844 7.484375 67.585938 C 8.804688 67.585938 10.121094 67.570312 11.4375 67.628906 C 14.125 67.75 16.8125 67.8125 19.5 67.8125 L 27.894531 67.8125 C 30.589844 67.8125 33.28125 67.628906 35.980469 67.589844 C 38.675781 67.550781 41.328125 67.910156 44.011719 67.929688 C 46.691406 67.949219 49.417969 68.097656 52.117188 68.175781 C 54.722656 68.25 57.332031 68.3125 59.9375 68.234375 C 62.40625 68.160156 64.871094 67.976562 67.339844 67.871094 C 68.144531 67.835938 68.949219 67.820312 69.753906 67.816406 C 70.511719 67.804688 70.730469 67.074219 70.5 66.527344 Z M 68.597656 65.953125 C 64.019531 66.023438 59.460938 66.445312 54.875 66.371094 C 49.492188 66.28125 44.113281 66.089844 38.738281 65.792969 C 36.050781 65.644531 33.375 65.804688 30.6875 65.902344 C 27.925781 66 25.148438 65.945312 22.386719 65.945312 C 19.628906 65.945312 16.847656 66.019531 14.082031 65.914062 C 12.84375 65.867188 11.609375 65.761719 10.371094 65.726562 C 9.273438 65.695312 7.90625 65.824219 6.960938 65.695312 L 6.753906 65.664062 C 7.019531 64.609375 6.921875 63.253906 6.910156 62.527344 C 6.890625 60.0625 6.816406 57.617188 6.871094 55.144531 C 6.953125 51.3125 6.96875 47.472656 7.074219 43.636719 C 7.128906 41.738281 7.34375 39.839844 7.382812 37.941406 C 7.398438 37.027344 7.441406 36.121094 7.398438 35.207031 C 7.375 34.761719 7.292969 34.316406 7.230469 33.871094 L 16.757812 33.871094 C 22.105469 33.871094 27.472656 33.734375 32.820312 33.898438 C 38.121094 34.070312 43.382812 34.878906 48.6875 35.050781 C 51.363281 35.136719 54.042969 35.144531 56.722656 35.144531 C 58.839844 35.144531 60.945312 35.316406 63.058594 35.398438 C 64.476562 35.453125 65.96875 35.460938 67.367188 35.117188 C 67.429688 35.871094 67.542969 36.621094 67.546875 37.386719 C 67.558594 38.742188 67.898438 40.042969 67.976562 41.386719 C 68.054688 42.679688 67.960938 43.933594 68.128906 45.226562 C 68.296875 46.644531 68.371094 48.0625 68.34375 49.488281 C 68.328125 52.375 68.121094 55.25 68.160156 58.132812 C 68.195312 60.726562 68.574219 63.296875 68.648438 65.886719 Z M 68.597656 65.953125 "/>
<g clip-path="url(#clip1)" clip-rule="nonzero">
<path style=" stroke:none;fill-rule:nonzero;fill:rgb(0.389099%,0.389099%,0.389099%);fill-opacity:1;" d="M 73.792969 60.34375 C 73.515625 56.621094 74.082031 52.902344 74.503906 49.214844 C 74.914062 45.601562 74.945312 42.046875 74.808594 38.417969 C 74.738281 36.542969 74.671875 34.671875 74.671875 32.792969 C 74.671875 31.847656 74.660156 30.902344 74.609375 29.957031 C 74.570312 29.21875 74.417969 28.476562 74.417969 27.742188 C 74.417969 27.109375 73.914062 26.847656 73.429688 26.917969 C 70.121094 26.917969 66.832031 27.148438 63.542969 27.390625 C 63.511719 27.285156 63.46875 27.183594 63.410156 27.09375 C 63.332031 26.960938 63.234375 26.847656 63.117188 26.753906 C 59.925781 23.082031 56.175781 20.046875 52.660156 16.707031 C 50.730469 14.902344 49.066406 12.871094 47.675781 10.613281 C 47.121094 9.703125 46.613281 8.824219 45.910156 8.019531 C 45.175781 7.210938 44.394531 6.453125 43.558594 5.753906 C 43.445312 5.648438 43.3125 5.578125 43.160156 5.542969 C 42.441406 4.410156 41.246094 3.574219 39.886719 3.175781 C 38.613281 2.804688 37.417969 2.859375 36.25 3.496094 C 35.589844 3.859375 35.121094 4.394531 34.84375 5.101562 C 34.621094 5.195312 34.472656 5.355469 34.398438 5.582031 C 34.027344 6.574219 33.136719 7.320312 32.347656 7.976562 C 31.40625 8.757812 30.402344 9.480469 29.414062 10.203125 C 26.90625 12.046875 24.46875 13.847656 22.175781 15.972656 C 19.882812 18.101562 17.644531 20.296875 15.253906 22.328125 C 14.339844 23.128906 13.382812 23.871094 12.382812 24.558594 C 11.730469 24.996094 10.828125 25.453125 10.445312 26.179688 C 10.378906 26.304688 10.339844 26.4375 10.332031 26.578125 L 8.847656 26.597656 C 6.453125 26.628906 4.054688 26.664062 1.660156 26.664062 C 1.078125 26.664062 0.820312 27.109375 0.839844 27.566406 C 0.476562 27.738281 0.296875 28.027344 0.308594 28.429688 C 0.308594 42.261719 0.0546875 56.09375 0.0546875 69.925781 C 0.0546875 70.589844 0.617188 70.839844 1.121094 70.730469 C 1.179688 70.75 1.242188 70.761719 1.304688 70.769531 C 12.136719 71.957031 23.039062 72.335938 33.925781 72.417969 C 39.390625 72.457031 44.855469 72.417969 50.320312 72.382812 C 53.039062 72.363281 55.761719 72.34375 58.480469 72.328125 C 60.714844 72.316406 63 72.171875 65.226562 72.394531 C 66.808594 72.554688 68.378906 72.773438 69.96875 72.855469 C 71.3125 72.925781 72.855469 72.929688 74.019531 72.152344 C 74.265625 72.003906 74.398438 71.785156 74.421875 71.5 C 74.589844 71.296875 74.675781 71.0625 74.675781 70.800781 C 74.675781 69.039062 74.597656 67.28125 74.433594 65.523438 C 74.269531 63.769531 73.921875 62.078125 73.792969 60.34375 Z M 36.476562 6.609375 C 36.355469 5.824219 36.757812 5.273438 37.464844 4.953125 C 38.242188 4.605469 39.246094 4.878906 40 5.167969 C 41.4375 5.726562 42.394531 7.351562 41.878906 8.902344 C 41.394531 10.347656 39.316406 10.582031 38.070312 10.277344 C 36.734375 9.949219 36.28125 8.675781 36.113281 7.441406 C 36.257812 7.359375 36.363281 7.238281 36.429688 7.085938 C 36.496094 6.933594 36.511719 6.773438 36.476562 6.609375 Z M 14.023438 25.691406 C 15.152344 24.910156 16.191406 23.964844 17.214844 23.0625 C 19.535156 21.027344 21.746094 18.878906 24.003906 16.785156 C 26.328125 14.636719 28.925781 12.921875 31.429688 11.011719 C 32.382812 10.285156 33.539062 9.527344 34.488281 8.617188 C 34.976562 10.386719 36.054688 11.8125 38.113281 12.195312 C 40.503906 12.640625 43.273438 11.425781 43.769531 8.875 C 43.789062 8.757812 43.804688 8.640625 43.820312 8.523438 C 44.058594 8.757812 44.292969 8.996094 44.519531 9.246094 C 45.25 10.050781 45.738281 11.015625 46.300781 11.9375 C 47.660156 14.148438 49.367188 16.105469 51.226562 17.902344 C 54.582031 21.160156 58.261719 24.046875 61.371094 27.550781 C 60.070312 27.648438 58.773438 27.738281 57.472656 27.816406 C 52.0625 28.132812 46.636719 28.144531 41.21875 27.945312 C 35.804688 27.746094 30.460938 27.113281 25.074219 26.785156 C 20.972656 26.535156 16.863281 26.515625 12.757812 26.550781 C 13.171875 26.257812 13.601562 25.980469 14.023438 25.691406 Z M 71.933594 60.167969 C 72.019531 61.910156 72.375 63.632812 72.558594 65.371094 C 72.707031 66.828125 72.785156 68.289062 72.816406 69.753906 C 72.628906 69.875 72.496094 70.039062 72.421875 70.246094 C 72.34375 70.457031 72.339844 70.667969 72.402344 70.882812 C 71.226562 71.273438 69.617188 70.996094 68.519531 70.890625 C 66.859375 70.730469 65.203125 70.449219 63.53125 70.449219 C 58.097656 70.449219 52.660156 70.503906 47.226562 70.539062 C 36.292969 70.613281 25.351562 70.609375 14.433594 69.996094 C 10.246094 69.761719 6.066406 69.421875 1.890625 68.96875 C 1.890625 55.488281 2.136719 42.011719 2.144531 28.53125 C 7.480469 28.53125 12.816406 28.359375 18.15625 28.414062 C 23.570312 28.46875 28.914062 29.035156 34.308594 29.425781 C 39.703125 29.8125 45.085938 29.992188 50.476562 29.933594 C 55.871094 29.875 61.183594 29.375 66.542969 29.039062 C 68.574219 28.914062 70.605469 28.828125 72.640625 28.800781 C 72.675781 29.140625 72.722656 29.464844 72.746094 29.796875 C 72.820312 30.734375 72.824219 31.679688 72.828125 32.621094 C 72.828125 34.496094 72.882812 36.367188 72.953125 38.242188 C 73.097656 42.03125 73.050781 45.71875 72.617188 49.488281 C 72.210938 53.03125 71.75 56.578125 71.933594 60.167969 Z M 71.933594 60.167969 "/>
</g>
<path style=" stroke:none;fill-rule:nonzero;fill:rgb(0.389099%,0.389099%,0.389099%);fill-opacity:1;" d="M 24.648438 46.988281 C 24.257812 45.015625 22.980469 43.476562 21.328125 42.40625 C 19.679688 41.339844 17.636719 41 15.820312 41.808594 C 14.980469 42.191406 14.265625 42.742188 13.675781 43.457031 C 13.085938 44.167969 12.675781 44.976562 12.449219 45.878906 C 12.105469 45.980469 11.910156 46.210938 11.867188 46.570312 C 11.304688 49.785156 12.507812 53.605469 15.195312 55.546875 C 18.265625 57.765625 22.476562 56.082031 23.960938 52.757812 C 24.707031 51.097656 25 48.785156 24.648438 46.988281 Z M 22.304688 51.933594 C 21.28125 54.464844 18.125 55.59375 15.980469 53.816406 C 14.324219 52.445312 13.492188 50.046875 13.578125 47.878906 C 13.742188 47.839844 13.875 47.753906 13.976562 47.621094 C 14.078125 47.488281 14.128906 47.335938 14.125 47.167969 C 14.167969 46.441406 14.375 45.769531 14.75 45.152344 C 15.128906 44.535156 15.628906 44.042969 16.25 43.679688 C 17.570312 42.859375 19.039062 43.265625 20.304688 43.96875 C 23.171875 45.546875 23.441406 49.125 22.304688 51.933594 Z M 22.304688 51.933594 "/>
<path style=" stroke:none;fill-rule:nonzero;fill:rgb(0.389099%,0.389099%,0.389099%);fill-opacity:1;" d="M 36.046875 43.621094 C 35.328125 41.925781 33.675781 41.171875 31.976562 40.828125 C 30.425781 40.511719 28.375 40.515625 27.058594 41.546875 C 26.953125 41.527344 26.847656 41.53125 26.742188 41.5625 C 26.636719 41.589844 26.542969 41.640625 26.457031 41.710938 C 26.375 41.78125 26.308594 41.863281 26.261719 41.964844 C 26.214844 42.0625 26.191406 42.167969 26.191406 42.277344 C 26.128906 43.171875 26.332031 43.996094 26.546875 44.863281 C 26.828125 45.988281 27.078125 47.148438 27.261719 48.296875 C 27.445312 49.488281 27.636719 50.640625 27.878906 51.816406 C 28.097656 52.871094 27.84375 53.96875 28.242188 54.984375 C 28.640625 56 30.035156 55.664062 30.035156 54.605469 L 30.035156 54.371094 C 30.042969 54.160156 29.980469 53.976562 29.84375 53.8125 C 29.738281 53.121094 29.84375 52.351562 29.722656 51.667969 C 29.632812 51.191406 29.539062 50.71875 29.449219 50.25 C 30.144531 50.289062 30.875 50.144531 31.542969 50.03125 C 32.59375 49.863281 33.539062 49.578125 34.4375 48.988281 C 34.867188 48.710938 35.238281 48.367188 35.542969 47.957031 C 35.851562 47.550781 36.078125 47.097656 36.226562 46.605469 C 36.375 46.113281 36.433594 45.613281 36.402344 45.097656 C 36.371094 44.585938 36.253906 44.09375 36.046875 43.621094 Z M 33.222656 47.566406 C 32.609375 47.96875 31.898438 48.09375 31.191406 48.210938 C 30.550781 48.316406 29.820312 48.496094 29.175781 48.328125 C 29.160156 48.328125 29.140625 48.328125 29.125 48.320312 C 28.976562 47.269531 28.695312 46.25 28.503906 45.210938 C 28.386719 44.546875 28.097656 43.839844 28.019531 43.148438 C 28.035156 43.136719 28.046875 43.128906 28.0625 43.117188 C 28.917969 42.429688 30.203125 42.464844 31.230469 42.59375 C 32.257812 42.726562 33.582031 43.058594 34.167969 43.996094 C 35.023438 45.351562 34.464844 46.746094 33.222656 47.566406 Z M 33.222656 47.566406 "/>
<path style=" stroke:none;fill-rule:nonzero;fill:rgb(0.389099%,0.389099%,0.389099%);fill-opacity:1;" d="M 47.398438 40.625 C 44.5625 40.625 41.730469 40.515625 38.894531 40.511719 C 38.707031 40.5 38.542969 40.550781 38.390625 40.660156 C 38.242188 40.773438 38.144531 40.917969 38.101562 41.101562 C 37.898438 41.199219 37.753906 41.355469 37.667969 41.566406 C 37.578125 41.773438 37.574219 41.988281 37.644531 42.203125 C 38.359375 44.542969 38.46875 46.992188 38.617188 49.417969 C 38.671875 50.320312 38.703125 51.207031 38.703125 52.109375 C 38.703125 52.902344 38.695312 53.824219 39.039062 54.554688 C 39.75 56.082031 41.804688 55.820312 43.175781 55.742188 C 44.4375 55.667969 46.226562 56.308594 47.316406 55.457031 C 48.253906 54.722656 47.226562 53.167969 46.285156 53.90625 C 46.042969 54.097656 45.210938 53.980469 44.835938 53.953125 C 44.238281 53.890625 43.636719 53.867188 43.03125 53.878906 C 42.398438 53.914062 41.761719 53.976562 41.128906 53.894531 C 40.496094 53.8125 40.613281 53.476562 40.566406 52.8125 C 40.523438 52.152344 40.550781 51.53125 40.558594 50.890625 C 40.566406 50.09375 40.488281 49.28125 40.421875 48.476562 L 40.492188 48.476562 C 42.703125 48.570312 44.890625 48.160156 47.09375 48.140625 C 48.285156 48.128906 48.140625 46.273438 46.953125 46.273438 C 44.746094 46.292969 42.558594 46.703125 40.347656 46.613281 L 40.28125 46.613281 C 40.171875 45.179688 39.949219 43.765625 39.609375 42.367188 C 42.253906 42.386719 44.898438 42.472656 47.542969 42.476562 C 48.730469 42.492188 48.585938 40.625 47.398438 40.625 Z M 47.398438 40.625 "/>
<path style=" stroke:none;fill-rule:nonzero;fill:rgb(0.389099%,0.389099%,0.389099%);fill-opacity:1;" d="M 61.996094 54.640625 C 61.976562 50.359375 61.777344 46.082031 61.773438 41.796875 C 61.773438 40.59375 59.925781 40.746094 59.925781 41.941406 C 59.925781 45.757812 60.09375 49.578125 60.136719 53.394531 C 59.128906 51.675781 58.066406 50 57.050781 48.285156 C 56.242188 46.925781 55.441406 45.570312 54.664062 44.195312 C 54.402344 43.726562 54.140625 43.257812 53.894531 42.777344 C 53.875 42.742188 53.824219 42.644531 53.742188 42.453125 C 53.730469 42.421875 53.71875 42.398438 53.707031 42.375 C 53.648438 41.824219 53.054688 41.371094 52.511719 41.527344 C 52.375 41.511719 52.238281 41.523438 52.105469 41.5625 C 51.972656 41.605469 51.855469 41.671875 51.75 41.765625 C 51.644531 41.859375 51.5625 41.96875 51.503906 42.097656 C 51.449219 42.226562 51.417969 42.359375 51.417969 42.5 C 51.429688 45.371094 51.640625 48.242188 51.792969 51.109375 C 51.851562 52.199219 51.710938 53.292969 51.769531 54.386719 C 51.765625 54.78125 51.796875 55.167969 51.867188 55.558594 C 51.925781 55.882812 52.09375 56.136719 52.367188 56.320312 C 53.03125 56.738281 53.679688 56.042969 53.699219 55.414062 L 53.699219 55.367188 C 53.707031 55.242188 53.6875 55.117188 53.644531 55 C 53.476562 53.472656 53.714844 51.921875 53.585938 50.390625 C 53.457031 48.792969 53.367188 47.179688 53.3125 45.566406 C 53.882812 46.574219 54.472656 47.566406 55.058594 48.5625 C 56.496094 50.988281 58.050781 53.367188 59.402344 55.847656 C 59.726562 56.441406 60.367188 56.355469 60.757812 55.976562 C 61.292969 56.101562 61.984375 55.761719 61.984375 55.027344 L 61.984375 54.6875 C 61.996094 54.679688 61.996094 54.660156 61.996094 54.640625 Z M 61.996094 54.640625 "/>
</g>
</svg>
