<?xml version="1.0" encoding="UTF-8"?>
<svg xmlns="http://www.w3.org/2000/svg" xmlns:xlink="http://www.w3.org/1999/xlink" width="75pt" height="74.999997pt" viewBox="0 0 75 74.999997" version="1.2">
<g id="surface1">
<path style="fill:none;stroke-width:1;stroke-linecap:round;stroke-linejoin:round;stroke:rgb(0%,0%,0%);stroke-opacity:1;stroke-miterlimit:4;" d="M 4.327344 0.999532 L 19.672658 0.999532 C 19.891877 0.999532 20.107502 1.021094 20.321929 1.064219 C 20.536356 1.106146 20.743596 1.169636 20.946044 1.25349 C 21.147294 1.336146 21.33896 1.439167 21.521044 1.560157 C 21.703127 1.682344 21.870835 1.820105 22.025367 1.974636 C 22.179898 2.127969 22.317658 2.296876 22.438648 2.477761 C 22.560836 2.659844 22.662658 2.851511 22.746513 3.052761 C 22.830367 3.255209 22.892658 3.462449 22.935783 3.676876 C 22.978908 3.891303 23.000471 4.108126 23.000471 4.326147 L 23.000471 19.671461 C 23.000471 19.89068 22.978908 20.107503 22.935783 20.320732 C 22.892658 20.535159 22.830367 20.743596 22.746513 20.946044 C 22.662658 21.147294 22.559638 21.338961 22.438648 21.521044 C 22.317658 21.703128 22.1787 21.870836 22.024169 22.025367 C 21.869638 22.179899 21.701929 22.317659 21.519846 22.438649 C 21.33896 22.560836 21.146096 22.662659 20.944846 22.746513 C 20.742398 22.830368 20.535158 22.893857 20.320731 22.935784 C 20.106304 22.978909 19.889481 23.000472 19.67146 23.000472 L 4.327344 23.000472 C 4.108125 23.000472 3.8925 22.978909 3.678073 22.935784 C 3.463646 22.893857 3.256406 22.830368 3.053958 22.746513 C 2.852708 22.663857 2.661041 22.560836 2.478958 22.439847 C 2.296875 22.317659 2.129166 22.179899 1.974635 22.025367 C 1.820104 21.872034 1.682343 21.703128 1.561354 21.522242 C 1.439166 21.340159 1.337343 21.148492 1.253489 20.947242 C 1.169635 20.744794 1.107343 20.537555 1.064218 20.323128 C 1.021093 20.108701 0.999531 19.891878 0.999531 19.673857 L 0.999531 4.326147 C 0.999531 4.108126 1.021093 3.891303 1.064218 3.676876 C 1.107343 3.462449 1.169635 3.255209 1.253489 3.052761 C 1.337343 2.851511 1.439166 2.659844 1.561354 2.477761 C 1.682343 2.296876 1.820104 2.127969 1.974635 1.974636 C 2.129166 1.820105 2.296875 1.682344 2.478958 1.560157 C 2.661041 1.439167 2.852708 1.336146 3.053958 1.25349 C 3.256406 1.169636 3.463646 1.106146 3.678073 1.064219 C 3.8925 1.021094 4.108125 0.999532 4.327344 0.999532 Z M 4.327344 0.999532 " transform="matrix(3.260869,0,0,3.260869,-1.630433,-1.630436)"/>
<path style="fill:none;stroke-width:1;stroke-linecap:round;stroke-linejoin:round;stroke:rgb(0%,0%,0%);stroke-opacity:1;stroke-miterlimit:4;" d="M 18.999429 9.041147 C 19.060523 9.184897 19.116825 9.329845 19.168335 9.477189 C 19.221043 9.624533 19.267762 9.773074 19.310887 9.924012 C 19.352814 10.073751 19.391148 10.224689 19.424689 10.376824 C 19.458231 10.530158 19.485783 10.683491 19.509741 10.836824 C 19.5337 10.991356 19.552866 11.145887 19.567241 11.301616 C 19.581616 11.457345 19.5912 11.613075 19.595991 11.768804 C 19.600783 11.924533 19.600783 12.08146 19.595991 12.237189 C 19.5912 12.392918 19.581616 12.548648 19.567241 12.704377 C 19.552866 12.858908 19.5337 13.014637 19.509741 13.167971 C 19.485783 13.322502 19.457033 13.475835 19.423491 13.627971 C 19.38995 13.781304 19.351616 13.932242 19.308491 14.081981 C 19.266564 14.231721 19.218648 14.38146 19.167137 14.527606 C 19.114429 14.67495 19.058127 14.821096 18.998231 14.964846 C 18.937137 15.108596 18.871252 15.24995 18.801773 15.388908 C 18.732293 15.529065 18.658023 15.666825 18.580158 15.80219 C 18.502293 15.936356 18.420835 16.069325 18.334585 16.199898 C 18.248335 16.329273 18.157293 16.45745 18.063856 16.580836 C 17.96922 16.705419 17.872189 16.827606 17.770366 16.9462 C 17.668543 17.064794 17.563127 17.179794 17.455314 17.2912 C 17.346304 17.403804 17.233699 17.512815 17.118699 17.617034 C 17.003699 17.72245 16.885106 17.824273 16.762918 17.921304 C 16.641929 18.019534 16.517345 18.114169 16.390366 18.204013 C 16.262189 18.293857 16.132814 18.380107 15.999845 18.462763 C 15.866876 18.544221 15.731512 18.622086 15.594949 18.696357 C 15.457189 18.76943 15.317033 18.838909 15.175678 18.904794 C 15.034324 18.969482 14.890574 19.030575 14.744428 19.086878 C 14.59948 19.14318 14.452137 19.19469 14.303595 19.242607 C 14.155053 19.289325 14.004116 19.33245 13.853178 19.370784 C 13.702241 19.409117 13.548907 19.441461 13.395574 19.470211 C 13.242241 19.498961 13.088907 19.522919 12.933178 19.542086 C 12.778647 19.561253 12.622918 19.575628 12.467188 19.585211 C 12.311459 19.594794 12.15573 19.599586 12.000001 19.599586 C 11.827501 19.599586 11.653803 19.592398 11.483699 19.580419 L 14.661772 14.079585 C 14.736043 13.983752 14.805522 13.884325 14.87021 13.781304 C 14.933699 13.678283 14.991199 13.571669 15.043908 13.46146 C 15.096616 13.35245 15.142137 13.239846 15.182866 13.126043 C 15.223595 13.011043 15.257137 12.894846 15.284689 12.776252 C 15.313439 12.657658 15.335001 12.539064 15.349376 12.418075 C 15.363751 12.297085 15.373335 12.176095 15.374533 12.055106 C 15.376928 11.932918 15.372137 11.811929 15.361355 11.690939 C 15.349376 11.56995 15.332605 11.450158 15.308647 11.331564 C 15.284689 11.211772 15.253543 11.094377 15.217605 10.979377 C 15.18047 10.863179 15.137345 10.749377 15.089428 10.63797 C 15.040314 10.527762 14.98521 10.418751 14.925314 10.313335 C 14.86422 10.207918 14.798335 10.106095 14.72646 10.007866 C 14.655782 9.909637 14.579116 9.816199 14.497657 9.726356 C 14.416199 9.636512 14.329949 9.550262 14.238907 9.470001 C 14.147866 9.389741 14.05323 9.313074 13.953803 9.243595 C 13.855574 9.172918 13.752553 9.107033 13.647137 9.048335 M 5.960104 7.400001 C 6.057136 7.273022 6.158959 7.148439 6.263177 7.027449 C 6.368594 6.906459 6.477604 6.789064 6.590209 6.675261 C 6.702813 6.560261 6.819011 6.450053 6.938802 6.343439 C 7.057396 6.236824 7.180782 6.133803 7.306563 6.034376 C 7.432344 5.936147 7.561719 5.840313 7.69349 5.75047 C 7.826459 5.659428 7.960625 5.57198 8.098386 5.490522 C 8.236146 5.407865 8.376303 5.330001 8.518855 5.256928 C 8.660209 5.182657 8.805157 5.114376 8.952501 5.049688 C 9.098646 4.986199 9.247188 4.926303 9.398126 4.871199 C 9.549063 4.816095 9.701199 4.765782 9.854532 4.721459 C 10.009063 4.675938 10.163594 4.635209 10.320522 4.60047 C 10.476251 4.564532 10.633178 4.534584 10.791303 4.50823 C 10.950626 4.483074 11.108751 4.462709 11.268074 4.447136 C 11.428595 4.431563 11.587918 4.420782 11.748438 4.41599 C 11.907761 4.411199 12.068282 4.410001 12.228803 4.414792 C 12.389324 4.419584 12.548647 4.430365 12.70797 4.44474 C 12.868491 4.459115 13.026616 4.47948 13.185939 4.504636 C 13.344064 4.529792 13.500991 4.55974 13.657918 4.59448 C 13.813647 4.62922 13.969376 4.668751 14.12271 4.714272 C 14.277241 4.758595 14.429376 4.808907 14.580314 4.862813 C 14.731251 4.91672 14.879793 4.976615 15.027137 5.040105 C 15.173283 5.103595 15.31823 5.171876 15.460783 5.244949 C 15.604533 5.318022 15.744689 5.395886 15.882449 5.477345 C 16.02021 5.560001 16.155574 5.645053 16.287345 5.736095 C 16.420314 5.825938 16.549689 5.920574 16.67547 6.020001 C 16.802449 6.11823 16.924637 6.220053 17.044429 6.326668 C 17.16422 6.433282 17.281616 6.543491 17.39422 6.657293 C 17.506824 6.771095 17.615835 6.888491 17.721252 7.008282 C 17.827866 7.129272 17.928491 7.252657 18.02672 7.380834 C 18.123752 7.507814 18.218387 7.637189 18.307033 7.770157 C 18.396877 7.903126 18.481929 8.039689 18.562189 8.177449 C 18.643648 8.316407 18.720314 8.456564 18.792189 8.600314 L 11.984428 8.600314 L 11.984428 8.609897 C 11.764011 8.609897 11.54599 8.63146 11.329168 8.674585 C 11.112345 8.71771 10.902709 8.781199 10.697865 8.865053 C 10.494219 8.948908 10.300157 9.051928 10.115678 9.174116 C 9.932397 9.296303 9.761094 9.434064 9.604167 9.589793 C 9.44724 9.745522 9.307084 9.914429 9.183698 10.096512 C 9.059115 10.279793 8.954896 10.472658 8.868646 10.676304 C 8.782396 10.878752 8.716511 11.088387 8.67099 11.30521 C 8.626667 11.520835 8.602709 11.738856 8.600313 11.96047 M 10.99974 19.530107 C 10.841615 19.508544 10.68349 19.48219 10.525365 19.451044 C 10.368438 19.419898 10.212709 19.383961 10.05698 19.343232 C 9.902449 19.301305 9.749115 19.255784 9.59698 19.205471 C 9.444844 19.153961 9.293907 19.098857 9.145365 19.038961 C 8.996823 18.977867 8.850678 18.91318 8.706928 18.8437 C 8.56198 18.774221 8.419428 18.69995 8.280469 18.620888 C 8.140313 18.543023 8.00375 18.459169 7.868386 18.372919 C 7.734219 18.285471 7.602448 18.193232 7.474271 18.098596 C 7.344896 18.002763 7.219115 17.903336 7.096927 17.799117 C 6.97474 17.696096 6.856146 17.588284 6.739948 17.478075 C 6.624948 17.366669 6.512344 17.251669 6.404531 17.134273 C 6.295521 17.015679 6.191302 16.893492 6.090677 16.768909 C 5.990052 16.644325 5.893021 16.516148 5.800781 16.385575 C 5.708542 16.255002 5.619896 16.120836 5.536042 15.984273 C 5.45099 15.84771 5.371927 15.708752 5.296458 15.567398 C 5.22099 15.426044 5.150313 15.282294 5.084427 15.136148 C 5.017344 14.990002 4.95625 14.842658 4.89875 14.692919 C 4.842448 14.541981 4.790938 14.391044 4.743021 14.23771 C 4.696302 14.084377 4.653177 13.929846 4.616042 13.774116 C 4.578906 13.618387 4.545365 13.46146 4.517813 13.303335 C 4.49026 13.14521 4.468698 12.987085 4.450729 12.827762 C 4.43276 12.668439 4.420781 12.507918 4.413594 12.348595 C 4.406406 12.188075 4.40401 12.027554 4.406406 11.867033 C 4.408802 11.70771 4.417188 11.547189 4.429167 11.386668 C 4.442344 11.227345 4.460313 11.068022 4.483073 10.909897 C 4.505833 10.750574 4.534583 10.592449 4.566927 10.435522 C 4.600469 10.278595 4.637604 10.124064 4.680729 9.969533 C 4.723854 9.815001 4.770573 9.661668 4.823281 9.509533 C 4.87599 9.358595 4.93349 9.208856 4.995781 9.060314 C 5.056875 8.91297 5.123958 8.766824 5.194636 8.623074 C 5.266511 8.479324 5.341979 8.33797 5.42224 8.20021 C 5.501302 8.061251 5.586354 7.924689 5.675 7.790522 L 8.859063 13.309325 C 8.951303 13.528544 9.066303 13.736981 9.201667 13.932242 C 9.33823 14.1287 9.493959 14.308387 9.667657 14.471304 C 9.842553 14.634221 10.031824 14.776773 10.236667 14.900158 C 10.440313 15.023544 10.655938 15.124169 10.881147 15.202033 C 11.106355 15.2787 11.338751 15.332606 11.57474 15.361356 C 11.811928 15.390106 12.049116 15.3937 12.287501 15.373335 C 12.524688 15.351773 12.757084 15.306252 12.985886 15.235575 C 13.213491 15.164898 13.431512 15.07146 13.639949 14.955262 " transform="matrix(3.260869,0,0,3.260869,-1.630433,-1.630436)"/>
</g>
</svg>
