<?xml version="1.0" encoding="UTF-8"?>
<svg xmlns="http://www.w3.org/2000/svg" xmlns:xlink="http://www.w3.org/1999/xlink" width="75pt" height="74.999997pt" viewBox="0 0 75 74.999997" version="1.2">
<g id="surface1">
<path style=" stroke:none;fill-rule:nonzero;fill:rgb(0%,0%,0%);fill-opacity:1;" d="M 21.097656 53.734375 L 53.902344 53.734375 L 44.371094 41.804688 L 38.285156 45.324219 C 38.042969 45.46875 37.777344 45.539062 37.496094 45.539062 C 37.214844 45.539062 36.953125 45.46875 36.707031 45.324219 L 30.628906 41.804688 Z M 21.097656 53.734375 "/>
<path style=" stroke:none;fill-rule:nonzero;fill:rgb(0%,0%,0%);fill-opacity:1;" d="M 62.554688 0 L 12.445312 0 C 11.625 0 10.816406 0.0820312 10.015625 0.242188 C 9.214844 0.402344 8.4375 0.636719 7.683594 0.953125 C 6.929688 1.265625 6.214844 1.648438 5.535156 2.101562 C 4.855469 2.554688 4.226562 3.070312 3.648438 3.648438 C 3.070312 4.226562 2.554688 4.855469 2.101562 5.535156 C 1.648438 6.214844 1.265625 6.929688 0.953125 7.683594 C 0.636719 8.4375 0.402344 9.214844 0.242188 10.015625 C 0.0820312 10.816406 0 11.625 0 12.445312 L 0 62.554688 C 0 63.375 0.0820312 64.183594 0.242188 64.984375 C 0.402344 65.785156 0.636719 66.5625 0.953125 67.316406 C 1.265625 68.070312 1.648438 68.785156 2.101562 69.464844 C 2.554688 70.144531 3.070312 70.773438 3.648438 71.351562 C 4.226562 71.929688 4.855469 72.445312 5.535156 72.898438 C 6.214844 73.351562 6.929688 73.734375 7.683594 74.046875 C 8.4375 74.363281 9.214844 74.597656 10.015625 74.757812 C 10.816406 74.917969 11.625 75 12.445312 75 L 62.554688 75 C 63.375 75 64.183594 74.917969 64.984375 74.757812 C 65.785156 74.597656 66.5625 74.363281 67.316406 74.046875 C 68.070312 73.734375 68.785156 73.351562 69.464844 72.898438 C 70.144531 72.445312 70.773438 71.929688 71.351562 71.351562 C 71.929688 70.773438 72.445312 70.144531 72.898438 69.464844 C 73.351562 68.785156 73.734375 68.070312 74.046875 67.316406 C 74.363281 66.5625 74.597656 65.785156 74.757812 64.984375 C 74.917969 64.183594 75 63.375 75 62.554688 L 75 12.445312 C 75 11.625 74.917969 10.816406 74.757812 10.015625 C 74.597656 9.214844 74.363281 8.4375 74.046875 7.683594 C 73.734375 6.929688 73.351562 6.214844 72.898438 5.535156 C 72.445312 4.855469 71.929688 4.226562 71.351562 3.648438 C 70.773438 3.070312 70.144531 2.554688 69.464844 2.101562 C 68.785156 1.648438 68.070312 1.265625 67.316406 0.953125 C 66.5625 0.636719 65.785156 0.402344 64.984375 0.242188 C 64.183594 0.0820312 63.375 0 62.554688 0 Z M 60.859375 55.316406 C 60.859375 55.527344 60.820312 55.726562 60.742188 55.921875 C 60.660156 56.113281 60.546875 56.285156 60.398438 56.433594 C 60.25 56.582031 60.078125 56.695312 59.886719 56.777344 C 59.691406 56.855469 59.492188 56.894531 59.28125 56.894531 L 15.714844 56.894531 C 15.503906 56.894531 15.304688 56.855469 15.109375 56.777344 C 14.917969 56.695312 14.746094 56.582031 14.597656 56.433594 C 14.449219 56.285156 14.335938 56.113281 14.257812 55.921875 C 14.175781 55.726562 14.136719 55.527344 14.136719 55.316406 L 14.136719 31.375 C 14.136719 31.09375 14.207031 30.832031 14.347656 30.589844 C 14.488281 30.347656 14.679688 30.15625 14.925781 30.015625 C 15.167969 29.871094 15.429688 29.796875 15.714844 29.796875 C 15.996094 29.796875 16.261719 29.871094 16.503906 30.015625 L 37.5 42.128906 L 58.496094 30.015625 C 58.738281 29.871094 59.003906 29.796875 59.285156 29.796875 C 59.570312 29.796875 59.832031 29.871094 60.074219 30.015625 C 60.320312 30.15625 60.511719 30.347656 60.652344 30.589844 C 60.792969 30.832031 60.863281 31.09375 60.863281 31.375 Z M 60.859375 25.101562 C 60.859375 25.3125 60.820312 25.511719 60.742188 25.707031 C 60.660156 25.898438 60.546875 26.070312 60.398438 26.21875 C 60.25 26.367188 60.078125 26.480469 59.886719 26.558594 C 59.691406 26.640625 59.492188 26.679688 59.28125 26.679688 C 59.074219 26.679688 58.871094 26.640625 58.679688 26.558594 C 58.484375 26.480469 58.316406 26.367188 58.167969 26.21875 C 58.019531 26.070312 57.90625 25.898438 57.824219 25.707031 C 57.746094 25.511719 57.703125 25.3125 57.703125 25.101562 L 57.703125 21.257812 L 17.28125 21.257812 L 17.28125 25.109375 C 17.28125 25.316406 17.242188 25.519531 17.164062 25.710938 C 17.082031 25.90625 16.96875 26.078125 16.820312 26.226562 C 16.671875 26.371094 16.5 26.488281 16.308594 26.566406 C 16.113281 26.648438 15.914062 26.6875 15.703125 26.6875 C 15.496094 26.6875 15.292969 26.648438 15.101562 26.566406 C 14.90625 26.488281 14.738281 26.371094 14.589844 26.226562 C 14.441406 26.078125 14.328125 25.90625 14.246094 25.710938 C 14.167969 25.519531 14.125 25.316406 14.125 25.109375 L 14.125 19.679688 C 14.125 19.46875 14.167969 19.269531 14.246094 19.074219 C 14.328125 18.882812 14.441406 18.710938 14.589844 18.5625 C 14.738281 18.414062 14.90625 18.300781 15.101562 18.222656 C 15.292969 18.140625 15.496094 18.101562 15.703125 18.101562 L 59.28125 18.101562 C 59.492188 18.101562 59.691406 18.140625 59.886719 18.222656 C 60.078125 18.300781 60.25 18.414062 60.398438 18.5625 C 60.546875 18.710938 60.660156 18.882812 60.742188 19.074219 C 60.820312 19.269531 60.859375 19.46875 60.859375 19.679688 Z M 60.859375 25.101562 "/>
</g>
</svg>
